<?xml version="1.0" encoding="UTF-8"?>
<svg version="1.1" xmlns="http://www.w3.org/2000/svg" width="637" height="392">
<path d="M0 0 C1.53524323 -0.00639748 1.53524323 -0.00639748 3.10150146 -0.01292419 C4.79247452 -0.01224442 4.79247452 -0.01224442 6.51760864 -0.0115509 C8.29331238 -0.01658882 8.29331238 -0.01658882 10.10488892 -0.02172852 C13.35701141 -0.02961621 16.60909564 -0.03290701 19.86122656 -0.0335443 C22.57493116 -0.03449298 25.28862961 -0.03817086 28.00233185 -0.0417164 C34.40488821 -0.0498645 40.80743051 -0.05230034 47.20999146 -0.05158997 C53.81626072 -0.0509893 60.4224483 -0.06153797 67.02869689 -0.07733363 C72.69839579 -0.09040731 78.36806798 -0.09577392 84.03778183 -0.09513456 C87.42492487 -0.09487948 90.81199535 -0.09773554 94.19912338 -0.10831261 C97.97722962 -0.11807827 101.7551242 -0.11524785 105.53323364 -0.10920715 C106.65650055 -0.11482666 107.77976746 -0.12044617 108.93707275 -0.12623596 C109.96620789 -0.12204147 110.99534302 -0.11784698 112.05566406 -0.11352539 C112.94904921 -0.11407016 113.84243435 -0.11461493 114.76289177 -0.1151762 C117.35247001 0.15427947 118.95545877 0.76071017 121.15481567 2.13371277 C123.19241088 5.11897059 123.39356296 7.55643561 123.35012817 11.11808777 C123.34046021 12.51994324 123.34046021 12.51994324 123.33059692 13.95011902 C123.30546021 15.40224792 123.30546021 15.40224792 123.27981567 16.88371277 C123.27079224 17.86726746 123.2617688 18.85082214 123.25247192 19.86418152 C123.22894492 22.28746303 123.19307505 24.71061908 123.15481567 27.13371277 C127.11481567 27.13371277 131.07481567 27.13371277 135.15481567 27.13371277 C135.3315486 43.13627607 135.49765387 59.13889787 135.64959145 75.1417141 C135.72040418 82.57173216 135.79500289 90.00167652 135.87844849 97.43156433 C135.95115166 103.90580936 136.01681858 110.38008051 136.07395971 116.85448229 C136.10447646 120.2841209 136.13856811 123.7136415 136.18107986 127.14315414 C136.22835116 130.9672465 136.2599163 134.79137873 136.29006958 138.61564636 C136.30661087 139.75859665 136.32315216 140.90154694 136.3401947 142.07913208 C136.34585953 143.11682236 136.35152435 144.15451263 136.35736084 145.22364807 C136.36657877 146.12884878 136.3757967 147.03404949 136.38529396 147.96668053 C136.15481567 150.13371277 136.15481567 150.13371277 134.15481567 152.13371277 C131.69219589 152.39098167 131.69219589 152.39098167 128.52584839 152.40113831 C127.32854599 152.40966827 126.13124359 152.41819824 124.8976593 152.42698669 C123.56378161 152.4262876 122.22990402 152.4253645 120.89602661 152.42424011 C119.49661397 152.43022203 118.09720464 152.4370268 116.69779968 152.44459534 C112.8897679 152.46230114 109.08182594 152.46695275 105.27375698 152.46822691 C102.09547766 152.47012404 98.91721935 152.47747978 95.73894811 152.4845711 C88.23839969 152.50087155 80.7378993 152.50573871 73.23733521 152.50431824 C65.50176514 152.50311769 57.76647448 152.52419808 50.0309751 152.55580556 C43.39054291 152.58197112 36.75020191 152.59268536 30.10971856 152.59140742 C26.14340675 152.59089768 22.17734291 152.59658657 18.21108246 152.61776352 C14.4779931 152.63714976 10.74538801 152.63726815 7.01228142 152.62273026 C4.99285917 152.61964679 2.97343687 152.63631765 0.9540863 152.65361023 C-10.11579187 152.57677227 -10.11579187 152.57677227 -14.84518433 148.13371277 C-17.01252329 145.08705343 -17.06707637 142.56561054 -16.97018433 138.88371277 C-16.95213745 137.99168152 -16.93409058 137.09965027 -16.91549683 136.18058777 C-16.88069214 135.16738464 -16.88069214 135.16738464 -16.84518433 134.13371277 C-17.98407104 134.80080261 -17.98407104 134.80080261 -19.14596558 135.48136902 C-20.13983276 136.04726746 -21.13369995 136.61316589 -22.15768433 137.19621277 C-23.63688354 138.04892761 -23.63688354 138.04892761 -25.14596558 138.91886902 C-27.84518433 140.13371277 -27.84518433 140.13371277 -30.84518433 139.13371277 C-31.05554382 123.20035151 -31.21418927 107.2673658 -31.31149387 91.33296013 C-31.35787805 83.93404056 -31.42109795 76.53598435 -31.5241394 69.13761902 C-31.61392179 62.68817253 -31.67192544 56.23935127 -31.69198078 49.78929722 C-31.70370307 46.37447453 -31.7311886 42.9614402 -31.79675484 39.54719162 C-31.8620206 35.73233911 -31.87108941 31.92120093 -31.86691284 28.10588074 C-31.89927032 26.97731155 -31.93162781 25.84874237 -31.96496582 24.68597412 C-31.87610191 17.19308623 -31.87610191 17.19308623 -28.91665459 14.15195084 C-26.61904262 12.59843511 -24.33552386 11.34849004 -21.84518433 10.13371277 C-20.47424733 9.306425 -19.1095225 8.46861971 -17.75534058 7.61418152 C-16.47416889 6.847547 -15.1916325 6.08318814 -13.90768433 5.32121277 C-13.24961792 4.92740417 -12.59155151 4.53359558 -11.9135437 4.12785339 C-5.01179425 0.00940925 -5.01179425 0.00940925 0 0 Z M48.15481567 30.13371277 C47.41038208 32.74793152 47.41038208 32.74793152 46.65090942 35.41496277 C43.2427153 47.37107997 39.8239843 59.32373931 36.34231567 71.25871277 C36.06508667 72.20939636 35.78785767 73.16007996 35.50222778 74.13957214 C35.23676147 75.04771667 34.97129517 75.95586121 34.69778442 76.89152527 C34.44432251 77.7593866 34.1908606 78.62724792 33.92971802 79.52140808 C33.3943538 81.3261961 32.84702755 83.12746347 32.29006958 84.92570496 C32.0146936 85.81676941 31.73931763 86.70783386 31.45559692 87.62590027 C31.20592163 88.4210907 30.95624634 89.21628113 30.69900513 90.03556824 C30.02928573 92.25643715 30.02928573 92.25643715 30.15481567 95.13371277 C34.44481567 95.13371277 38.73481567 95.13371277 43.15481567 95.13371277 C43.79419067 93.56621277 44.43356567 91.99871277 45.09231567 90.38371277 C45.45196411 89.50199402 45.81161255 88.62027527 46.18215942 87.71183777 C47.01014309 85.51718227 47.61141811 83.40879362 48.15481567 81.13371277 C48.71467163 81.10865662 49.27452759 81.08360046 49.85134888 81.05778503 C52.39022872 80.94167532 54.9287512 80.81901697 57.46731567 80.69621277 C58.34838989 80.65689636 59.22946411 80.61757996 60.13723755 80.57707214 C60.98479614 80.53517761 61.83235474 80.49328308 62.70559692 80.45011902 C63.48588257 80.4134613 64.26616821 80.37680359 65.07009888 80.33903503 C67.34810668 80.19246013 67.34810668 80.19246013 70.15481567 79.13371277 C70.34817505 80.20492371 70.54153442 81.27613464 70.74075317 82.37980652 C71.00331822 83.77702766 71.26636393 85.17415854 71.52981567 86.57121277 C71.6561438 87.27826355 71.78247192 87.98531433 71.91262817 88.71379089 C72.2610381 90.53423277 72.70185867 92.33642925 73.15481567 94.13371277 C76.0389745 95.57579218 78.57203096 95.22766164 81.77981567 95.19621277 C83.56258911 95.18267761 83.56258911 95.18267761 85.38137817 95.16886902 C86.75422974 95.15146667 86.75422974 95.15146667 88.15481567 95.13371277 C87.13796677 89.40347011 85.89568536 83.91929911 83.93606567 78.43449402 C82.46372669 74.09845571 81.29492495 69.67294169 80.11184692 65.25090027 C76.92050893 53.37413339 73.11400062 41.77837438 69.15481567 30.13371277 C62.22481567 30.13371277 55.29481567 30.13371277 48.15481567 30.13371277 Z " fill="#E31050" transform="translate(43.845184326171875,120.86628723144531)"/>
<path d="M0 0 C3.96 0 7.92 0 12 0 C13.62776906 1.62776906 13.14877472 3.45133567 13.17167664 5.70042419 C13.18435577 6.71702118 13.19703491 7.73361816 13.21009827 8.78102112 C13.21899582 9.90572311 13.22789337 11.03042511 13.23706055 12.18920898 C13.25017273 13.36632446 13.26328491 14.54343994 13.27679443 15.75622559 C13.31152136 18.99377792 13.34167172 22.23133038 13.36918616 25.46895099 C13.38666305 27.48965359 13.40554272 29.51033797 13.42493629 31.53102303 C13.49253053 38.57476226 13.55494559 45.61852566 13.61254883 52.66235352 C13.66645265 59.23747632 13.73154854 65.81242391 13.80188721 72.3873896 C13.86170881 78.02470622 13.91379323 83.66205967 13.95981437 89.29950577 C13.98745842 92.66987205 14.01826922 96.04013788 14.05682945 99.41039848 C14.09777929 103.16739025 14.12608795 106.92426973 14.15112305 110.68139648 C14.17357841 112.36541313 14.17357841 112.36541313 14.19648743 114.08345032 C14.20070709 115.10286713 14.20492676 116.12228394 14.20927429 117.17259216 C14.2171934 118.06174537 14.22511251 118.95089857 14.2332716 119.86699581 C14 122 14 122 12 124 C9.53738022 124.25726891 9.53738022 124.25726891 6.37103271 124.26742554 C5.17373032 124.27595551 3.97642792 124.28448547 2.74284363 124.29327393 C1.40896593 124.29257483 0.07508834 124.29165173 -1.25878906 124.29052734 C-2.6582017 124.29650926 -4.05761103 124.30331403 -5.45701599 124.31088257 C-9.26504777 124.32858837 -13.07298973 124.33323998 -16.88105869 124.33451414 C-20.05933801 124.33641127 -23.23759632 124.34376701 -26.41586757 124.35085833 C-33.91641599 124.36715878 -41.41691638 124.37202594 -48.91748047 124.37060547 C-56.65305054 124.36940493 -64.38834119 124.39048531 -72.12384057 124.4220928 C-78.76427277 124.44825835 -85.40461377 124.45897259 -92.04509711 124.45769465 C-96.01140892 124.45718491 -99.97747276 124.4628738 -103.94373322 124.48405075 C-107.67682258 124.50343699 -111.40942766 124.50355539 -115.14253426 124.48901749 C-117.16195651 124.48593402 -119.18137881 124.50260488 -121.20072937 124.51989746 C-132.26493142 124.4430989 -132.26493142 124.4430989 -137 120 C-139.31452405 116.805023 -139.29807753 113.81714348 -139.3125 109.9375 C-139.32925781 108.89464844 -139.34601563 107.85179687 -139.36328125 106.77734375 C-138.8509762 102.86068904 -137.0004321 101.77790704 -133.96607399 99.41847801 C-127.01756194 94.81481982 -121.51412085 94.16368941 -113.29833984 94.31884766 C-111.45272461 94.31753342 -111.45272461 94.31753342 -109.56982422 94.31619263 C-106.22665387 94.3196339 -102.88576249 94.34952158 -99.54299498 94.39163637 C-96.03838668 94.42938499 -92.53374142 94.43268756 -89.02896118 94.43978882 C-82.40622017 94.45836751 -75.78408012 94.50750818 -69.16160262 94.56788576 C-60.87477791 94.64178202 -52.58785367 94.67442836 -44.30078125 94.70703125 C-29.53338716 94.76530951 -14.7673026 94.88552479 0 95 C0 63.65 0 32.3 0 0 Z " fill="#780829" transform="translate(166,149)"/>
<path d="M0 0 C1.02927612 -0.00137466 2.05855225 -0.00274933 3.11901855 -0.00416565 C4.81941788 0.00122726 4.81941788 0.00122726 6.5541687 0.00672913 C7.74439636 0.0065831 8.93462402 0.00643707 10.16091919 0.00628662 C13.42930857 0.00686493 16.69765544 0.01188878 19.96603632 0.01886058 C23.3800046 0.02510135 26.79397367 0.02569849 30.20794678 0.02688599 C36.6748439 0.02999716 43.14172416 0.03820768 49.60861385 0.04823548 C56.97006559 0.05940323 64.33151813 0.06490874 71.69297624 0.06993091 C86.83795995 0.08039046 101.98292788 0.09798579 117.12789917 0.12025452 C117.12789917 0.45025452 117.12789917 0.78025452 117.12789917 1.12025452 C77.52789917 1.45025452 37.92789917 1.78025452 -2.87210083 2.12025452 C-2.74448364 10.77373108 -2.61686646 19.42720764 -2.48538208 28.34291077 C-2.42202794 34.5226468 -2.36564108 40.70213878 -2.31930828 46.88199329 C-2.25836254 54.88719294 -2.18101217 62.89113111 -2.04226685 70.895401 C-1.93246128 77.23315883 -1.86162383 83.56996486 -1.83712739 89.90864748 C-1.82281041 93.26410984 -1.78929881 96.61685003 -1.70907021 99.97143745 C-1.62917988 103.72198384 -1.61822028 107.46689448 -1.62332153 111.21815491 C-1.5837735 112.32442734 -1.54422546 113.43069977 -1.503479 114.57049561 C-1.55069197 117.77937356 -1.70323769 120.12649681 -2.87210083 123.12025452 C-6.3347176 126.33944399 -10.93585357 130.12025452 -15.87210083 130.12025452 C-15.95331177 131.00777405 -15.95331177 131.00777405 -16.03616333 131.91322327 C-17.26271838 135.15155786 -19.23535121 135.8399263 -22.24710083 137.43275452 C-23.22421021 137.96513733 -24.20131958 138.49752014 -25.20803833 139.04603577 C-27.87210083 140.12025452 -27.87210083 140.12025452 -30.87210083 139.12025452 C-31.08246033 123.18689326 -31.24110578 107.25390754 -31.33841038 91.31950188 C-31.38479456 83.92058231 -31.44801445 76.5225261 -31.55105591 69.12416077 C-31.64083829 62.67471428 -31.69884194 56.22589302 -31.71889728 49.77583897 C-31.73061957 46.36101628 -31.75810511 42.94798195 -31.82367134 39.53373337 C-31.8889371 35.71888086 -31.89800592 31.90774268 -31.89382935 28.09242249 C-31.92618683 26.9638533 -31.95854431 25.83528412 -31.99188232 24.67251587 C-31.90301841 17.17962797 -31.90301841 17.17962797 -28.94357109 14.13849258 C-26.64595913 12.58497686 -24.36244036 11.33503179 -21.87210083 10.12025452 C-20.50116384 9.29296675 -19.136439 8.45516146 -17.78225708 7.60072327 C-16.5010854 6.83408875 -15.218549 6.06972989 -13.93460083 5.30775452 C-13.27653442 4.91394592 -12.61846802 4.52013733 -11.94046021 4.11439514 C-5.03683002 -0.00517128 -5.03683002 -0.00517128 0 0 Z " fill="#E15982" transform="translate(43.872100830078125,120.87974548339844)"/>
<path d="M0 0 C0.70189453 0.00451172 1.40378906 0.00902344 2.12695312 0.01367188 C3.85550538 0.02543073 5.58401365 0.04336546 7.3125 0.0625 C7.3125 0.7225 7.3125 1.3825 7.3125 2.0625 C8.735625 2.43375 8.735625 2.43375 10.1875 2.8125 C13.3125 4.0625 13.3125 4.0625 14.6875 6.1875 C14.89375 6.80625 15.1 7.425 15.3125 8.0625 C14.6525 8.3925 13.9925 8.7225 13.3125 9.0625 C12.17899466 11.07919827 12.17899466 11.07919827 11.3125 13.0625 C7.97916667 12.39583333 4.64583333 11.72916667 1.3125 11.0625 C1.3125 10.4025 1.3125 9.7425 1.3125 9.0625 C-0.0075 9.0625 -1.3275 9.0625 -2.6875 9.0625 C-3.0175 9.7225 -3.3475 10.3825 -3.6875 11.0625 C-4.6775 11.3925 -5.6675 11.7225 -6.6875 12.0625 C-9.32038608 13.88526728 -9.66956675 14.97122435 -10.296875 18.1640625 C-10.71265874 22.31358424 -10.62179516 26.16794489 -10.3125 30.3125 C-10.26867187 31.01890625 -10.22484375 31.7253125 -10.1796875 32.453125 C-9.97077649 35.51715311 -9.66303471 38.13589587 -8.6875 41.0625 C-8.0275 41.0625 -7.3675 41.0625 -6.6875 41.0625 C-6.6875 41.7225 -6.6875 42.3825 -6.6875 43.0625 C0.02950347 43.38235731 5.06976932 42.5418824 11.3125 40.0625 C12.3025 42.0425 13.2925 44.0225 14.3125 46.0625 C14.9725 46.0625 15.6325 46.0625 16.3125 46.0625 C16.9725 43.7525 17.6325 41.4425 18.3125 39.0625 C18.9725 39.0625 19.6325 39.0625 20.3125 39.0625 C20.34988281 38.39863281 20.38726562 37.73476562 20.42578125 37.05078125 C20.81470805 31.82696044 21.39502799 28.50213131 24.3125 24.0625 C24.56446129 21.35296449 24.56446129 21.35296449 24.3125 19.0625 C24.9725 19.0625 25.6325 19.0625 26.3125 19.0625 C26.250625 18.36125 26.18875 17.66 26.125 16.9375 C26.35613255 13.3934675 27.7067264 11.20981626 29.3125 8.0625 C29.65828768 6.06461562 29.99393549 4.06490549 30.3125 2.0625 C30.9725 1.4025 31.6325 0.7425 32.3125 0.0625 C32.8075 0.5575 32.8075 0.5575 33.3125 1.0625 C35.49542774 1.29731693 37.68453174 1.47613323 39.875 1.625 C41.07253906 1.70878906 42.27007812 1.79257813 43.50390625 1.87890625 C44.43074219 1.93949219 45.35757813 2.00007812 46.3125 2.0625 C46.48700684 2.6603833 46.66151367 3.2582666 46.84130859 3.87426758 C48.98934598 11.14449379 51.39499902 18.31052921 53.8828125 25.47070312 C55.5444262 30.35885549 56.79208025 34.92159675 57.3125 40.0625 C57.9725 40.0625 58.6325 40.0625 59.3125 40.0625 C60.3025 46.0025 60.3025 46.0025 61.3125 52.0625 C54.58836207 53.40732759 54.58836207 53.40732759 51.3125 53.0625 C48.0935618 50.4647604 47.37479106 47.65376363 46.25390625 43.8046875 C45.44734491 41.84632616 45.44734491 41.84632616 43.21484375 41.3203125 C42.58707031 41.23523438 41.95929688 41.15015625 41.3125 41.0625 C41.3125 40.4025 41.3125 39.7425 41.3125 39.0625 C39.0025 39.0625 36.6925 39.0625 34.3125 39.0625 C34.3125 39.7225 34.3125 40.3825 34.3125 41.0625 C33.3225 41.3925 32.3325 41.7225 31.3125 42.0625 C30.60758733 44.38456525 29.94037571 46.71843068 29.3125 49.0625 C28.3225 49.5575 28.3225 49.5575 27.3125 50.0625 C26.9825 51.0525 26.6525 52.0425 26.3125 53.0625 C19.6875 53.1875 19.6875 53.1875 16.3125 52.0625 C15.9825 51.0725 15.6525 50.0825 15.3125 49.0625 C12.8375 49.5575 12.8375 49.5575 10.3125 50.0625 C10.3125 50.7225 10.3125 51.3825 10.3125 52.0625 C1.52142441 55.04518636 -5.89607778 53.06888593 -14.6875 51.0625 C-14.6875 50.4025 -14.6875 49.7425 -14.6875 49.0625 C-15.3475 49.0625 -16.0075 49.0625 -16.6875 49.0625 C-16.6875 48.4025 -16.6875 47.7425 -16.6875 47.0625 C-17.3475 47.0625 -18.0075 47.0625 -18.6875 47.0625 C-21.75889421 43.10782292 -22.05360267 40.04053352 -22.015625 35.1171875 C-22.01375183 34.46549591 -22.01187866 33.81380432 -22.00994873 33.1423645 C-22.00325761 31.77242879 -21.98940182 30.40251123 -21.96875 29.03271484 C-21.93749245 26.93699362 -21.92776383 24.84202545 -21.921875 22.74609375 C-21.85187952 12.55563857 -21.85187952 12.55563857 -20.6875 9.0625 C-20.0275 9.0625 -19.3675 9.0625 -18.6875 9.0625 C-18.39875 8.44375 -18.11 7.825 -17.8125 7.1875 C-16.6875 5.0625 -16.6875 5.0625 -14.6875 3.0625 C-13.3675 3.0625 -12.0475 3.0625 -10.6875 3.0625 C-10.6875 2.4025 -10.6875 1.7425 -10.6875 1.0625 C-7.06882441 -0.1437252 -3.76243749 -0.04566918 0 0 Z M36.3125 18.0625 C35.27035309 22.67757774 35.27035309 22.67757774 36.3125 27.0625 C35.6525 27.0625 34.9925 27.0625 34.3125 27.0625 C34.6425 27.7225 34.9725 28.3825 35.3125 29.0625 C37.69879447 29.67437038 39.84790571 30.0625 42.3125 30.0625 C42.17142253 28.60369891 42.02447585 27.14546449 41.875 25.6875 C41.79378906 24.87539062 41.71257812 24.06328125 41.62890625 23.2265625 C41.42159886 21.01977195 41.42159886 21.01977195 40.3125 19.0625 C38.28786745 18.41036708 38.28786745 18.41036708 36.3125 18.0625 Z " fill="#121212" transform="translate(386.6875,192.9375)"/>
<path d="M0 0 C3.40077816 3.23883634 5.51943805 6.55831414 7 11 C7.66 11.66 8.32 12.32 9 13 C9.22705078 15.15478516 9.22705078 15.15478516 9.1953125 17.7890625 C9.18886719 18.73007813 9.18242187 19.67109375 9.17578125 20.640625 C9.15902344 21.62546875 9.14226562 22.6103125 9.125 23.625 C9.11597656 24.61757812 9.10695313 25.61015625 9.09765625 26.6328125 C9.07404116 29.08878134 9.04110799 31.54427168 9 34 C8.34 34 7.68 34 7 34 C6.814375 34.86625 6.814375 34.86625 6.625 35.75 C5.99351176 38.02335767 5.11141809 39.9253529 4 42 C3.34 42 2.68 42 2 42 C1.93039062 42.61359375 1.86078125 43.2271875 1.7890625 43.859375 C1 46 1 46 -0.9765625 47.265625 C-11.77049942 51.27753076 -22.98650837 51.24988278 -34 48 C-35.34486201 47.35690717 -36.68160353 46.69573916 -38 46 C-38 45.34 -38 44.68 -38 44 C-38.66 44 -39.32 44 -40 44 C-40 43.34 -40 42.68 -40 42 C-40.598125 41.835 -41.19625 41.67 -41.8125 41.5 C-45.22881026 39.15738725 -46.05169758 35.86183684 -47 32 C-47.53872919 28.33767754 -47.84548738 24.69764688 -48 21 C-48.061875 20.01773438 -48.12375 19.03546875 -48.1875 18.0234375 C-47.96738167 14.47402941 -47.01633137 12.35723908 -45.3125 9.25 C-44.81363281 8.30640625 -44.31476563 7.3628125 -43.80078125 6.390625 C-41.74325704 3.65916119 -40.23771259 2.94869943 -37 2 C-37 1.34 -37 0.68 -37 0 C-26.21370986 -4.35600179 -10.61947033 -5.52794346 0 0 Z M-25 10 C-25.99 11.485 -25.99 11.485 -27 13 C-27.99 13.33 -28.98 13.66 -30 14 C-32.60969201 18.91906231 -33.52720534 23.58536288 -32 29 C-31.34 29 -30.68 29 -30 29 C-29.938125 29.763125 -29.87625 30.52625 -29.8125 31.3125 C-29.21655477 34.11637181 -29.21655477 34.11637181 -27 35.8125 C-22.89620972 37.43691699 -19.35632976 37.70312691 -15 37 C-11.44678747 35.38492402 -11.44678747 35.38492402 -9 33 C-9 32.01 -9 31.02 -9 30 C-8.34 30 -7.68 30 -7 30 C-5.81693272 27.63386544 -5.86645392 26.13219264 -5.875 23.5 C-5.87242187 22.7059375 -5.86984375 21.911875 -5.8671875 21.09375 C-5.86722004 18.94081466 -5.86722004 18.94081466 -7 17 C-7.66 17 -8.32 17 -9 17 C-9 16.01 -9 15.02 -9 14 C-9.66 14 -10.32 14 -11 14 C-11.33 13.01 -11.66 12.02 -12 11 C-14.59458106 9.70270947 -16.60447598 9.7957188 -19.5 9.75 C-20.4796875 9.72421875 -21.459375 9.6984375 -22.46875 9.671875 C-23.72171875 9.83429688 -23.72171875 9.83429688 -25 10 Z " fill="#0B0B0B" transform="translate(414,123)"/>
<path d="M0 0 C2.1511666 1.87934162 3.39725635 3.59588453 5 6 C5.66 6.33 6.32 6.66 7 7 C8.18154896 9.75694758 8.04510094 10.86770391 7.0625 13.75 C6.5365625 14.86375 6.5365625 14.86375 6 16 C2.7 16 -0.6 16 -4 16 C-3.505 16.99 -3.505 16.99 -3 18 C-2.071875 18.0825 -1.14375 18.165 -0.1875 18.25 C3 19 3 19 5.3125 21.8125 C8.49578267 27.82536727 9.11350917 34.28302536 8 41 C5.27287281 44.92586442 1.29606653 47.07563228 -3 49 C-13.73691641 50.88366954 -25.61826761 51.3048257 -35.5 46.1875 C-38.27879653 43.75605303 -39.18682117 42.57798687 -40 39 C-40.14033797 36.30851823 -40.09151236 33.69961476 -40 31 C-37.03 30.34 -34.06 29.68 -31 29 C-32.32 28.34 -33.64 27.68 -35 27 C-39.58580777 21.89009992 -40.2511245 18.16113934 -40.14453125 11.50390625 C-39.95717775 8.25813342 -39.51602648 5.89423237 -38 3 C-26.98818777 -6.17651019 -12.57429593 -6.27760753 0 0 Z M-23 10 C-23.33 11.65 -23.66 13.3 -24 15 C-20.46813168 17.15059309 -17.33712007 17.3797728 -13.25 17.625 C-12.07953125 17.69976562 -10.9090625 17.77453125 -9.703125 17.8515625 C-8.81109375 17.90054688 -7.9190625 17.94953125 -7 18 C-6.67 17.01 -6.34 16.02 -6 15 C-7.65658625 12.63344822 -8.5471347 11.42958407 -11 10 C-15.03253609 9.55427104 -18.95907202 9.70998125 -23 10 Z M-27 29 C-26.34 30.98 -25.68 32.96 -25 35 C-23.68 35 -22.36 35 -21 35 C-21 35.66 -21 36.32 -21 37 C-17.37 37 -13.74 37 -10 37 C-9.34 35.68 -8.68 34.36 -8 33 C-10.44362828 30.04192366 -12.25746599 29.55287434 -16 29 C-17.93651019 28.93466565 -19.87502861 28.91415697 -21.8125 28.9375 C-22.78832031 28.94652344 -23.76414062 28.95554688 -24.76953125 28.96484375 C-25.50558594 28.97644531 -26.24164062 28.98804688 -27 29 Z " fill="#0D0D0D" transform="translate(565,123)"/>
<path d="M0 0 C4.2134451 -0.05006378 8.42672489 -0.08602769 12.64038086 -0.10986328 C14.06879702 -0.1198174 15.49719338 -0.13338562 16.92553711 -0.15087891 C35.85418863 -0.37661519 35.85418863 -0.37661519 42 2 C44.85780043 4.91424792 45 5.743588 45 10 C45.99 10.33 46.98 10.66 48 11 C48.11647041 15.54144994 48.18734502 20.08251394 48.25 24.625 C48.28351563 25.91019531 48.31703125 27.19539063 48.3515625 28.51953125 C48.47053634 40.00050707 48.47053634 40.00050707 44 45 C43.67 45.99 43.34 46.98 43 48 C37.77214867 50.86929594 33.54623655 51.41791057 27.66015625 51.29296875 C26.89319931 51.28872391 26.12624237 51.28447906 25.33604431 51.28010559 C22.91115668 51.2634507 20.48713202 51.22582553 18.0625 51.1875 C16.40821522 51.17243601 14.75391727 51.15875062 13.09960938 51.14648438 C9.06607897 51.11359077 5.03318527 51.06190249 1 51 C0.13225113 48.00372383 -0.12189893 45.34640117 -0.11352539 42.23144531 C-0.11344986 41.29077209 -0.11337433 40.35009888 -0.11329651 39.38092041 C-0.10813522 38.37349792 -0.10297394 37.36607544 -0.09765625 36.328125 C-0.0962413 35.29057068 -0.09482635 34.25301636 -0.09336853 33.184021 C-0.08777447 29.87265124 -0.07522303 26.56134929 -0.0625 23.25 C-0.05748423 21.00390723 -0.05292146 18.75781339 -0.04882812 16.51171875 C-0.03780699 11.0077894 -0.02107474 5.50389954 0 0 Z M15 13 C14.90065224 14.68385075 14.8691995 16.37181597 14.8671875 18.05859375 C14.86589844 19.08404297 14.86460937 20.10949219 14.86328125 21.16601562 C14.86714844 22.24560547 14.87101562 23.32519531 14.875 24.4375 C14.86919922 26.05108398 14.86919922 26.05108398 14.86328125 27.69726562 C14.86457031 28.72400391 14.86585938 29.75074219 14.8671875 30.80859375 C14.86831543 31.75532959 14.86944336 32.70206543 14.87060547 33.67749023 C14.84735284 36.02534473 14.84735284 36.02534473 16 38 C17.74965358 38.05429959 19.49979787 38.09292823 21.25 38.125 C22.22453125 38.14820313 23.1990625 38.17140625 24.203125 38.1953125 C27.10258263 37.99283641 28.6344417 37.66426446 31 36 C33.50224554 32.57920863 33.26748563 29.12660913 33.25 25 C33.25515625 23.783125 33.2603125 22.56625 33.265625 21.3125 C33.01794289 18.22375837 32.71365055 16.53427193 31 14 C27.59747803 11.87342377 18.20659859 9.79340141 15 13 Z " fill="#070707" transform="translate(427,121)"/>
<path d="M0 0 C1.17433594 0.01417969 2.34867188 0.02835937 3.55859375 0.04296875 C5.32396484 0.05263672 5.32396484 0.05263672 7.125 0.0625 C9.99609375 0.23046875 9.99609375 0.23046875 10.99609375 1.23046875 C11.20505692 3.03858059 11.36389736 4.85262907 11.49609375 6.66796875 C11.71028558 10.5948179 11.71028558 10.5948179 12.99609375 14.23046875 C13.32609375 13.57046875 13.65609375 12.91046875 13.99609375 12.23046875 C14.65609375 12.23046875 15.31609375 12.23046875 15.99609375 12.23046875 C16.26421875 11.65296875 16.53234375 11.07546875 16.80859375 10.48046875 C18.02538564 8.17496832 19.29943254 6.20990683 20.99609375 4.23046875 C21.65609375 4.23046875 22.31609375 4.23046875 22.99609375 4.23046875 C23.32609375 3.24046875 23.65609375 2.25046875 23.99609375 1.23046875 C27.61476934 0.02424355 30.92115626 0.12229957 34.68359375 0.16796875 C35.38548828 0.17248047 36.08738281 0.17699219 36.81054688 0.18164062 C38.53909913 0.19339948 40.2676074 0.21133421 41.99609375 0.23046875 C42.49109375 1.22046875 42.49109375 1.22046875 42.99609375 2.23046875 C41.63518668 6.31318996 39.08016283 7.84772678 35.80859375 10.51171875 C33.74530469 12.19817999 33.74530469 12.19817999 32.99609375 15.23046875 C31.05859375 17.41796875 31.05859375 17.41796875 28.99609375 19.23046875 C28.33609375 19.23046875 27.67609375 19.23046875 26.99609375 19.23046875 C26.66609375 20.55046875 26.33609375 21.87046875 25.99609375 23.23046875 C25.00609375 23.23046875 24.01609375 23.23046875 22.99609375 23.23046875 C23.50589706 27.00301328 24.20309557 28.68033998 26.99609375 31.23046875 C26.99609375 31.89046875 26.99609375 32.55046875 26.99609375 33.23046875 C27.98609375 33.56046875 28.97609375 33.89046875 29.99609375 34.23046875 C29.99609375 34.89046875 29.99609375 35.55046875 29.99609375 36.23046875 C30.98609375 36.56046875 31.97609375 36.89046875 32.99609375 37.23046875 C32.99609375 37.89046875 32.99609375 38.55046875 32.99609375 39.23046875 C33.65609375 39.23046875 34.31609375 39.23046875 34.99609375 39.23046875 C34.99609375 39.89046875 34.99609375 40.55046875 34.99609375 41.23046875 C35.65609375 41.23046875 36.31609375 41.23046875 36.99609375 41.23046875 C36.99609375 41.89046875 36.99609375 42.55046875 36.99609375 43.23046875 C37.65609375 43.23046875 38.31609375 43.23046875 38.99609375 43.23046875 C42.01971804 45.52842321 42.37105514 47.5933393 42.99609375 51.23046875 C40.05804379 51.31133251 37.122213 51.37089705 34.18359375 51.41796875 C33.35021484 51.44310547 32.51683594 51.46824219 31.65820312 51.49414062 C30.85576172 51.50380859 30.05332031 51.51347656 29.2265625 51.5234375 C28.48817139 51.53914795 27.74978027 51.5548584 26.98901367 51.57104492 C24.4388189 51.13523435 23.55433526 50.25670612 21.99609375 48.23046875 C21.99609375 47.57046875 21.99609375 46.91046875 21.99609375 46.23046875 C21.33609375 46.23046875 20.67609375 46.23046875 19.99609375 46.23046875 C19.99609375 45.57046875 19.99609375 44.91046875 19.99609375 44.23046875 C19.33609375 44.23046875 18.67609375 44.23046875 17.99609375 44.23046875 C17.99609375 43.57046875 17.99609375 42.91046875 17.99609375 42.23046875 C17.33609375 42.23046875 16.67609375 42.23046875 15.99609375 42.23046875 C15.66609375 41.57046875 15.33609375 40.91046875 14.99609375 40.23046875 C13.67609375 39.90046875 12.35609375 39.57046875 10.99609375 39.23046875 C10.99609375 43.19046875 10.99609375 47.15046875 10.99609375 51.23046875 C6.04609375 51.23046875 1.09609375 51.23046875 -4.00390625 51.23046875 C-4.8009872 48.04214497 -5.1336477 45.87187141 -5.14916992 42.67724609 C-5.15554977 41.78306976 -5.16192963 40.88889343 -5.16850281 39.96762085 C-5.16961563 39.01022003 -5.17072845 38.05281921 -5.171875 37.06640625 C-5.1752034 36.07798737 -5.1785318 35.08956848 -5.18196106 34.07119751 C-5.18701817 31.98496974 -5.18936976 29.8987339 -5.18920898 27.8125 C-5.19140277 24.61054336 -5.20959131 21.40892727 -5.22851562 18.20703125 C-5.23144826 16.18099076 -5.23343392 14.15494864 -5.234375 12.12890625 C-5.24156052 11.16745697 -5.24874603 10.20600769 -5.25614929 9.21542358 C-5.25307266 8.32755157 -5.24999603 7.43967957 -5.24682617 6.52490234 C-5.2489637 5.35053116 -5.2489637 5.35053116 -5.25114441 4.1524353 C-4.79998656 0.64524899 -3.32539032 0.25513398 0 0 Z " fill="#0C0C0C" transform="translate(581.00390625,120.76953125)"/>
<path d="M0 0 C5.67830078 -0.02464705 11.35657069 -0.04283462 17.03491211 -0.05493164 C18.96818585 -0.05997256 20.90145576 -0.06680519 22.8347168 -0.07543945 C25.60726872 -0.08751565 28.37977041 -0.09323057 31.15234375 -0.09765625 C32.45702858 -0.10539818 32.45702858 -0.10539818 33.78807068 -0.11329651 C35.85905814 -0.11349185 37.92994324 -0.06208168 40 0 C41 1 41 1 41.09765625 3.50390625 C41.08605469 4.51324219 41.07445312 5.52257812 41.0625 6.5625 C41.05347656 7.57441406 41.04445313 8.58632812 41.03515625 9.62890625 C41.02355469 10.41136719 41.01195312 11.19382813 41 12 C38.35177988 13.32411006 36.51061806 13.01892401 33.5546875 12.87890625 C32.47832031 12.83056641 31.40195312 12.78222656 30.29296875 12.73242188 C29.16503906 12.67634766 28.03710938 12.62027344 26.875 12.5625 C25.73933594 12.51029297 24.60367187 12.45808594 23.43359375 12.40429688 C20.62213369 12.27435544 17.81100535 12.13938086 15 12 C15.33 13.98 15.66 15.96 16 18 C17.05960937 17.98839844 18.11921875 17.97679687 19.2109375 17.96484375 C20.59895658 17.95546524 21.98697755 17.94636511 23.375 17.9375 C24.07367188 17.92912109 24.77234375 17.92074219 25.4921875 17.91210938 C30.7734375 17.88671875 30.7734375 17.88671875 33 19 C33.33 18.34 33.66 17.68 34 17 C34.66 17.33 35.32 17.66 36 18 C36 22.29 36 26.58 36 31 C33.59564994 32.20217503 32.31618631 32.03897118 29.6484375 31.87890625 C28.79765625 31.83056641 27.946875 31.78222656 27.0703125 31.73242188 C26.18085938 31.67634766 25.29140625 31.62027344 24.375 31.5625 C23.4778125 31.51029297 22.580625 31.45808594 21.65625 31.40429688 C19.43715988 31.2744565 17.21850129 31.13948661 15 31 C15 33.31 15 35.62 15 38 C23.58 38 32.16 38 41 38 C41 42.29 41 46.58 41 51 C35.19759432 51.02467332 29.39521902 51.04284724 23.59277344 51.05493164 C21.61783313 51.0599681 19.64289657 51.06679751 17.66796875 51.07543945 C14.83332395 51.08753508 11.99872834 51.0932351 9.1640625 51.09765625 C8.27756012 51.10281754 7.39105774 51.10797882 6.47769165 51.11329651 C0.22774341 51.11387171 0.22774341 51.11387171 -2 50 C-2 49.01 -2 48.02 -2 47 C-1.34 47 -0.68 47 0 47 C-0.03552979 45.68281982 -0.07105957 44.36563965 -0.10766602 43.00854492 C-0.23790642 38.12781621 -0.36111191 33.246931 -0.48217773 28.3659668 C-0.53559143 26.25231051 -0.5909203 24.13870172 -0.64819336 22.02514648 C-0.73012166 18.98952478 -0.80519135 15.95379962 -0.87890625 12.91796875 C-0.90594131 11.97100632 -0.93297638 11.02404388 -0.96083069 10.04838562 C-0.98092697 9.16769913 -1.00102325 8.28701263 -1.02172852 7.37963867 C-1.04171402 6.60464523 -1.06169952 5.82965179 -1.08229065 5.03117371 C-1 3 -1 3 0 0 Z " fill="#080808" transform="translate(480,121)"/>
<path d="M0 0 C1.16499023 -0.04350586 1.16499023 -0.04350586 2.35351562 -0.08789062 C8.02891838 -0.15143949 8.02891838 -0.15143949 10.59765625 2.08203125 C11.5625 4.3125 11.5625 4.3125 11.5625 8.3125 C12.2225 8.3125 12.8825 8.3125 13.5625 8.3125 C13.68238281 9.19035156 13.80226562 10.06820312 13.92578125 10.97265625 C14.53946911 14.19169382 15.43870175 16.75820301 16.75 19.75 C18.84273865 24.62693773 20.89093687 29.51557704 22.875 34.4375 C23.14143311 35.08904053 23.40786621 35.74058105 23.68237305 36.41186523 C25.5625 41.08038408 25.5625 41.08038408 25.5625 43.3125 C26.2225 43.3125 26.8825 43.3125 27.5625 43.3125 C27.94313221 45.6385857 28.27519945 47.97305264 28.5625 50.3125 C26.8162612 52.0587388 24.56371676 51.44471151 22.24023438 51.44921875 C21.54220703 51.44535156 20.84417969 51.44148438 20.125 51.4375 C19.08375977 51.44330078 19.08375977 51.44330078 18.02148438 51.44921875 C12.81577988 51.43913994 12.81577988 51.43913994 10.5625 50.3125 C9.9025 47.6725 9.2425 45.0325 8.5625 42.3125 C2.6225 42.3125 -3.3175 42.3125 -9.4375 42.3125 C-10.0975 44.9525 -10.7575 47.5925 -11.4375 50.3125 C-13.37840826 52.25340826 -16.91043902 51.71169435 -19.5 51.875 C-20.79035156 51.95878906 -22.08070313 52.04257813 -23.41015625 52.12890625 C-24.40917969 52.18949219 -25.40820312 52.25007813 -26.4375 52.3125 C-27.0975 50.6625 -27.7575 49.0125 -28.4375 47.3125 C-27.7775 47.3125 -27.1175 47.3125 -26.4375 47.3125 C-26.30988281 46.60609375 -26.18226563 45.8996875 -26.05078125 45.171875 C-24.43235126 37.62607403 -21.59572622 30.43801364 -18.37109375 23.44921875 C-17.12554407 20.59852554 -16.17898259 17.68438058 -15.22265625 14.7265625 C-14.30644075 11.90954171 -13.35391963 9.10838116 -12.375 6.3125 C-12.05402344 5.384375 -11.73304688 4.45625 -11.40234375 3.5 C-9.3583336 -1.13419305 -4.41375195 0.05467075 0 0 Z M-1.4375 18.3125 C-2.12932211 20.85777611 -2.12932211 20.85777611 -2.5625 23.8125 C-2.73007813 24.8128125 -2.89765625 25.813125 -3.0703125 26.84375 C-3.46201931 29.06136866 -3.46201931 29.06136866 -3.4375 30.3125 C-0.4675 30.3125 2.5025 30.3125 5.5625 30.3125 C4.2425 26.0225 2.9225 21.7325 1.5625 17.3125 C0.3388932 17.2379644 0.3388932 17.2379644 -1.4375 18.3125 Z " fill="#0B0B0B" transform="translate(241.4375,120.6875)"/>
<path d="M0 0 C1.93166016 0.01740234 1.93166016 0.01740234 3.90234375 0.03515625 C5.19269531 0.04417969 6.48304688 0.05320312 7.8125 0.0625 C8.81152344 0.07410156 9.81054688 0.08570312 10.83984375 0.09765625 C10.85442627 1.04084717 10.86900879 1.98403809 10.8840332 2.95581055 C10.94523981 6.46924286 11.01941883 9.98191071 11.10229492 13.49487305 C11.13546291 15.01267246 11.16352007 16.53059281 11.1862793 18.04858398 C11.21997653 20.23603644 11.27229579 22.42238889 11.328125 24.609375 C11.35430908 25.92381592 11.38049316 27.23825684 11.4074707 28.5925293 C11.85886122 32.25182551 12.51862423 34.2485912 14.83984375 37.09765625 C15.82984375 37.09765625 16.81984375 37.09765625 17.83984375 37.09765625 C17.83984375 37.75765625 17.83984375 38.41765625 17.83984375 39.09765625 C24.01529274 38.58089312 24.01529274 38.58089312 28.83984375 35.09765625 C29.25422196 32.40372072 29.42116107 30.09938876 29.4140625 27.40234375 C29.42822708 26.65429474 29.44239166 25.90624573 29.45698547 25.13552856 C29.49890926 22.74775794 29.51413265 20.36074329 29.52734375 17.97265625 C29.55636239 15.57777912 29.59085109 13.18309553 29.62983704 10.7883606 C29.65239274 9.29827615 29.66817044 7.80807142 29.67668152 6.31784058 C29.73026296 1.20723704 29.73026296 1.20723704 30.83984375 0.09765625 C33.00465172 -0.00127315 35.1727816 -0.03205475 37.33984375 -0.02734375 C38.52578125 -0.02992187 39.71171875 -0.0325 40.93359375 -0.03515625 C43.83984375 0.09765625 43.83984375 0.09765625 44.83984375 1.09765625 C44.94094517 3.77817906 44.97953884 6.43235965 44.97265625 9.11328125 C44.97361298 9.9212616 44.9745697 10.72924194 44.97555542 11.56170654 C44.97623751 13.27665281 44.97438121 14.99160163 44.97021484 16.70654297 C44.9648946 19.32265096 44.97014443 21.93858508 44.9765625 24.5546875 C44.97590118 26.22005246 44.9746189 27.88541731 44.97265625 29.55078125 C44.97468048 30.3311676 44.97670471 31.11155396 44.97879028 31.91558838 C44.96232192 35.76687034 44.7761927 39.35412015 43.83984375 43.09765625 C43.17984375 43.09765625 42.51984375 43.09765625 41.83984375 43.09765625 C41.74703125 43.99484375 41.74703125 43.99484375 41.65234375 44.91015625 C40.83984375 47.09765625 40.83984375 47.09765625 38.90234375 48.72265625 C28.98061946 53.17730797 17.13458846 53.50284104 6.83984375 50.09765625 C1.58184881 47.67088935 -0.66724933 44.42582593 -3.1171875 39.36962891 C-5.31537764 32.47352771 -4.70497263 25.19719825 -4.53515625 18.03515625 C-4.51861921 16.40301572 -4.50427893 14.77085139 -4.4921875 13.13867188 C-4.34374401 0.13423189 -4.34374401 0.13423189 0 0 Z " fill="#080808" transform="translate(272.16015625,120.90234375)"/>
<path d="M0 0 C3.2914911 -0.08857863 6.58266805 -0.1409104 9.875 -0.1875 C10.7928125 -0.21263672 11.710625 -0.23777344 12.65625 -0.26367188 C19.88466598 -0.34002838 26.48003028 0.74001514 33 4 C33 4.66 33 5.32 33 6 C33.99 6.33 34.98 6.66 36 7 C36 7.66 36 8.32 36 9 C36.66 9.33 37.32 9.66 38 10 C39.25127271 15.07727967 39.21747632 20.23777649 39.25 25.4375 C39.270625 26.25798828 39.29125 27.07847656 39.3125 27.92382812 C39.3598873 35.34586342 37.28605392 40.85044437 33 47 C32.34 47 31.68 47 31 47 C30.67 47.66 30.34 48.32 30 49 C23.87013145 52.00871694 17.77239068 52.4184051 11.0625 52.25 C9.78922852 52.24226563 9.78922852 52.24226563 8.49023438 52.234375 C2.31145408 52.15572704 2.31145408 52.15572704 0 51 C0.00523682 49.70263916 0.01047363 48.40527832 0.01586914 47.06860352 C0.03391469 42.27352585 0.04543037 37.4784512 0.05493164 32.68334961 C0.05997288 30.60456844 0.06680574 28.52579084 0.07543945 26.44702148 C0.08751422 23.46597414 0.09323024 20.48497351 0.09765625 17.50390625 C0.10281754 16.56849503 0.10797882 15.6330838 0.11329651 14.66932678 C0.11337204 13.80850998 0.11344757 12.94769318 0.11352539 12.06079102 C0.115746 11.29912125 0.11796661 10.53745148 0.12025452 9.75270081 C0.19090955 7.97189395 0.19090955 7.97189395 -1 7 C-0.71269945 4.66055264 -0.38063221 2.3260857 0 0 Z M12 9 C12 19.89 12 30.78 12 42 C19.5096983 42.47043316 19.5096983 42.47043316 25.125 39.125 C28.665179 35.11279713 28.21569684 30.70186831 28.25 25.625 C28.270625 24.86960938 28.29125 24.11421875 28.3125 23.3359375 C28.34486894 18.70717843 27.95509581 15.78109849 25 12 C20.40832533 8.19546956 18.68662465 9 12 9 Z " fill="#121212" transform="translate(452,194)"/>
<path d="M0 0 C4.62 0 9.24 0 14 0 C16.00392117 4.42244672 17.97026837 8.80963786 19.625 13.375 C20.85469045 17.02421826 20.85469045 17.02421826 23 20 C22.979375 20.86625 22.95875 21.7325 22.9375 22.625 C23.04453888 28.40509952 25.33740593 33.56117567 27.625 38.8125 C28.68632658 41.27284798 29.44418948 43.40621759 30 46 C30.33 46.99 30.66 47.98 31 49 C30.34 49.99 29.68 50.98 29 52 C26.6171875 52.29296875 26.6171875 52.29296875 23.875 52.1875 C22.96492188 52.16042969 22.05484375 52.13335937 21.1171875 52.10546875 C20.41851562 52.07066406 19.71984375 52.03585938 19 52 C19 50.68 19 49.36 19 48 C18.34 48 17.68 48 17 48 C16.01 44.535 16.01 44.535 15 41 C13.68 40.67 12.36 40.34 11 40 C11 39.34 11 38.68 11 38 C8.03 38 5.06 38 2 38 C2 38.66 2 39.32 2 40 C1.01 40.495 1.01 40.495 0 41 C-0.91280138 43.57437581 -0.91280138 43.57437581 -1.625 46.5625 C-1.88539063 47.57441406 -2.14578125 48.58632812 -2.4140625 49.62890625 C-2.60742188 50.41136719 -2.80078125 51.19382813 -3 52 C-6.63 51.67 -10.26 51.34 -14 51 C-15.12011686 47.63964942 -14.91362649 47.0578607 -13.75 43.875 C-13.47027344 43.08351562 -13.19054687 42.29203125 -12.90234375 41.4765625 C-12.60457031 40.65929687 -12.30679688 39.84203125 -12 39 C-9.40575689 32.19310035 -9.40575689 32.19310035 -9 25 C-8.34 25 -7.68 25 -7 25 C-7 24.01 -7 23.02 -7 22 C-6.34 22 -5.68 22 -5 22 C-5.061875 21.01 -5.12375 20.02 -5.1875 19 C-5.19502947 15.26538451 -4.21182592 12.42395673 -2.80078125 9 C-1.6232122 6.05894949 -0.8276405 3.05590339 0 0 Z M6 17 C4.515 22.445 4.515 22.445 3 28 C4.18424326 29.41577477 4.18424326 29.41577477 7.5625 29.0625 C9.2640625 29.0315625 9.2640625 29.0315625 11 29 C12.3609623 26.2780754 11.70366248 24.8168043 11.0625 21.875 C10.77052734 20.50988281 10.77052734 20.50988281 10.47265625 19.1171875 C10.31667969 18.41851562 10.16070312 17.71984375 10 17 C8.68 17 7.36 17 6 17 Z " fill="#121212" transform="translate(228,194)"/>
<path d="M0 0 C15.18 0 30.36 0 46 0 C46 3.3 46 6.6 46 10 C46.66 10.33 47.32 10.66 48 11 C47.34 11 46.68 11 46 11 C46 11.66 46 12.32 46 13 C41.05 13 36.1 13 31 13 C30.67 25.54 30.34 38.08 30 51 C25.38 51 20.76 51 16 51 C14.74717275 47.24151826 14.87618165 43.74509081 14.90234375 39.83203125 C14.9037587 39.03721848 14.90517365 38.2424057 14.90663147 37.42350769 C14.91222622 34.88646675 14.92477772 32.34951425 14.9375 29.8125 C14.94251568 28.09179815 14.94707847 26.37109492 14.95117188 24.65039062 C14.96219393 20.4335597 14.97945494 16.21679484 15 12 C10.05 12.33 5.1 12.66 0 13 C0 8.71 0 4.42 0 0 Z " fill="#060606" transform="translate(321,121)"/>
<path d="M0 0 C4.85826871 4.12952841 6.27898381 8.52651934 6.78369141 14.64477539 C7.40771335 28.02892737 7.40771335 28.02892737 3.84375 33.0234375 C-0.01327981 36.81924462 -3.98445519 38.59305051 -9.28125 39.4609375 C-10.3640625 39.66396484 -10.3640625 39.66396484 -11.46875 39.87109375 C-17.74248053 40.48726371 -21.921366 37.77786355 -27.09375 34.48046875 C-31.57838596 30.34018877 -30.58114369 23.4214713 -30.84375 17.6484375 C-30.88693359 16.76478516 -30.93011719 15.88113281 -30.97460938 14.97070312 C-31.08016536 12.80094127 -31.18116071 10.6309584 -31.28125 8.4609375 C-30.62125 8.4609375 -29.96125 8.4609375 -29.28125 8.4609375 C-29.19875 7.7184375 -29.11625 6.9759375 -29.03125 6.2109375 C-28.10591205 2.8180317 -27.03749889 1.62124068 -24.28125 -0.5390625 C-16.82739925 -4.26598787 -7.30851787 -3.75042364 0 0 Z M-17.15625 8.0859375 C-20.3783228 13.20334725 -20.33878255 18.56792853 -19.28125 24.4609375 C-17.50814717 27.08628528 -16.16838085 28.95823002 -13.40625 30.5234375 C-9.75459033 30.41603575 -7.95426771 28.83695325 -5.28125 26.4609375 C-4.26236445 23.16773575 -4.26236445 23.16773575 -4.28125 19.4609375 C-4.22066406 18.77128906 -4.16007812 18.08164063 -4.09765625 17.37109375 C-3.8881377 13.96165546 -3.99221499 11.89449001 -5.90625 9.0234375 C-10.07899445 6.27821088 -12.70417166 5.5695454 -17.15625 8.0859375 Z " fill="#101010" transform="translate(354.28125,207.5390625)"/>
<path d="M0 0 C3.3 0 6.6 0 10 0 C12.79177569 2.79177569 12.31213484 4.63183572 12.4140625 8.5390625 C12.45273437 9.84101563 12.49140625 11.14296875 12.53125 12.484375 C12.56270763 13.86457862 12.59395491 15.24478704 12.625 16.625 C12.66317934 18.01304541 12.70223105 19.40106711 12.7421875 20.7890625 C12.83672943 24.19257185 12.92227897 27.59607165 13 31 C16.34023421 31.09278428 18.68756695 30.82810826 22 30 C22 20.43 22 10.86 22 1 C25.3 0.67 28.6 0.34 32 0 C34.51693738 3.77540608 34.2713062 6.76329111 34.23046875 11.1328125 C34.23001053 11.9252536 34.22955231 12.7176947 34.2290802 13.53414917 C34.22606175 15.20686341 34.21818761 16.87957493 34.20581055 18.55224609 C34.18752014 21.12217072 34.18530113 23.69173575 34.18554688 26.26171875 C34.18063288 27.8854198 34.17480507 29.5091184 34.16796875 31.1328125 C34.16685593 31.90569611 34.1657431 32.67857971 34.16459656 33.47488403 C34.11605994 38.88394006 34.11605994 38.88394006 33 40 C30.73287193 40.21116846 28.46066406 40.36890094 26.1875 40.5 C22.31426452 40.72476807 18.74204153 40.99156565 15 42 C13.00036972 42.03845443 10.99948367 42.04544281 9 42 C9 41.34 9 40.68 9 40 C7.824375 39.814375 7.824375 39.814375 6.625 39.625 C4 39 4 39 2 37 C2 36.01 2 35.02 2 34 C1.34 34 0.68 34 0 34 C0 22.78 0 11.56 0 0 Z " fill="#161616" transform="translate(260,205)"/>
<path d="M0 0 C0 2.97 0 5.94 0 9 C2.31 9 4.62 9 7 9 C8.4783226 11.95664519 8.06032783 14.74229737 8 18 C5.36 18 2.72 18 0 18 C0 24.93 0 31.86 0 39 C2.31 39 4.62 39 7 39 C7.12375 39.969375 7.2475 40.93875 7.375 41.9375 C7.58125 42.948125 7.7875 43.95875 8 45 C8.66 45.33 9.32 45.66 10 46 C8.85546875 47.984375 8.85546875 47.984375 7 50 C4.30078125 50.390625 4.30078125 50.390625 1.3125 50.25 C0.31863281 50.21390625 -0.67523438 50.1778125 -1.69921875 50.140625 C-2.45847656 50.09421875 -3.21773438 50.0478125 -4 50 C-4 49.34 -4 48.68 -4 48 C-4.78375 47.896875 -5.5675 47.79375 -6.375 47.6875 C-9 47 -9 47 -11 44 C-11.88873216 40.59687453 -12.11917473 37.42548083 -12.09765625 33.91796875 C-12.09443359 32.98662109 -12.09121094 32.05527344 -12.08789062 31.09570312 C-12.07951172 30.13599609 -12.07113281 29.17628906 -12.0625 28.1875 C-12.05798828 27.20845703 -12.05347656 26.22941406 -12.04882812 25.22070312 C-12.03708684 22.81373889 -12.02066419 20.40690143 -12 18 C-13.65 18 -15.3 18 -17 18 C-17 14.7 -17 11.4 -17 8 C-15.35 7.67 -13.7 7.34 -12 7 C-12 5.68 -12 4.36 -12 3 C-11.34 3 -10.68 3 -10 3 C-10.33 2.01 -10.66 1.02 -11 0 C-6.79405774 -0.72795155 -4.19895255 -1.04973814 0 0 Z " fill="#141414" transform="translate(314,197)"/>
<path d="M0 0 C2.11289724 3.16934586 2.25596924 3.96889464 2.29193115 7.59925842 C2.30598495 8.54287735 2.32003876 9.48649628 2.33451843 10.45870972 C2.33982071 11.49206451 2.34512299 12.52541931 2.35058594 13.59008789 C2.36384415 14.67971329 2.37710236 15.76933868 2.39076233 16.89198303 C2.43192574 20.50218077 2.4586026 24.11231816 2.484375 27.72265625 C2.50815599 30.22465048 2.53251644 32.72663927 2.55743408 35.22862244 C2.6073908 40.47504966 2.65035601 45.72148969 2.68798828 50.96801758 C2.73165342 57.0376724 2.78972569 63.10706413 2.85523582 69.17651945 C2.91778703 75.01183892 2.96902508 80.84720805 3.01544952 86.68267632 C3.03640192 89.16790903 3.06038429 91.65311805 3.08739471 94.13829231 C3.1236607 97.60530463 3.14707634 101.07216718 3.16699219 104.53930664 C3.18039139 105.57468567 3.19379059 106.6100647 3.20759583 107.67681885 C3.21037033 108.61761795 3.21314484 109.55841705 3.21600342 110.52772522 C3.22593386 111.75800493 3.22593386 111.75800493 3.23606491 113.01313877 C3 115 3 115 1 117 C-1.47099972 117.25447559 -1.47099972 117.25447559 -4.64915466 117.26069641 C-5.85079254 117.26778122 -7.05243042 117.27486603 -8.29048157 117.28216553 C-9.62912025 117.2798715 -10.96775857 117.27736178 -12.30639648 117.2746582 C-13.71067578 117.27900353 -15.1149527 117.28418607 -16.51922607 117.29014587 C-20.33946176 117.30356684 -24.15959871 117.30411111 -27.97985339 117.30158257 C-31.16586994 117.30051491 -34.35186633 117.30539098 -37.53787857 117.310188 C-45.05269276 117.32129398 -52.56745696 117.32171453 -60.08227539 117.31567383 C-67.84171675 117.30963251 -75.60097684 117.32194649 -83.36038727 117.3432439 C-90.0160575 117.36084195 -96.67166995 117.36686409 -103.3273626 117.36360615 C-107.30526628 117.36179021 -111.2830407 117.36446026 -115.26092339 117.37832069 C-119.00133058 117.39086528 -122.74145463 117.38898723 -126.4818573 117.37590981 C-127.85611121 117.37353704 -129.23038484 117.37630368 -130.60461617 117.38453293 C-132.47767224 117.39494203 -134.35080846 117.38512977 -136.22386169 117.3742218 C-137.79761393 117.37447341 -137.79761393 117.37447341 -139.40315914 117.37473011 C-142 117 -142 117 -145 114 C-97.81 113.67 -50.62 113.34 -2 113 C-1.13835399 107.03114693 -1.13835399 107.03114693 -0.84178162 101.13404846 C-0.8319928 100.23252548 -0.82220398 99.3310025 -0.81211853 98.40216064 C-0.80636307 97.43614929 -0.8006076 96.47013794 -0.79467773 95.47485352 C-0.78477814 94.43995285 -0.77487854 93.40505219 -0.76467896 92.33879089 C-0.73322062 88.93551888 -0.70836871 85.53223293 -0.68359375 82.12890625 C-0.66301069 79.76236112 -0.64201386 77.39581956 -0.62062073 75.02928162 C-0.56553975 68.81347549 -0.51606903 62.59763696 -0.46777344 56.3817749 C-0.41745616 50.03378428 -0.36182356 43.68584048 -0.30664062 37.33789062 C-0.19923005 24.89196712 -0.09774735 12.44600289 0 0 Z " fill="#590F25" transform="translate(177,156)"/>
<path d="M0 0 C16.115719 -0.11673281 32.23130115 -0.20493853 48.34734058 -0.25906086 C55.8300927 -0.28485731 63.31258235 -0.3200348 70.79516602 -0.37719727 C77.31599511 -0.42698881 83.83663416 -0.45928055 90.35764807 -0.47044247 C93.81150979 -0.47696866 97.26482775 -0.49233532 100.7185154 -0.52865028 C104.57131874 -0.56883435 108.42358714 -0.56995216 112.27661133 -0.56762695 C113.99966995 -0.59459152 113.99966995 -0.59459152 115.75753784 -0.62210083 C116.80501694 -0.61522751 117.85249603 -0.60835419 118.93171692 -0.60127258 C119.84337018 -0.60588155 120.75502344 -0.61049051 121.69430256 -0.61523914 C124 0 124 0 125.79548168 2.38161945 C127.09717391 5.21123653 127.34990056 6.98873641 127.29296875 10.08203125 C127.28330078 11.01337891 127.27363281 11.94472656 127.26367188 12.90429688 C127.23853516 13.86400391 127.21339844 14.82371094 127.1875 15.8125 C127.16719727 17.28106445 127.16719727 17.28106445 127.14648438 18.77929688 C127.11125796 21.18643541 127.05745463 23.59328943 127 26 C130.96 26 134.92 26 139 26 C138.67 26.66 138.34 27.32 138 28 C134.04 27.67 130.08 27.34 126 27 C126 58.35 126 89.7 126 122 C125.67 122 125.34 122 125 122 C124.67 87.68 124.34 53.36 124 18 C123.67 18 123.34 18 123 18 C123 13.05 123 8.1 123 3 C82.74 3 42.48 3 1 3 C0.67 2.01 0.34 1.02 0 0 Z " fill="#BB1D4E" transform="translate(40,122)"/>
<path d="M0 0 C0.99 0.33 1.98 0.66 3 1 C0.69946967 13.6419619 -3.15511981 25.7595869 -7 38 C-0.565 37.505 -0.565 37.505 6 37 C6.27714844 36.07316406 6.55429688 35.14632812 6.83984375 34.19140625 C7.20207031 32.99386719 7.56429687 31.79632813 7.9375 30.5625 C8.29714844 29.36753906 8.65679687 28.17257813 9.02734375 26.94140625 C10 24 10 24 11 23 C12.63256758 22.84285346 14.27135338 22.74914586 15.91015625 22.68359375 C16.89951172 22.64169922 17.88886719 22.59980469 18.90820312 22.55664062 C19.94912109 22.51732422 20.99003906 22.47800781 22.0625 22.4375 C23.10728516 22.39431641 24.15207031 22.35113281 25.22851562 22.30664062 C27.81886884 22.20018775 30.40932186 22.0981724 33 22 C33.50175225 23.4237998 33.9964892 24.85007301 34.48828125 26.27734375 C34.76454346 27.07132568 35.04080566 27.86530762 35.32543945 28.68334961 C36.1514494 31.52012426 36.22586616 34.06373989 36 37 C33.9656541 35.58480285 33.09589607 34.45017877 32.578125 32.01953125 C32.33726048 30.01823046 32.16467259 28.0090056 32 26 C30.2984375 26.2475 30.2984375 26.2475 28.5625 26.5 C24.67352414 26.99823178 20.8956552 27.04837254 16.98046875 26.9375 C14.78651147 26.91219252 14.78651147 26.91219252 12 28 C12.04640625 28.68707031 12.0928125 29.37414062 12.140625 30.08203125 C12.19476563 31.43361328 12.19476563 31.43361328 12.25 32.8125 C12.31960937 34.15248047 12.31960937 34.15248047 12.390625 35.51953125 C12 38 12 38 10.5 39.8125 C6.94983598 41.49882791 3.58916515 41.31976806 -0.25 41.1875 C-0.99507812 41.17396484 -1.74015625 41.16042969 -2.5078125 41.14648438 C-4.33885416 41.11127204 -6.16952169 41.05746851 -8 41 C-8 40.01 -8 39.02 -8 38 C-8.66 38 -9.32 38 -10 38 C-9.855625 37.38125 -9.71125 36.7625 -9.5625 36.125 C-8.66965879 31.16477106 -8 26.04745104 -8 21 C-8.33 21 -8.66 21 -9 21 C-8.75 17.625 -8.75 17.625 -8 14 C-7.3709375 13.7215625 -6.741875 13.443125 -6.09375 13.15625 C-2.96299169 11.42732377 -2.74772913 9.22451922 -1.75 5.875 C-1.41484375 4.77929688 -1.0796875 3.68359375 -0.734375 2.5546875 C-0.49203125 1.71164063 -0.2496875 0.86859375 0 0 Z " fill="#CD154E" transform="translate(81,178)"/>
<path d="M0 0 C1.32 0.33 2.64 0.66 4 1 C4.18175781 1.96679688 4.36351563 2.93359375 4.55078125 3.9296875 C5.85068615 10.70383979 7.2112114 17.30969485 9.44921875 23.8515625 C10 26 10 26 10 31 C4.72 31 -0.56 31 -6 31 C-7.20669484 27.37991549 -6.68978284 25.77571494 -5.8203125 22.08984375 C-5.55089844 20.93548828 -5.28148438 19.78113281 -5.00390625 18.59179688 C-4.71386719 17.38587891 -4.42382812 16.17996094 -4.125 14.9375 C-3.84269531 13.72771484 -3.56039062 12.51792969 -3.26953125 11.27148438 C-1.15621693 2.31243386 -1.15621693 2.31243386 0 0 Z " fill="#CE134F" transform="translate(101,160)"/>
<path d="M0 0 C0 0.99 0 1.98 0 3 C-47.19 3 -94.38 3 -143 3 C-143.33 2.34 -143.66 1.68 -144 1 C-125.52004111 0.86953077 -107.04008166 0.73914167 -88.56012154 0.60884857 C-79.98002216 0.54835264 -71.39992297 0.48783025 -62.81982422 0.42724609 C-55.34350206 0.37445578 -47.86717955 0.32171458 -40.39085662 0.26903296 C-36.43033121 0.24112353 -32.46980598 0.21318911 -28.50928116 0.18519592 C-24.78459464 0.15887043 -21.05990767 0.1326104 -17.33522034 0.10640144 C-15.96538653 0.09675084 -14.5955529 0.08707594 -13.22571945 0.07737541 C-11.36093948 0.06417347 -9.49615885 0.05106598 -7.63137817 0.03796387 C-6.58606493 0.03058952 -5.54075169 0.02321518 -4.46376228 0.01561737 C-2.97586231 0.00618583 -1.48792987 0 0 0 Z " fill="#6A4B54" transform="translate(178,270)"/>
<path d="M0 0 C0.8971875 0.309375 0.8971875 0.309375 1.8125 0.625 C-14.29429612 12.625 -14.29429612 12.625 -19.1875 12.625 C-19.02419724 13.34833621 -18.86089449 14.07167242 -18.69264317 14.81692791 C-18.21295749 17.48348273 -18.07838597 19.85095303 -18.10520935 22.55415344 C-18.11224884 23.52024033 -18.11928833 24.48632721 -18.12654114 25.48168945 C-18.13948715 26.52969727 -18.15243317 27.57770508 -18.16577148 28.6574707 C-18.17537903 29.77010788 -18.18498657 30.88274506 -18.19488525 32.02909851 C-18.22783961 35.70305785 -18.26818575 39.37689696 -18.30859375 43.05078125 C-18.33289833 45.59953895 -18.35674172 48.1483011 -18.38014221 50.69706726 C-18.43653145 56.71766005 -18.49756851 62.73818833 -18.56086355 68.75871104 C-18.63268287 75.61476396 -18.69855546 82.47087001 -18.76393402 89.32698691 C-18.89851608 103.42639354 -19.04054834 117.52571726 -19.1875 131.625 C-16.5475 131.295 -13.9075 130.965 -11.1875 130.625 C-13.99036291 133.73929212 -16.28080571 135.18671454 -20.1875 136.625 C-20.69286102 120.50115455 -21.10500713 104.37799614 -21.40764618 88.24919319 C-21.55033586 80.75933311 -21.72295833 73.27244703 -21.96728516 65.78515625 C-22.18028256 59.25557316 -22.33586586 52.72751072 -22.42388296 46.19500434 C-22.47243608 42.7377727 -22.54875024 39.28642416 -22.69398499 35.83179092 C-23.55120852 14.80414234 -23.55120852 14.80414234 -19.59817505 9.48738861 C-15.31319357 5.63283653 -10.54149715 3.60777611 -5.1875 1.625 C-2.1875 -0.375 -2.1875 -0.375 0 0 Z " fill="#D76086" transform="translate(35.1875,124.375)"/>
<path d="M0 0 C1.905247 5.10334017 3.42589023 9.46342706 3 15 C0.9656541 13.58480285 0.09589607 12.45017877 -0.421875 10.01953125 C-0.66273952 8.01823046 -0.83532741 6.0090056 -1 4 C-2.7015625 4.2475 -2.7015625 4.2475 -4.4375 4.5 C-8.32647586 4.99823178 -12.1043448 5.04837254 -16.01953125 4.9375 C-18.21348853 4.91219252 -18.21348853 4.91219252 -21 6 C-20.95359375 6.68707031 -20.9071875 7.37414062 -20.859375 8.08203125 C-20.80523437 9.43361328 -20.80523437 9.43361328 -20.75 10.8125 C-20.70359375 11.70582031 -20.6571875 12.59914062 -20.609375 13.51953125 C-21 16 -21 16 -22.671875 17.8046875 C-25.47835715 19.24559948 -27.35658605 19.36863239 -30.5 19.3125 C-31.4384375 19.30863281 -32.376875 19.30476563 -33.34375 19.30078125 C-36 19 -36 19 -40 17 C-35.38 16.67 -30.76 16.34 -26 16 C-25.71125 14.453125 -25.4225 12.90625 -25.125 11.3125 C-24.44287049 7.65823478 -23.46597506 4.41855528 -22 1 C-18.89590179 0.83204189 -15.79171114 0.66585677 -12.6875 0.5 C-11.80642578 0.45230469 -10.92535156 0.40460938 -10.01757812 0.35546875 C-9.17001953 0.31035156 -8.32246094 0.26523438 -7.44921875 0.21875 C-6.66893311 0.17685547 -5.88864746 0.13496094 -5.0847168 0.09179688 C-3.39117604 0.01722476 -1.69518179 0 0 0 Z " fill="#C8164D" transform="translate(114,200)"/>
<path d="M0 0 C0.33 0 0.66 0 1 0 C1 39.6 1 79.2 1 120 C0.01 119.67 -0.98 119.34 -2 119 C-1.505 118.01 -1.505 118.01 -1 117 C-0.8957888 115.44182966 -0.85348531 113.87932595 -0.84178162 112.31771851 C-0.82709839 110.83691048 -0.82709839 110.83691048 -0.81211853 109.32618713 C-0.80636307 108.23934128 -0.8006076 107.15249542 -0.79467773 106.03271484 C-0.78477814 104.89125504 -0.77487854 103.74979523 -0.76467896 102.57374573 C-0.73299335 98.78616436 -0.70827862 94.99857044 -0.68359375 91.2109375 C-0.66303032 88.59062364 -0.64203402 85.97031315 -0.62062073 83.3500061 C-0.57067646 77.14876233 -0.52574408 70.94749269 -0.48259836 64.7461983 C-0.43324079 57.68700521 -0.37831718 50.6278589 -0.32291877 43.56871104 C-0.20907212 29.04585164 -0.10223893 14.52294569 0 0 Z " fill="#F45283" transform="translate(39,124)"/>
<path d="M0 0 C8.25 0.33 16.5 0.66 25 1 C25 1.33 25 1.66 25 2 C18.07 2 11.14 2 4 2 C3.34 5.3 2.68 8.6 2 12 C1.15480589 15.22198238 0.29106267 18.42410659 -0.625 21.625 C-0.85445313 22.43839844 -1.08390625 23.25179687 -1.3203125 24.08984375 C-1.87683251 26.06085213 -2.43791876 28.03057033 -3 30 C-3.33 30 -3.66 30 -4 30 C-4.20358252 22.04897154 -4.2450673 14.6637174 -2 7 C-1.34 4.69 -0.68 2.38 0 0 Z " fill="#D6577A" transform="translate(88,149)"/>
<path d="M0 0 C1.32 0.33 2.64 0.66 4 1 C4.18175781 1.96679688 4.36351563 2.93359375 4.55078125 3.9296875 C5.85068615 10.70383979 7.2112114 17.30969485 9.44921875 23.8515625 C10.07687701 26.29987487 10.0927414 28.48273339 10 31 C8.35 30.67 6.7 30.34 5 30 C5.99 29.67 6.98 29.34 8 29 C7.72285156 28.31035156 7.44570312 27.62070313 7.16015625 26.91015625 C5.35590687 22.22938116 3.81411536 17.96449627 3.4375 12.9375 C3.293125 11.638125 3.14875 10.33875 3 9 C2.01 8.34 1.02 7.68 0 7 C-0.12375 8.11375 -0.2475 9.2275 -0.375 10.375 C-1 14 -1 14 -3 16 C-2.52013969 10.43109483 -1.70084819 5.32932432 0 0 Z " fill="#C1496C" transform="translate(101,160)"/>
<path d="M0 0 C1.921875 0.4609375 1.921875 0.4609375 4 2 C4.83256622 4.82915427 5.02154655 7.69318077 5.25 10.625 C5.36601563 11.82769531 5.36601563 11.82769531 5.484375 13.0546875 C5.6729702 15.03493711 5.8386703 17.01734285 6 19 C3 20 3 20 0 19 C-1.34413413 16.31173174 -1.13239863 14.18764598 -1.125 11.1875 C-1.12757812 10.14980469 -1.13015625 9.11210937 -1.1328125 8.04296875 C-1.01076175 5.24657058 -0.63363355 2.72060121 0 0 Z " fill="#E0124F" transform="translate(101,167)"/>
<path d="M0 0 C1.32 0.33 2.64 0.66 4 1 C4.13277344 1.75925781 4.26554688 2.51851562 4.40234375 3.30078125 C4.57894531 4.29464844 4.75554687 5.28851563 4.9375 6.3125 C5.11152344 7.29863281 5.28554687 8.28476563 5.46484375 9.30078125 C5.95746847 12.08189213 5.95746847 12.08189213 7 15 C7.13143471 18.33844165 7.04340976 21.65744868 7 25 C1.72 25 -3.56 25 -9 25 C-8.67 24.34 -8.34 23.68 -8 23 C-6.04174127 22.97305149 -4.08337774 22.95362782 -2.125 22.9375 C-1.03445312 22.92589844 0.05609375 22.91429687 1.1796875 22.90234375 C4 23 4 23 6 24 C5.65066406 22.9378125 5.30132812 21.875625 4.94140625 20.78125 C4.48139834 19.35428669 4.02178397 17.92719648 3.5625 16.5 C3.33240234 15.80390625 3.10230469 15.1078125 2.86523438 14.390625 C1.32950416 9.58312172 0.4922641 5.02448869 0 0 Z " fill="#C84A71" transform="translate(126,192)"/>
<path d="M0 0 C1.905247 5.10334017 3.42589023 9.46342706 3 15 C0.03472242 12.5546615 -0.55582214 10.55397653 -1.1875 6.8125 C-1.34605469 5.91144531 -1.50460938 5.01039063 -1.66796875 4.08203125 C-1.77753906 3.39496094 -1.88710937 2.70789063 -2 2 C-4.22972273 2.11465421 -6.45878753 2.24214766 -8.6875 2.375 C-10.54955078 2.47941406 -10.54955078 2.47941406 -12.44921875 2.5859375 C-15.7263187 2.96808557 -18.09645073 3.46251173 -21 5 C-22.21869929 7.50447516 -22.21869929 7.50447516 -23 10 C-23.99 10.495 -23.99 10.495 -25 11 C-24.69201674 9.51988629 -24.378482 8.04092675 -24.0625 6.5625 C-23.88847656 5.73878906 -23.71445313 4.91507813 -23.53515625 4.06640625 C-23 2 -23 2 -22 1 C-20.62200839 0.84368884 -19.2368291 0.74940042 -17.8515625 0.68359375 C-17.01109375 0.64169922 -16.170625 0.59980469 -15.3046875 0.55664062 C-13.97824219 0.49766602 -13.97824219 0.49766602 -12.625 0.4375 C-11.7484375 0.39431641 -10.871875 0.35113281 -9.96875 0.30664062 C-6.64113682 0.14636568 -3.33199011 0 0 0 Z " fill="#A42E57" transform="translate(114,200)"/>
<path d="M0 0 C0.66 0 1.32 0 2 0 C2.66 0.99 3.32 1.98 4 3 C4.33 3.33 4.66 3.66 5 4 C5.35084092 5.51244865 5.65545462 7.0357254 5.9375 8.5625 C6.55801187 11.83301746 7.24922754 15.0388343 8.125 18.25 C8.92301534 21.67006574 9.17450581 24.50988374 9 28 C7 27 7 27 6.34570312 25.31347656 C6.15943359 24.59643555 5.97316406 23.87939453 5.78125 23.140625 C5.46607422 21.96113281 5.46607422 21.96113281 5.14453125 20.7578125 C4.93183594 19.93023437 4.71914062 19.10265625 4.5 18.25 C2.93775715 12.12478544 2.93775715 12.12478544 0.84375 6.171875 C0 4 0 4 0 0 Z " fill="#BB4068" transform="translate(117,163)"/>
<path d="M0 0 C0.495 1.98 0.495 1.98 1 4 C0.34 4 -0.32 4 -1 4 C-1 8.29 -1 12.58 -1 17 C-1.33 17 -1.66 17 -2 17 C-2 12.05 -2 7.1 -2 2 C-16.19 1.67 -30.38 1.34 -45 1 C-45 0.67 -45 0.34 -45 0 C-39.23438773 -0.16776425 -33.46863657 -0.32830841 -27.70263672 -0.48217773 C-25.74131873 -0.53553259 -23.78005328 -0.59085676 -21.81884766 -0.64819336 C-18.99913866 -0.73028615 -16.17931632 -0.80528481 -13.359375 -0.87890625 C-12.48319519 -0.90594131 -11.60701538 -0.93297638 -10.70428467 -0.96083069 C-9.88373596 -0.98092697 -9.06318726 -1.00102325 -8.21777344 -1.02172852 C-7.49829529 -1.04171402 -6.77881714 -1.06169952 -6.03753662 -1.08229065 C-3.9014967 -0.99602172 -2.05010367 -0.58873192 0 0 Z " fill="#D51953" transform="translate(165,123)"/>
<path d="M0 0 C0.8971875 0.309375 0.8971875 0.309375 1.8125 0.625 C-14.29429612 12.625 -14.29429612 12.625 -19.1875 12.625 C-19.5175 13.945 -19.8475 15.265 -20.1875 16.625 C-20.5175 14.975 -20.8475 13.325 -21.1875 11.625 C-20.71852295 11.33254395 -20.2495459 11.04008789 -19.76635742 10.73876953 C-17.63560835 9.4096545 -15.50529997 8.07983472 -13.375 6.75 C-12.63701172 6.28980469 -11.89902344 5.82960937 -11.13867188 5.35546875 C-10.42646484 4.91074219 -9.71425781 4.46601563 -8.98046875 4.0078125 C-7.99856567 3.39510498 -7.99856567 3.39510498 -6.99682617 2.77001953 C-2.06133518 -0.35337175 -2.06133518 -0.35337175 0 0 Z " fill="#CD7B95" transform="translate(35.1875,124.375)"/>
<path d="M0 0 C0.66 0 1.32 0 2 0 C1.44999802 4.58334984 0.51655324 8.64761551 -1 13 C1.12577907 12.9131724 3.25069581 12.8050049 5.375 12.6875 C6.55835937 12.62949219 7.74171875 12.57148438 8.9609375 12.51171875 C9.96382812 12.34285156 10.96671875 12.17398438 12 12 C12.66 11.01 13.32 10.02 14 9 C13.67 10.65 13.34 12.3 13 14 C9.7 14.33 6.4 14.66 3 15 C3 15.33 3 15.66 3 16 C1.35 16 -0.3 16 -2 16 C-2 15.01 -2 14.02 -2 13 C-2.66 13 -3.32 13 -4 13 C-3.41196203 9.97580475 -2.77321882 6.98241547 -2 4 C-1.34 4 -0.68 4 0 4 C0 2.68 0 1.36 0 0 Z " fill="#BF3D69" transform="translate(75,203)"/>
<path d="M0 0 C6.93 0 13.86 0 21 0 C25.5 7.875 25.5 7.875 25 14 C23 11 23 11 21 2 C14.07 2 7.14 2 0 2 C0 1.34 0 0.68 0 0 Z " fill="#B81F4E" transform="translate(92,148)"/>
<path d="M0 0 C0.33 0 0.66 0 1 0 C1 15.51 1 31.02 1 47 C0.01 46.67 -0.98 46.34 -2 46 C-2 45.01 -2 44.02 -2 43 C-1.34 43 -0.68 43 0 43 C0 28.81 0 14.62 0 0 Z " fill="#3E3E3E" transform="translate(480,125)"/>
<path d="M0 0 C0.99 0.33 1.98 0.66 3 1 C3.35820896 6.37313433 3.35820896 6.37313433 2 8.75 C-1.25818173 10.78636358 -4.57429817 9.7776037 -8.1875 9.1875 C-8.93708984 9.07857422 -9.68667969 8.96964844 -10.45898438 8.85742188 C-12.30823349 8.58651277 -14.15447261 8.29519943 -16 8 C-16 7.67 -16 7.34 -16 7 C-10.72 7 -5.44 7 0 7 C0 4.69 0 2.38 0 0 Z " fill="#CA144C" transform="translate(133,210)"/>
<path d="M0 0 C0 3 0 3 -1 5 C-1.33 4.67 -1.66 4.34 -2 4 C-3.85287502 3.92773498 -5.70833878 3.9161878 -7.5625 3.9375 C-8.57441406 3.94652344 -9.58632813 3.95554688 -10.62890625 3.96484375 C-11.41136719 3.97644531 -12.19382812 3.98804688 -13 4 C-13.33 5.98 -13.66 7.96 -14 10 C-14.33 10 -14.66 10 -15 10 C-15 7.36 -15 4.72 -15 2 C-13.06524329 1.46906676 -11.12706845 0.95057683 -9.1875 0.4375 C-8.10855469 0.14746094 -7.02960937 -0.14257812 -5.91796875 -0.44140625 C-3 -1 -3 -1 0 0 Z " fill="#717171" transform="translate(540,152)"/>
<path d="M0 0 C0.66 0.33 1.32 0.66 2 1 C0.34927143 9.12486263 -1.43681748 17.11048784 -4 25 C-4.33 25 -4.66 25 -5 25 C-4.65439869 18.62425167 -3.9090227 12.95341777 -1.69921875 6.94921875 C-0.88060032 4.66714837 -0.38571779 2.39145028 0 0 Z " fill="#B7436D" transform="translate(82,178)"/>
<path d="M0 0 C0.99 0.33 1.98 0.66 3 1 C3 3.31 3 5.62 3 8 C2.01 7.67 1.02 7.34 0 7 C-0.12375 8.11375 -0.2475 9.2275 -0.375 10.375 C-1 14 -1 14 -3 16 C-2.52013969 10.43109483 -1.70084819 5.32932432 0 0 Z " fill="#B33F6D" transform="translate(101,160)"/>
<path d="M0 0 C9.9 0 19.8 0 30 0 C30 0.33 30 0.66 30 1 C25.5625336 1.16756928 21.12502168 1.33390157 16.6875 1.5 C14.79354492 1.57154297 14.79354492 1.57154297 12.86132812 1.64453125 C11.65283203 1.68964844 10.44433594 1.73476562 9.19921875 1.78125 C7.52605591 1.8440918 7.52605591 1.8440918 5.8190918 1.90820312 C3.88018086 1.97133905 1.9399386 2 0 2 C0 1.34 0 0.68 0 0 Z " fill="#464646" transform="translate(427,121)"/>
<path d="M0 0 C1.32 0.66 2.64 1.32 4 2 C4.33 1.34 4.66 0.68 5 0 C5.66 0.33 6.32 0.66 7 1 C6 4 6 4 4.1875 5.1875 C2 6 2 6 -2 6 C-2.33 6.66 -2.66 7.32 -3 8 C-3.33 6.68 -3.66 5.36 -4 4 C-3.34 4 -2.68 4 -2 4 C-2 3.34 -2 2.68 -2 2 C-1.34 2 -0.68 2 0 2 C0 1.34 0 0.68 0 0 Z " fill="#3A3A3A" transform="translate(399,237)"/>
<path d="M0 0 C1.32 0.66 2.64 1.32 4 2 C4 4.97 4 7.94 4 11 C3.01 10.01 2.02 9.02 1 8 C0.67 8.33 0.34 8.66 0 9 C-1.10844919 5.67465243 -0.84454356 3.37817425 0 0 Z " fill="#D21651" transform="translate(101,167)"/>
<path d="M0 0 C0.33 1.32 0.66 2.64 1 4 C0.34 4 -0.32 4 -1 4 C-1 8.29 -1 12.58 -1 17 C-1.33 17 -1.66 17 -2 17 C-2 12.05 -2 7.1 -2 2 C-4.97 1.505 -4.97 1.505 -8 1 C-4.93251126 -0.86240388 -3.40254489 -1.2151946 0 0 Z " fill="#C9305E" transform="translate(165,123)"/>
<path d="M0 0 C0.33 0 0.66 0 1 0 C1 1.65 1 3.3 1 5 C3.64 4.67 6.28 4.34 9 4 C6.22719294 7.08089673 3.93673644 8.68775452 0 10 C0 6.7 0 3.4 0 0 Z " fill="#CA7592" transform="translate(15,251)"/>
<path d="M0 0 C0.66 0.33 1.32 0.66 2 1 C2 4.63 2 8.26 2 12 C0.35 12.66 -1.3 13.32 -3 14 C-2.01 9.38 -1.02 4.76 0 0 Z " fill="#BF4468" transform="translate(97,176)"/>
<path d="M0 0 C4.62 0.66 9.24 1.32 14 2 C14 2.33 14 2.66 14 3 C9.05 3 4.1 3 -1 3 C-0.67 2.01 -0.34 1.02 0 0 Z " fill="#96294E" transform="translate(96,188)"/>
<path d="M0 0 C0.66 0 1.32 0 2 0 C2.33 4.29 2.66 8.58 3 13 C2.34 13 1.68 13 1 13 C0.63901937 11.02206479 0.28638652 9.04260427 -0.0625 7.0625 C-0.25972656 5.96035156 -0.45695312 4.85820312 -0.66015625 3.72265625 C-0.77230469 2.82417969 -0.88445312 1.92570313 -1 1 C-0.67 0.67 -0.34 0.34 0 0 Z " fill="#D21650" transform="translate(125,179)"/>
<path d="M0 0 C0.33 0 0.66 0 1 0 C1 6.6 1 13.2 1 20 C0.01 19.67 -0.98 19.34 -2 19 C-2 18.01 -2 17.02 -2 16 C-1.34 16 -0.68 16 0 16 C0 10.72 0 5.44 0 0 Z " fill="#616161" transform="translate(480,152)"/>
<path d="M0 0 C1.98 0.99 1.98 0.99 4 2 C4 4.97 4 7.94 4 11 C3.34 10.67 2.68 10.34 2 10 C1.3671875 7.71484375 1.3671875 7.71484375 0.875 4.9375 C0.70742187 4.01839844 0.53984375 3.09929687 0.3671875 2.15234375 C0.24601563 1.44207031 0.12484375 0.73179687 0 0 Z " fill="#B63A5B" transform="translate(129,203)"/>
<path d="M0 0 C0.66 0 1.32 0 2 0 C4.13586678 3.20380017 4.23132175 4.01939967 4.125 7.6875 C4.10695313 8.49574219 4.08890625 9.30398437 4.0703125 10.13671875 C4.03550781 11.05904297 4.03550781 11.05904297 4 12 C1.21366885 7.82050327 0 5.06624674 0 0 Z " fill="#C34C71" transform="translate(117,163)"/>
<path d="M0 0 C1.32 0 2.64 0 4 0 C6.66590937 4.55426184 7.31563182 7.73946963 7 13 C4.71522446 9.57283669 4.32512338 6.95074029 3.66015625 2.9609375 C3.44230469 2.31382812 3.22445312 1.66671875 3 1 C2.01 0.67 1.02 0.34 0 0 Z " fill="#B13E5D" transform="translate(110,149)"/>
<path d="M0 0 C2.31 0 4.62 0 7 0 C4 2 4 2 2 3 C1.67 3.825 1.34 4.65 1 5.5 C0 8 0 8 -2 9 C-1.34 6.03 -0.68 3.06 0 0 Z " fill="#B6375F" transform="translate(91,202)"/>
<path d="M0 0 C0.33 0 0.66 0 1 0 C3.28571429 8.42857143 3.28571429 8.42857143 3 13 C1.35 12.67 -0.3 12.34 -2 12 C-1.01 11.67 -0.02 11.34 1 11 C0.67 10.34 0.34 9.68 0 9 C-0.06950541 7.45976004 -0.08452357 5.91665012 -0.0625 4.375 C-0.05347656 3.55773437 -0.04445313 2.74046875 -0.03515625 1.8984375 C-0.02355469 1.27195313 -0.01195313 0.64546875 0 0 Z " fill="#C85F88" transform="translate(108,178)"/>
<path d="M0 0 C0.66 0 1.32 0 2 0 C0.515 6.435 0.515 6.435 -1 13 C-1.33 13 -1.66 13 -2 13 C-2.16682272 8.07872966 -2.24828052 4.49656104 0 0 Z " fill="#BD4C78" transform="translate(86,166)"/>
<path d="M0 0 C3.63 0 7.26 0 11 0 C11.33 0.99 11.66 1.98 12 3 C10.68 3 9.36 3 8 3 C8 2.34 8 1.68 8 1 C5.69 1 3.38 1 1 1 C1 1.66 1 2.32 1 3 C0.01 2.67 -0.98 2.34 -2 2 C-1.34 2 -0.68 2 0 2 C0 1.34 0 0.68 0 0 Z " fill="#9C9C9C" transform="translate(420,231)"/>
<path d="M0 0 C0.33 0 0.66 0 1 0 C1 1.98 1 3.96 1 6 C0.34 6 -0.32 6 -1 6 C-1.33 7.65 -1.66 9.3 -2 11 C-2.33 11 -2.66 11 -3 11 C-3.125 5.25 -3.125 5.25 -2 3 C-1.34 3 -0.68 3 0 3 C0 2.01 0 1.02 0 0 Z " fill="#BE1C4F" transform="translate(87,160)"/>
<path d="M0 0 C4.62 0 9.24 0 14 0 C14 0.33 14 0.66 14 1 C13.15695312 1.04898438 12.31390625 1.09796875 11.4453125 1.1484375 C10.34960938 1.22320312 9.25390625 1.29796875 8.125 1.375 C6.48917969 1.47941406 6.48917969 1.47941406 4.8203125 1.5859375 C1.86953526 1.73253491 1.86953526 1.73253491 0 4 C0 2.68 0 1.36 0 0 Z " fill="#4C4C4C" transform="translate(269,121)"/>
<path d="M0 0 C2.11635213 2.57642867 3.67339287 4.62505968 4 8 C3.01 9.485 3.01 9.485 2 11 C0.57741188 7.17679443 -0.24042276 4.08718695 0 0 Z " fill="#C75C7B" transform="translate(126,192)"/>
<path d="M0 0 C0.33 0 0.66 0 1 0 C1.33 4.29 1.66 8.58 2 13 C1.34 13 0.68 13 0 13 C-0.96661363 9.87819599 -0.98988909 7.47916205 -0.5625 4.25 C-0.46066406 3.45078125 -0.35882812 2.6515625 -0.25390625 1.828125 C-0.17011719 1.22484375 -0.08632813 0.6215625 0 0 Z " fill="#52061C" transform="translate(28,255)"/>
<path d="M0 0 C3 1 3 1 6 3 C5.67 4.32 5.34 5.64 5 7 C5 6.34 5 5.68 5 5 C3.68 4.67 2.36 4.34 1 4 C0.67 2.68 0.34 1.36 0 0 Z " fill="#4D4D4D" transform="translate(422,207)"/>
<path d="M0 0 C3 1 3 1 3 1 Z " fill="#FFFFFF" transform="translate(420,193)"/>
<path d="" fill="#FFFFFF" transform="translate(0,0)"/>
<path d="" fill="#FFFFFF" transform="translate(0,0)"/>
<path d="" fill="#555555" transform="translate(0,0)"/>
</svg>
