<?xml version="1.0" encoding="UTF-8"?>
<svg version="1.1" xmlns="http://www.w3.org/2000/svg" width="387" height="130">
<path d="M0 0 C0 20.46 0 40.92 0 62 C-7.59 66.29 -15.18 70.58 -23 75 C-28.82187091 78.36237963 -34.63793745 81.73305176 -40.44140625 85.12695312 C-42.02115234 86.04444336 -42.02115234 86.04444336 -43.6328125 86.98046875 C-44.54949707 87.51567139 -45.46618164 88.05087402 -46.41064453 88.60229492 C-48.89334723 89.94243003 -51.37514826 90.97545579 -54 92 C-54.56025389 84.16142138 -54.9843615 76.3276315 -55.24349213 68.47398186 C-55.36803611 64.82386781 -55.53596344 61.18755734 -55.81054688 57.54541016 C-57.52350589 34.20547477 -57.52350589 34.20547477 -51.81463623 27.3916626 C-46.13189898 22.80958236 -39.74062943 19.95481619 -33.00402832 17.24945068 C-28.96125201 15.56795867 -25.32357797 13.41911987 -21.6015625 11.1328125 C-20.41520037 10.44499297 -19.226466 9.76124542 -18.03515625 9.08203125 C-16.28740244 8.07902477 -14.53980598 7.0757298 -12.79541016 6.06689453 C-11.02479082 5.04308622 -9.2511038 4.02480387 -7.4765625 3.0078125 C-5.9618335 2.13600342 -5.9618335 2.13600342 -4.41650391 1.24658203 C-2 0 -2 0 0 0 Z " fill="#68BE4C" transform="translate(114,38)"/>
<path d="M0 0 C2.48168945 1.17651367 2.48168945 1.17651367 5.11328125 2.66796875 C6.5984021 3.5036438 6.5984021 3.5036438 8.11352539 4.35620117 C9.69701782 5.26269409 9.69701782 5.26269409 11.3125 6.1875 C12.40232178 6.80665283 13.49214355 7.42580566 14.61499023 8.0637207 C16.90879692 9.36978581 19.20068385 10.67872507 21.49023438 11.9921875 C23.82763473 13.33203215 26.16994346 14.66254539 28.51757812 15.984375 C31.87230387 17.87436134 35.21837003 19.7788423 38.5625 21.6875 C40.13221558 22.5686145 40.13221558 22.5686145 41.73364258 23.4675293 C42.68907959 24.01836182 43.6445166 24.56919434 44.62890625 25.13671875 C45.47525635 25.61842529 46.32160645 26.10013184 47.19360352 26.59643555 C47.78971436 27.05961182 48.3858252 27.52278809 49 28 C49 28.99 49 29.98 49 31 C48.36835937 31.35078613 47.73671875 31.70157227 47.0859375 32.06298828 C44.05585651 33.74776134 41.0276609 35.43588158 38 37.125 C36.88399414 37.74721436 35.76798828 38.36942871 34.61816406 39.01049805 C28.7665298 42.28591787 22.94541941 45.60030707 17.171875 49.01171875 C16.09292969 49.64899902 15.01398438 50.2862793 13.90234375 50.94287109 C11.83345549 52.16991155 9.76820942 53.40311824 7.70703125 54.64306641 C6.76730469 55.2004248 5.82757813 55.7577832 4.859375 56.33203125 C4.03920898 56.82421143 3.21904297 57.3163916 2.37402344 57.82348633 C-0.2313277 59.11464091 -2.08879795 59.82765728 -5 60 C-7.75708008 58.86694336 -7.75708008 58.86694336 -10.76953125 57.08984375 C-11.89520508 56.43564453 -13.02087891 55.78144531 -14.18066406 55.10742188 C-15.39144312 54.3843943 -16.60205149 53.66108083 -17.8125 52.9375 C-19.05487674 52.2089422 -20.29805037 51.48174172 -21.54199219 50.75585938 C-24.09788113 49.26143655 -26.64877148 47.75898362 -29.19580078 46.24951172 C-32.84764718 44.08649411 -36.51309958 41.94759149 -40.18359375 39.81640625 C-45.7959206 36.5559116 -51.40082599 33.28302485 -57 30 C-54.46910834 27.15018361 -51.62549149 25.49584074 -48.3203125 23.62890625 C-47.17312744 22.97720459 -46.02594238 22.32550293 -44.84399414 21.65405273 C-43.60453807 20.95649762 -42.36486895 20.25932097 -41.125 19.5625 C-39.22335154 18.48955226 -37.32225695 17.41562971 -35.42134094 16.34138489 C-34.14065353 15.61764837 -32.85963601 14.89449569 -31.57829285 14.17192078 C-27.57417798 11.90887315 -23.60402012 9.59613573 -19.65234375 7.2421875 C-18.70149902 6.68072021 -17.7506543 6.11925293 -16.77099609 5.54077148 C-15.00293161 4.49418058 -13.24117329 3.43684104 -11.48681641 2.36743164 C-10.69839355 1.90457764 -9.9099707 1.44172363 -9.09765625 0.96484375 C-8.42226807 0.5587085 -7.74687988 0.15257324 -7.05102539 -0.26586914 C-4.28783153 -1.25490901 -2.78911261 -0.85904668 0 0 Z " fill="#4C5658" transform="translate(61,1)"/>
<path d="M0 0 C9.13769316 4.87343635 18.1601149 9.74140975 27.0625 15 C35.67283701 20.06558443 44.32501215 25.04286409 53 30 C53 50.46 53 70.92 53 92 C48.67347171 90.5578239 45.74271732 89.44628231 41.97265625 87.19921875 C40.5330957 86.3494043 40.5330957 86.3494043 39.06445312 85.48242188 C38.07380859 84.89009766 37.08316406 84.29777344 36.0625 83.6875 C24.14239514 76.60189063 12.08007925 69.82787088 0 63 C0 42.21 0 21.42 0 0 Z " fill="#4D5759" transform="translate(0,38)"/>
<path d="M0 0 C4.62900979 4.49451071 6.8292418 8.41147013 8.61328125 14.56640625 C8.61328125 17.86640625 8.61328125 21.16640625 8.61328125 24.56640625 C-5.57671875 24.56640625 -19.76671875 24.56640625 -34.38671875 24.56640625 C-30.44633708 34.08886474 -30.44633708 34.08886474 -22.44921875 39.37890625 C-16.25431356 39.94207945 -11.93899423 39.60444377 -6.38671875 36.56640625 C-5.78859375 35.67953125 -5.19046875 34.79265625 -4.57421875 33.87890625 C-2.38671875 31.56640625 -2.38671875 31.56640625 0.078125 31.24609375 C2.60777823 31.25318955 5.09343237 31.35000701 7.61328125 31.56640625 C4.63025496 38.48702725 1.39932848 43.24775449 -5.5234375 46.6015625 C-14.05107289 49.80128607 -21.39662759 49.24994271 -29.8046875 45.88671875 C-36.02063171 42.70821778 -40.17642504 37.68402362 -42.7265625 31.21484375 C-44.73848045 23.14336227 -44.36010624 14.40925561 -40.85546875 6.82421875 C-36.36249275 -0.08253691 -30.23806705 -4.24550845 -22.32421875 -6.18359375 C-13.88238209 -6.71958338 -6.53200883 -5.61238854 0 0 Z M-31.38671875 7.56640625 C-33.3239447 10.83965009 -34.38671875 12.75153935 -34.38671875 16.56640625 C-23.16671875 16.56640625 -11.94671875 16.56640625 -0.38671875 16.56640625 C-1.51676904 10.91615478 -3.10552395 7.45653908 -7.57421875 3.75390625 C-15.98097823 0.20438558 -24.7318244 0.9115119 -31.38671875 7.56640625 Z " fill="#4B5456" transform="translate(297.38671875,44.43359375)"/>
<path d="M0 0 C6.76742349 5.74484167 10.29216473 11.89828079 11.30859375 20.66015625 C11.69581104 29.00292886 9.33860156 35.35453286 4.875 42.3125 C-1.35862389 48.1395832 -7.064814 50.31524363 -15.625 50.5625 C-23.439787 50.27889886 -27.91677683 48.66278365 -33.75 43.625 C-39.70721558 36.67491516 -42.52615372 30.31248298 -42.25390625 21.07421875 C-41.24702723 12.84879172 -37.66321219 5.93807058 -31.1875 0.75 C-21.74843469 -5.89037375 -9.81677653 -5.95732605 0 0 Z M-28.75 9.8125 C-32.80162583 15.55230326 -33.92030142 21.09205845 -33 28 C-31.30890026 33.70403372 -29.14753027 37.74892825 -24 41 C-19.58075075 43.20962462 -13.81031783 42.41599582 -9 42 C-4.027792 39.7319753 -1.6979702 36.69646664 1 32 C2.94202557 26.1739233 2.57180841 20.05178313 0.9375 14.1875 C-1.98556155 9.37859229 -5.61063516 5.79645495 -11 4 C-18.44884984 3.26220916 -23.35838597 4.29834929 -28.75 9.8125 Z " fill="#475053" transform="translate(353,42)"/>
<path d="M0 0 C4.3182962 3.26137056 6.19682734 8.06476305 8.25 12.9375 C4.8513683 13.28774067 1.63525249 13.4677848 -1.75 12.9375 C-4 10.125 -4 10.125 -5.75 6.9375 C-10.22948134 3.88330818 -14.43260875 3.19553843 -19.75 3.9375 C-25.45542067 5.67813682 -28.42218588 7.99331902 -31.75 12.9375 C-34.52736826 19.62843264 -34.01189848 25.59346903 -31.5 32.25 C-28.38533065 37.03324222 -25.36762528 38.9956035 -19.875 40.3125 C-15.29924638 41.06719339 -12.05808044 40.88035981 -7.75 38.9375 C-4.85985613 36.43270864 -2.86938961 34.11658442 -0.75 30.9375 C1.1953125 30.64453125 1.1953125 30.64453125 3.375 30.75 C4.65375 30.811875 5.9325 30.87375 7.25 30.9375 C7.58 31.5975 7.91 32.2575 8.25 32.9375 C5.36391117 39.61158042 0.22303389 45.29658643 -6.51171875 48.078125 C-13.54019794 49.94334264 -22.47146966 50.44131933 -29.25 47.4375 C-34.73620292 44.05493916 -40.07122462 38.26924869 -42.3125 32.17578125 C-44.09943134 23.03371287 -43.75060236 13.91755533 -38.75 5.9375 C-38.193125 5.03 -37.63625 4.1225 -37.0625 3.1875 C-26.4963876 -7.0930418 -12.27984446 -7.49548948 0 0 Z " fill="#464E51" transform="translate(204.75,43.0625)"/>
<path d="M0 0 C0 2.97 0 5.94 0 9 C-0.66386719 9.15855469 -1.32773438 9.31710938 -2.01171875 9.48046875 C-7.61741647 10.96168231 -11.39540164 12.19386885 -15 17 C-17.45745778 21.95361272 -18.39138427 25.63850691 -18.51171875 31.24609375 C-18.52966995 31.90207047 -18.54762115 32.55804718 -18.56611633 33.23390198 C-18.61972153 35.30170512 -18.65395093 37.36928438 -18.6875 39.4375 C-18.72071743 40.85094231 -18.75521111 42.26435523 -18.79101562 43.67773438 C-18.87541619 47.11827446 -18.94246279 50.55889366 -19 54 C-21.97 54 -24.94 54 -28 54 C-28 36.51 -28 19.02 -28 1 C-25.03 1 -22.06 1 -19 1 C-18.67 3.64 -18.34 6.28 -18 9 C-16.9171875 7.8553125 -16.9171875 7.8553125 -15.8125 6.6875 C-10.80666061 1.90414236 -6.86603366 0 0 0 Z " fill="#495154" transform="translate(250,38)"/>
<path d="M0 0 C0.66 0.33 1.32 0.66 2 1 C1.3503125 1.59748047 1.3503125 1.59748047 0.6875 2.20703125 C0.130625 2.73683594 -0.42625 3.26664063 -1 3.8125 C-1.556875 4.33457031 -2.11375 4.85664062 -2.6875 5.39453125 C-4.316465 7.04148967 -4.316465 7.04148967 -4 10 C-3.01 10.33 -2.02 10.66 -1 11 C-0.34 10.01 0.32 9.02 1 8 C1.66 8.33 2.32 8.66 3 9 C1.68 11.31 0.36 13.62 -1 16 C-2.32 16 -3.64 16 -5 16 C-5.33 15.34 -5.66 14.68 -6 14 C-6.66 15.32 -7.32 16.64 -8 18 C-7.01 18.33 -6.02 18.66 -5 19 C-5.66 19.99 -6.32 20.98 -7 22 C-6.67 22.66 -6.34 23.32 -6 24 C-6.33 24.66 -6.66 25.32 -7 26 C-7.84801288 31.93609015 -5.39744091 35.41443669 -2 40 C1.01395248 43.71720806 4.48256699 45.56722379 9 47 C11.78535862 47.25470831 14.29459436 47.37833981 17.0625 47.3125 C17.74376953 47.31572266 18.42503906 47.31894531 19.12695312 47.32226562 C23.44241422 47.27666517 26.98914058 46.57055494 31 45 C31 44.34 31 43.68 31 43 C30.34 43 29.68 43 29 43 C28.67 42.01 28.34 41.02 28 40 C27.525625 40.474375 27.05125 40.94875 26.5625 41.4375 C21.25307949 44.67495153 14.92184168 44.36657885 9 43 C9 42.34 9 41.68 9 41 C9.71285156 41.03480469 10.42570312 41.06960937 11.16015625 41.10546875 C17.28898534 41.27869272 21.67647614 41.15065698 27 38 C27.598125 37.113125 28.19625 36.22625 28.8125 35.3125 C31 33 31 33 33.46484375 32.6796875 C35.99449698 32.6867833 38.48015112 32.78360076 41 33 C38.01697371 39.920621 34.78604723 44.68134824 27.86328125 48.03515625 C19.33564586 51.23487982 11.99009116 50.68353646 3.58203125 47.3203125 C-2.63391296 44.14181153 -6.78970629 39.11761737 -9.33984375 32.6484375 C-11.40046185 24.38157907 -10.84055384 15.87455262 -7.2890625 8.1328125 C-5.28841833 4.82265579 -2.92167062 2.52326099 0 0 Z " fill="#434A4C" transform="translate(264,43)"/>
<path d="M0 0 C1.9453125 -0.29296875 1.9453125 -0.29296875 4.125 -0.1875 C5.40375 -0.125625 6.6825 -0.06375 8 0 C8.495 0.99 8.495 0.99 9 2 C6.11391117 8.67408042 0.97303389 14.35908643 -5.76171875 17.140625 C-12.92062875 19.04045636 -21.84369223 19.49596614 -28.6875 16.3125 C-31.82273765 14.40676731 -33.9573847 12.06392295 -36 9 C-33.89301556 10.02476061 -31.8557614 11.0862296 -29.84375 12.2890625 C-22.04548742 16.73407217 -14.91261462 17.31003057 -6.25 15 C-5.5075 14.67 -4.765 14.34 -4 14 C-7.76745876 12.24322506 -10.5506351 11.81940017 -14.6875 12 C-17.57421875 12.125 -17.57421875 12.125 -20 12 C-20.66 11.34 -21.32 10.68 -22 10 C-20.824375 10.04125 -19.64875 10.0825 -18.4375 10.125 C-12.80846566 10.09516413 -8.54359897 9.33778577 -4.1875 5.5625 C-1.92132526 3.0101827 -1.92132526 3.0101827 0 0 Z " fill="#434A4C" transform="translate(204,74)"/>
<path d="M0 0 C2.28775336 1.86848382 4.0584816 3.75192607 6 6 C5.67 6.66 5.34 7.32 5 8 C4.236875 7.360625 3.47375 6.72125 2.6875 6.0625 C0.11753287 3.85767219 0.11753287 3.85767219 -3 3 C-1.60830421 6.37983262 -0.30004006 9.5153199 1.625 12.625 C4.26676397 17.18804686 4.34598528 21.81022076 4 27 C3.15946057 30.06405945 2.13073219 33.031828 1 36 C0.34 36 -0.32 36 -1 36 C-0.67 35.071875 -0.34 34.14375 0 33.1875 C1.71869737 27.09168847 2.09284265 20.13548481 -0.125 14.125 C-2.84834821 9.58608632 -5.86845197 6.71051601 -11 5 C-13.06145107 4.931009 -15.12501401 4.91532273 -17.1875 4.9375 C-18.27417969 4.94652344 -19.36085938 4.95554687 -20.48046875 4.96484375 C-21.31191406 4.97644531 -22.14335937 4.98804688 -23 5 C-23.66 3.68 -24.32 2.36 -25 1 C-24.30519531 1.16371094 -23.61039062 1.32742187 -22.89453125 1.49609375 C-19.7647184 2.04095996 -16.86201917 2.09738483 -13.6875 2.0625 C-12.61886719 2.05347656 -11.55023438 2.04445313 -10.44921875 2.03515625 C-9.23685547 2.01775391 -9.23685547 2.01775391 -8 2 C-8 1.01 -8 0.02 -8 -1 C-15.73845443 -2.70245998 -22.40903182 -0.88708057 -30 1 C-22.41266784 -7.26679474 -8.83224915 -5.00797632 0 0 Z " fill="#424A4C" transform="translate(353,42)"/>
<path d="M0 0 C0.77923828 0.61488281 0.77923828 0.61488281 1.57421875 1.2421875 C2.27160156 1.78101562 2.96898437 2.31984375 3.6875 2.875 C4.37199219 3.40867187 5.05648437 3.94234375 5.76171875 4.4921875 C11.50812543 8.36323982 16.19691945 8.09702463 22.94140625 7.77734375 C26.31840526 8.02317893 27.56678189 8.72146079 30 11 C23.79361981 14.38529829 18.00204731 14.96089086 11 14 C5.55398021 12.12257594 0.68857887 9.52689225 -3 5 C-2.01 3.35 -1.02 1.7 0 0 Z " fill="#4D5759" transform="translate(171,77)"/>
<path d="M0 0 C2.4375 1.625 2.4375 1.625 4 4 C4.59874771 8.11639054 4.42928602 10.24049397 2.375 13.875 C-0.53847245 16.48179114 -2.1038517 17 -6 17 C-9.52906067 15.39588152 -10.82772908 14.25840638 -13 11 C-13.50835292 7.1026276 -13.32962183 5.49443274 -11.125 2.1875 C-7.38445041 -1.66306575 -5.14450674 -1.1530791 0 0 Z M-6 1 C-6.66 1.66 -7.32 2.32 -8 3 C-5.69 3.33 -3.38 3.66 -1 4 C-0.67 6.64 -0.34 9.28 0 12 C0.66 11.67 1.32 11.34 2 11 C2.32899743 7.38102827 2.44576634 5.60496861 0.25 2.625 C-2.07787775 0.60967296 -2.07787775 0.60967296 -6 1 Z M-10 4 C-11.35618499 5.12534105 -11.35618499 5.12534105 -11.0625 8.0625 C-11.041875 9.031875 -11.02125 10.00125 -11 11 C-10.01 11.495 -10.01 11.495 -9 12 C-9 9.36 -9 6.72 -9 4 C-9.33 4 -9.66 4 -10 4 Z M-6 5 C-6 5.66 -6 6.32 -6 7 C-5.01 7 -4.02 7 -3 7 C-3 6.34 -3 5.68 -3 5 C-3.99 5 -4.98 5 -6 5 Z M-6 9 C-6 10.32 -6 11.64 -6 13 C-6.99 13.495 -6.99 13.495 -8 14 C-5.69 14 -3.38 14 -1 14 C-1.66 13.67 -2.32 13.34 -3 13 C-3.625 10.9375 -3.625 10.9375 -4 9 C-4.66 9 -5.32 9 -6 9 Z " fill="#353B3E" transform="translate(383,41)"/>
<path d="M0 0 C-0.66 1.32 -1.32 2.64 -2 4 C-4.29160319 4.02692484 -6.58329546 4.04636124 -8.875 4.0625 C-10.15117187 4.07410156 -11.42734375 4.08570313 -12.7421875 4.09765625 C-16 4 -16 4 -18 3 C-17.67 3.99 -17.34 4.98 -17 6 C-17.7425 6.433125 -18.485 6.86625 -19.25 7.3125 C-21.61833926 8.76579909 -23.80924065 10.29607606 -26 12 C-26.33 11.67 -26.66 11.34 -27 11 C-27.66 11.66 -28.32 12.32 -29 13 C-29.33 12.01 -29.66 11.02 -30 10 C-27.91231622 5.89774199 -25.28703217 2.61553713 -21.125 0.625 C-20.09375 0.41875 -19.0625 0.2125 -18 0 C-16.14375 -0.61875 -16.14375 -0.61875 -14.25 -1.25 C-9.29354331 -2.49871971 -4.84536708 -1.29077402 0 0 Z " fill="#4E5759" transform="translate(347,41)"/>
<path d="M0 0 C0.99 0.33 1.98 0.66 3 1 C3.33 4.3 3.66 7.6 4 11 C4.99 11.33 5.98 11.66 7 12 C7.33 11.34 7.66 10.68 8 10 C8 14.87028208 6.74324354 18.00822895 4 22 C0.41666667 24 0.41666667 24 -2 24 C-2 16.41 -2 8.82 -2 1 C-1.34 0.67 -0.68 0.34 0 0 Z " fill="#4E575A" transform="translate(226,40)"/>
<path d="M0 0 C1.32 0.33 2.64 0.66 4 1 C4 21.46 4 41.92 4 63 C-2.75 60.75 -2.75 60.75 -5 58 C-2.83125748 58.50603992 -1.00032373 58.99983813 1 60 C1.02314652 52.47228843 1.04092691 44.94458053 1.05181217 37.41684151 C1.05703593 33.92159902 1.06412441 30.42638084 1.07543945 26.93115234 C1.08835974 22.91503666 1.0932324 18.8989466 1.09765625 14.8828125 C1.10281754 13.62445587 1.10797882 12.36609924 1.11329651 11.0696106 C1.11340981 9.32803177 1.11340981 9.32803177 1.11352539 7.55126953 C1.115746 6.52534698 1.11796661 5.49942444 1.12025452 4.44241333 C1.16394031 1.99230743 1.16394031 1.99230743 0 0 Z " fill="#394441" transform="translate(49,67)"/>
<path d="M0 0 C0 20.46 0 40.92 0 62 C-0.66 62 -1.32 62 -2 62 C-2 44.18 -2 26.36 -2 8 C-4.475 7.505 -4.475 7.505 -7 7 C-9.02955966 8.35538414 -9.02955966 8.35538414 -11 10 C-13.578125 10.73046875 -13.578125 10.73046875 -16.25 11.1875 C-17.14203125 11.34605469 -18.0340625 11.50460938 -18.953125 11.66796875 C-19.62859375 11.77753906 -20.3040625 11.88710938 -21 12 C-18.92802434 9.7787431 -16.92088004 8.22645249 -14.27734375 6.73828125 C-13.57416016 6.34189453 -12.87097656 5.94550781 -12.14648438 5.53710938 C-11.41751953 5.13298828 -10.68855469 4.72886719 -9.9375 4.3125 C-8.83825195 3.68891602 -8.83825195 3.68891602 -7.71679688 3.05273438 C-2.25796644 0 -2.25796644 0 0 0 Z " fill="#70B459" transform="translate(114,38)"/>
<path d="M0 0 C2.52965323 0.0070958 5.01530737 0.10391326 7.53515625 0.3203125 C5.75059549 4.73972473 4.47537712 7.69976672 0.41015625 10.3828125 C-2.46484375 11.3203125 -2.46484375 11.3203125 -4.46484375 10.3203125 C-4.79484375 9.3303125 -5.12484375 8.3403125 -5.46484375 7.3203125 C-5.93921875 7.7946875 -6.41359375 8.2690625 -6.90234375 8.7578125 C-12.21176426 11.99526403 -18.54300207 11.68689135 -24.46484375 10.3203125 C-24.46484375 9.6603125 -24.46484375 9.0003125 -24.46484375 8.3203125 C-23.75199219 8.35511719 -23.03914063 8.38992187 -22.3046875 8.42578125 C-16.17585841 8.59900522 -11.78836761 8.47096948 -6.46484375 5.3203125 C-5.86671875 4.4334375 -5.26859375 3.5465625 -4.65234375 2.6328125 C-2.46484375 0.3203125 -2.46484375 0.3203125 0 0 Z " fill="#464E51" transform="translate(297.46484375,75.6796875)"/>
<path d="M0 0 C3.67071613 0.20975521 4.9512345 0.95463674 7.6875 3.5 C10.59567551 7.24953447 11.31364602 11.39015985 12 16 C10.35 16.66 8.7 17.32 7 18 C6.35309078 16.3962669 5.70751236 14.79199694 5.0625 13.1875 C4.52302734 11.84751953 4.52302734 11.84751953 3.97265625 10.48046875 C3.26386514 8.6729091 2.6139753 6.84192591 2 5 C1.34 4.67 0.68 4.34 0 4 C0 2.68 0 1.36 0 0 Z " fill="#4E585A" transform="translate(350,45)"/>
<path d="M0 0 C0.33 0.66 0.66 1.32 1 2 C0.30132812 2.39832031 -0.39734375 2.79664063 -1.1171875 3.20703125 C-2.02726562 3.73683594 -2.93734375 4.26664063 -3.875 4.8125 C-4.77992187 5.33457031 -5.68484375 5.85664062 -6.6171875 6.39453125 C-9.23273183 7.93733799 -9.23273183 7.93733799 -11 11 C-12.65 11 -14.3 11 -16 11 C-15.67 31.13 -15.34 51.26 -15 72 C-15.66 72 -16.32 72 -17 72 C-17.3957477 64.09000804 -17.69677643 56.18420623 -17.88080692 48.26673317 C-17.96919541 44.58879478 -18.08870701 40.91766656 -18.2824707 37.24365234 C-19.5081856 13.41394643 -19.5081856 13.41394643 -15.27655029 7.6541748 C-10.73637757 3.69678059 -5.72896406 1.67397146 0 0 Z " fill="#78B465" transform="translate(77,58)"/>
<path d="M0 0 C0.125 2.6875 0.125 2.6875 -1 6 C-4.61736094 8.59977302 -8.76349681 11.35708874 -13.32421875 10.62890625 C-14.15373047 10.31759766 -14.15373047 10.31759766 -15 10 C-14.74706737 6.58540955 -13.74051411 5.75204681 -11.1875 3.3125 C-6.93201446 0.22518696 -5.19277935 0 0 0 Z " fill="#464E51" transform="translate(250,38)"/>
<path d="M0 0 C3.46941546 0.45822468 6.67395049 0.89131683 10 2 C10.33 2.66 10.66 3.32 11 4 C11.598125 4.0825 12.19625 4.165 12.8125 4.25 C16.20803549 5.4141836 17.22274002 8.01674218 19 11 C18.01 11.66 17.02 12.32 16 13 C14.22611914 11.90073597 12.45600316 10.79539498 10.6875 9.6875 C9.70136719 9.07261719 8.71523437 8.45773438 7.69921875 7.82421875 C5 6 5 6 3.33203125 4.26953125 C1.94474281 2.65503992 1.94474281 2.65503992 -1 3 C-0.67 2.01 -0.34 1.02 0 0 Z " fill="#4E575A" transform="translate(190,40)"/>
<path d="M0 0 C0.66 0 1.32 0 2 0 C2.45439453 0.99580078 2.45439453 0.99580078 2.91796875 2.01171875 C6.35016466 9.24573167 9.35857223 14.20033218 17.03808594 17.36938477 C20.30134415 18.41828919 23.54479125 18.52926501 26.9375 18.5 C27.6389917 18.49935547 28.3404834 18.49871094 29.06323242 18.49804688 C34.20829885 18.34976373 37.56836368 17.34871642 41.51953125 14.09375 C43 13 43 13 46 13 C40.34091334 18.36887709 34.48277406 21.01579477 26.625 21.4375 C19.41980588 21.13518416 12.43989304 18.74574359 7.0625 13.875 C3.40772506 9.84244785 1.65837709 5.11933797 0 0 Z " fill="#394042" transform="translate(254,72)"/>
<path d="M0 0 C0.33 0.66 0.66 1.32 1 2 C0.25116707 3.69004452 -0.49955691 5.37929867 -1.26358032 7.06253052 C-2.42114266 10.10799736 -2.44224937 13.00882084 -2.51171875 16.24609375 C-2.52966995 16.90207047 -2.54762115 17.55804718 -2.56611633 18.23390198 C-2.61972153 20.30170512 -2.65395093 22.36928438 -2.6875 24.4375 C-2.72071743 25.85094231 -2.75521111 27.26435523 -2.79101562 28.67773438 C-2.87541619 32.11827446 -2.94246279 35.55889366 -3 39 C-5.97 39 -8.94 39 -12 39 C-12 38.34 -12 37.68 -12 37 C-10.02 37 -8.04 37 -6 37 C-5.9906543 36.19369141 -5.98130859 35.38738281 -5.97167969 34.55664062 C-5.9176896 30.87049415 -5.83409552 27.18557759 -5.75 23.5 C-5.73582031 22.2315625 -5.72164062 20.963125 -5.70703125 19.65625 C-5.33405749 5.33405749 -5.33405749 5.33405749 0 0 Z " fill="#41494B" transform="translate(234,53)"/>
<path d="M0 0 C2.49536133 1.21508789 2.49536133 1.21508789 5.08203125 2.72265625 C6.47905273 3.52993164 6.47905273 3.52993164 7.90429688 4.35351562 C8.86400391 4.91748047 9.82371094 5.48144531 10.8125 6.0625 C11.79154297 6.63033203 12.77058594 7.19816406 13.77929688 7.78320312 C16.18993348 9.18254827 18.5965851 10.58829929 21 12 C19 13 19 13 16.0625 12.25 C13 11 13 11 11.65234375 9.62109375 C9.49479635 7.50435103 7.1511131 6.25564624 4.5 4.8125 C3.5409375 4.28269531 2.581875 3.75289063 1.59375 3.20703125 C-1.71501767 1.66725835 -3.38573514 1.82640341 -6.875 2.8125 C-10.02778772 3.89960808 -10.02778772 3.89960808 -12.75 5.6875 C-13.4925 6.120625 -14.235 6.55375 -15 7 C-15.66 6.67 -16.32 6.34 -17 6 C-15.11542462 4.79471335 -13.21682415 3.61133551 -11.3125 2.4375 C-10.25675781 1.77621094 -9.20101562 1.11492187 -8.11328125 0.43359375 C-4.53680015 -1.21329278 -3.67349279 -1.06402732 0 0 Z " fill="#404547" transform="translate(61,1)"/>
<path d="M0 0 C1.32 1.65 2.64 3.3 4 5 C3.34 5 2.68 5 2 5 C2 5.66 2 6.32 2 7 C0.37373596 8.38232443 -1.2925002 9.71937515 -3 11 C-3.99 10.34 -4.98 9.68 -6 9 C-5.52797514 4.75177626 -3.03344482 2.80010291 0 0 Z " fill="#4E585B" transform="translate(265,44)"/>
<path d="M0 0 C0.33 0.66 0.66 1.32 1 2 C0.443125 1.79503906 -0.11375 1.59007812 -0.6875 1.37890625 C-11.58926532 -2.46985887 -18.79552406 -1.78538236 -30 1 C-22.37907804 -7.30339258 -8.89453761 -4.92344102 0 0 Z " fill="#3E4346" transform="translate(353,42)"/>
<path d="M0 0 C0.99 0 1.98 0 3 0 C3.33 0.99 3.66 1.98 4 3 C4.99 3 5.98 3 7 3 C7.66 4.32 8.32 5.64 9 7 C4.05 7 -0.9 7 -6 7 C-5.01 6.01 -4.02 5.02 -3 4 C-2.34 4.33 -1.68 4.66 -1 5 C-1.33 4.01 -1.66 3.02 -2 2 C-1.34 2 -0.68 2 0 2 C0 1.34 0 0.68 0 0 Z " fill="#4B5557" transform="translate(187,40)"/>
<path d="M0 0 C4.76551013 1.37605916 8.7248553 3.46778066 12.875 6.125 C13.46796875 6.49753906 14.0609375 6.87007812 14.671875 7.25390625 C16.1181343 8.16365 17.55958046 9.08103798 19 10 C16 11 16 11 13.9140625 10.0390625 C13.15867187 9.57242188 12.40328125 9.10578125 11.625 8.625 C8.39336337 6.63715479 5.76256946 5.57169783 2 5 C2 4.34 2 3.68 2 3 C1.34 3 0.68 3 0 3 C0 2.01 0 1.02 0 0 Z " fill="#414749" transform="translate(16,48)"/>
<path d="M0 0 C4.49761395 1.22662199 6.8385846 2.61866005 10 6 C8.3811004 7.03048037 6.75467511 8.04914678 5.125 9.0625 C4.22007813 9.63097656 3.31515625 10.19945312 2.3828125 10.78515625 C1.59648438 11.18605469 0.81015625 11.58695313 0 12 C-0.66 11.67 -1.32 11.34 -2 11 C-1.01 10.34 -0.02 9.68 1 9 C1.36162029 7.67405895 1.69728039 6.34061543 2 5 C2.66 4.67 3.32 4.34 4 4 C2.68 2.68 1.36 1.36 0 0 Z " fill="#3F4948" transform="translate(101,25)"/>
<path d="M0 0 C0.66 0 1.32 0 2 0 C2.21914063 0.59167969 2.43828125 1.18335937 2.6640625 1.79296875 C4.9214938 7.4181939 7.03914799 10.50485427 12 14 C11.01 14.33 10.02 14.66 9 15 C7.2109375 13.85546875 7.2109375 13.85546875 5.375 12.1875 C4.76398438 11.64480469 4.15296875 11.10210937 3.5234375 10.54296875 C2 9 2 9 1 7 C-1.01669827 5.86649466 -1.01669827 5.86649466 -3 5 C-2.34 5 -1.68 5 -1 5 C-0.67 3.35 -0.34 1.7 0 0 Z " fill="#41494B" transform="translate(261,69)"/>
<path d="M0 0 C0 0.99 0 1.98 0 3 C-4.61351727 7.00647552 -9.86386963 8.90588757 -16 9 C-19.07022447 8.01950896 -21.24040692 6.73752157 -24 5 C-23.34 4.67 -22.68 4.34 -22 4 C-21.34 4.33 -20.68 4.66 -20 5 C-11.25422951 5.91233493 -11.25422951 5.91233493 -3.25 3.0625 C-1.60263685 1.55460659 -1.60263685 1.55460659 0 0 Z " fill="#3E4447" transform="translate(351,78)"/>
<path d="M0 0 C0.556875 0.226875 1.11375 0.45375 1.6875 0.6875 C0.68132318 3.36326692 0.14535454 4.4660108 -2.4765625 5.734375 C-3.28867188 5.96640625 -4.10078125 6.1984375 -4.9375 6.4375 C-6.16339844 6.80101562 -6.16339844 6.80101562 -7.4140625 7.171875 C-8.35378906 7.42710938 -8.35378906 7.42710938 -9.3125 7.6875 C-8.35178241 4.45599539 -7.61838515 2.92898827 -4.9375 0.8125 C-2.3125 -0.3125 -2.3125 -0.3125 0 0 Z " fill="#4E575A" transform="translate(248.3125,40.3125)"/>
<path d="M0 0 C0.66 0.33 1.32 0.66 2 1 C-0.78394043 2.70050657 -3.57827525 4.38311625 -6.375 6.0625 C-7.1690625 6.54783203 -7.963125 7.03316406 -8.78125 7.53320312 C-9.54179688 7.98759766 -10.30234375 8.44199219 -11.0859375 8.91015625 C-11.7876709 9.33433838 -12.4894043 9.75852051 -13.21240234 10.19555664 C-14.09726318 10.5937561 -14.09726318 10.5937561 -15 11 C-15.66 10.67 -16.32 10.34 -17 10 C-15.24438496 6.48876991 -11.1423546 5.52486563 -7.6875 3.9375 C-5.81810662 3.10678318 -5.81810662 3.10678318 -5 1 C-4.34 1 -3.68 1 -3 1 C-2.01 0.67 -1.02 0.34 0 0 Z " fill="#40494B" transform="translate(76,49)"/>
<path d="M0 0 C2.97 0 5.94 0 9 0 C9.22786458 2.01822917 9.45572917 4.03645833 9.68359375 6.0546875 C9.91292961 8.07404316 9.91292961 8.07404316 11 10 C10.67 10.66 10.34 11.32 10 12 C9.01 12 8.02 12 7 12 C7 8.7 7 5.4 7 2 C4.69 2 2.38 2 0 2 C0 1.34 0 0.68 0 0 Z " fill="#3C4348" transform="translate(222,39)"/>
<path d="M0 0 C2.48294996 1.28479962 4.96125909 2.5773869 7.4375 3.875 C8.14455078 4.23980469 8.85160156 4.60460938 9.58007812 4.98046875 C14.88671875 7.7734375 14.88671875 7.7734375 16 10 C12.44219804 9.39009109 9.3171411 8.4216319 6 7 C6 6.34 6 5.68 6 5 C5.071875 5.309375 5.071875 5.309375 4.125 5.625 C3.42375 5.74875 2.7225 5.8725 2 6 C1.34 5.34 0.68 4.68 0 4 C0 2.68 0 1.36 0 0 Z " fill="#40474A" transform="translate(0,38)"/>
<path d="M0 0 C0.33 0 0.66 0 1 0 C1 7.92 1 15.84 1 24 C-1.97 24 -4.94 24 -8 24 C-8 23.34 -8 22.68 -8 22 C-6.5459375 22.0309375 -6.5459375 22.0309375 -5.0625 22.0625 C-2.12534105 22.35618499 -2.12534105 22.35618499 -1 21 C-0.84313751 19.44051458 -0.74923361 17.87457332 -0.68359375 16.30859375 C-0.64169922 15.36435547 -0.59980469 14.42011719 -0.55664062 13.44726562 C-0.49766602 11.95743164 -0.49766602 11.95743164 -0.4375 10.4375 C-0.39431641 9.44041016 -0.35113281 8.44332031 -0.30664062 7.41601562 C-0.20019702 4.9441585 -0.09818072 2.4721969 0 0 Z " fill="#3B3C3E" transform="translate(230,68)"/>
<path d="M0 0 C-1.875 1.0625 -1.875 1.0625 -4 2 C-4.66 1.67 -5.32 1.34 -6 1 C-12.10663291 0.5199539 -17.19842586 1.18700808 -23 3 C-23.66 2.67 -24.32 2.34 -25 2 C-16.31978591 -2.86938839 -9.41184561 -1.87000545 0 0 Z " fill="#3C4345" transform="translate(291,40)"/>
<path d="M0 0 C0.33 0.66 0.66 1.32 1 2 C0.30132812 2.39832031 -0.39734375 2.79664063 -1.1171875 3.20703125 C-2.02726562 3.73683594 -2.93734375 4.26664063 -3.875 4.8125 C-4.77992187 5.33457031 -5.68484375 5.85664062 -6.6171875 6.39453125 C-9.23273183 7.93733799 -9.23273183 7.93733799 -11 11 C-14.125 11.6875 -14.125 11.6875 -17 12 C-15.85500131 8.56500392 -15.43024564 8.38336181 -12.40234375 6.73828125 C-11.68369141 6.34189453 -10.96503906 5.94550781 -10.22460938 5.53710938 C-9.09249023 4.93092773 -9.09249023 4.93092773 -7.9375 4.3125 C-7.17888672 3.89677734 -6.42027344 3.48105469 -5.63867188 3.05273438 C-3.76366859 2.02678918 -1.88240657 1.01229756 0 0 Z " fill="#6EAA59" transform="translate(77,58)"/>
<path d="M0 0 C1.134375 0.020625 2.26875 0.04125 3.4375 0.0625 C3.7675 1.7125 4.0975 3.3625 4.4375 5.0625 C3.4475 5.0625 2.4575 5.0625 1.4375 5.0625 C1.4375 4.0725 1.4375 3.0825 1.4375 2.0625 C-0.2125 2.3925 -1.8625 2.7225 -3.5625 3.0625 C-3.5625 5.0425 -3.5625 7.0225 -3.5625 9.0625 C-3.8925 9.0625 -4.2225 9.0625 -4.5625 9.0625 C-4.66015625 2.91015625 -4.66015625 2.91015625 -4.5625 1.0625 C-3.5625 0.0625 -3.5625 0.0625 0 0 Z " fill="#384144" transform="translate(378.5625,43.9375)"/>
<path d="M0 0 C0 0.99 0 1.98 0 3 C-5.51815615 6.44884759 -11.85587081 6.38242907 -18 5 C-18 4.34 -18 3.68 -18 3 C-17.28714844 3.03480469 -16.57429688 3.06960937 -15.83984375 3.10546875 C-9.68887544 3.27931846 -5.44620285 2.90464152 0 0 Z " fill="#404749" transform="translate(291,81)"/>
<path d="M0 0 C0.66 0.33 1.32 0.66 2 1 C1.34 2.32 0.68 3.64 0 5 C-2.29141286 5.05384521 -4.58318188 5.09272087 -6.875 5.125 C-8.78925781 5.15980469 -8.78925781 5.15980469 -10.7421875 5.1953125 C-14 5 -14 5 -16 3 C-14.824375 3.04125 -13.64875 3.0825 -12.4375 3.125 C-8.26323307 3.13242752 -4.93674129 2.3658082 -1 1 C-0.67 0.67 -0.34 0.34 0 0 Z " fill="#3E4547" transform="translate(198,81)"/>
<path d="M0 0 C1.65 0.33 3.3 0.66 5 1 C2.20803989 4.28465896 -1.23196817 6.01321958 -5 8 C-5.66 8 -6.32 8 -7 8 C-6.67 7.01 -6.34 6.02 -6 5 C-5.360625 4.855625 -4.72125 4.71125 -4.0625 4.5625 C-1.79688294 4.19895007 -1.79688294 4.19895007 -0.75 1.9375 C-0.5025 1.298125 -0.255 0.65875 0 0 Z " fill="#6CAF54" transform="translate(98,104)"/>
<path d="M0 0 C0.66 0.33 1.32 0.66 2 1 C0.68 2.32 -0.64 3.64 -2 5 C-1.05125 5.474375 -0.1025 5.94875 0.875 6.4375 C2.58333333 7.29166667 4.29166667 8.14583333 6 9 C6 9.66 6 10.32 6 11 C1.69235185 9.43358249 -2.06171464 7.31663844 -6 5 C-4.06745228 2.9754262 -2.36841312 1.57894208 0 0 Z " fill="#3E4345" transform="translate(10,26)"/>
<path d="M0 0 C0.99 0.33 1.98 0.66 3 1 C2.01 2.485 2.01 2.485 1 4 C1.33 4.66 1.66 5.32 2 6 C1.0625 8.625 1.0625 8.625 0 11 C-0.66 11 -1.32 11 -2 11 C-2.05399736 9.54207116 -2.09279177 8.08357288 -2.125 6.625 C-2.15980469 5.40683594 -2.15980469 5.40683594 -2.1953125 4.1640625 C-2 2 -2 2 0 0 Z " fill="#485052" transform="translate(256,61)"/>
<path d="M0 0 C1.97986082 0.11347619 3.95891598 0.2410935 5.9375 0.375 C7.03964844 0.44460937 8.14179688 0.51421875 9.27734375 0.5859375 C10.62505859 0.79089844 10.62505859 0.79089844 12 1 C12.33 1.66 12.66 2.32 13 3 C8.05 3 3.1 3 -2 3 C-1.34 2.01 -0.68 1.02 0 0 Z " fill="#3C4445" transform="translate(183,44)"/>
<path d="M0 0 C0.639375 0.144375 1.27875 0.28875 1.9375 0.4375 C5.93844788 1.17236798 9.95504896 1.58581111 14 2 C14 2.33 14 2.66 14 3 C8.06 3.495 8.06 3.495 2 4 C1.34 2.68 0.68 1.36 0 0 Z " fill="#3F4849" transform="translate(328,43)"/>
</svg>
