<?xml version="1.0" encoding="UTF-8"?>
<svg version="1.1" xmlns="http://www.w3.org/2000/svg" width="200" height="200">
<path d="M0 0 C7.3390336 0.43371267 14.67984137 0.63582609 22.028597 0.82477653 C37.08160274 1.2167022 52.11056524 1.87985972 67.14483964 2.73707354 C68.04388762 18.50505771 68.70777727 34.26585545 69.11370218 50.05329096 C69.30747851 57.39020472 69.57093057 64.71080412 70.01153886 72.03736651 C73.2962904 127.94332375 73.2962904 127.94332375 54.44980943 149.23019946 C38.98685019 165.1954536 21.63104091 169.99846859 -0.04363263 170.4262439 C-9.95061035 170.52967324 -19.82413375 170.0686873 -29.71032071 169.47414708 C-37.04935431 169.04043441 -44.39016208 168.83832099 -51.73891771 168.64937055 C-66.79192346 168.25744488 -81.82088595 167.59428736 -96.85516036 166.73707354 C-97.75420833 150.96908937 -98.41809799 135.20829163 -98.82402289 119.42085612 C-99.01779922 112.08394237 -99.28125128 104.76334296 -99.72185957 97.43678057 C-103.00661111 41.53082333 -103.00661111 41.53082333 -84.16013014 20.24394763 C-61.01630444 -3.65167633 -30.72039618 -1.84747781 0 0 Z " fill="#1869E6" transform="translate(114.85516035556793,15.262926459312439)"/>
<path d="M0 0 C7.3390336 0.43371267 14.67984137 0.63582609 22.028597 0.82477653 C37.08160274 1.2167022 52.11056524 1.87985972 67.14483964 2.73707354 C68.04388762 18.50505771 68.70777727 34.26585545 69.11370218 50.05329096 C69.30747851 57.39020472 69.57093057 64.71080412 70.01153886 72.03736651 C73.2962904 127.94332375 73.2962904 127.94332375 54.44980943 149.23019946 C38.98685019 165.1954536 21.63104091 169.99846859 -0.04363263 170.4262439 C-9.95061035 170.52967324 -19.82413375 170.0686873 -29.71032071 169.47414708 C-37.04935431 169.04043441 -44.39016208 168.83832099 -51.73891771 168.64937055 C-66.79192346 168.25744488 -81.82088595 167.59428736 -96.85516036 166.73707354 C-97.75420833 150.96908937 -98.41809799 135.20829163 -98.82402289 119.42085612 C-99.01779922 112.08394237 -99.28125128 104.76334296 -99.72185957 97.43678057 C-103.00661111 41.53082333 -103.00661111 41.53082333 -84.16013014 20.24394763 C-61.01630444 -3.65167633 -30.72039618 -1.84747781 0 0 Z M-81.27807295 37.76080096 C-90.87862975 55.78656533 -88.08520198 78.73573283 -86.98376143 98.39393389 C-86.66192926 104.76088636 -86.52409524 111.1318478 -86.36883223 117.50465167 C-86.04002018 129.9257397 -85.51384577 142.32939839 -84.85516036 154.73707354 C-71.18230684 155.4629234 -57.51418601 156.00975637 -43.82583201 156.34325087 C-37.46473092 156.50354338 -31.11700196 156.71971864 -24.76360762 157.07569659 C10.39390086 159.42904479 10.39390086 159.42904479 41.06903017 144.5588547 C54.03205428 132.03093772 57.49644847 118.11489727 58.11782968 100.46795619 C58.2659711 90.65074507 57.82248232 80.87935322 57.27344072 71.08021319 C56.95160855 64.71326072 56.81377453 58.34229928 56.65851152 51.96949542 C56.32969947 39.54840738 55.80352506 27.14474869 55.14483964 14.73707354 C41.47198613 14.01122369 27.8038653 13.46439071 14.1155113 13.13089621 C7.75441021 12.97060371 1.40668125 12.75442845 -4.94671309 12.39845049 C-34.28461498 10.80300464 -64.11126571 9.86784205 -81.27807295 37.76080096 Z " fill="#F3F6FA" transform="translate(114.85516035556793,15.262926459312439)"/>
<path d="M0 0 C0.76695694 0.0028299 1.53391388 0.00565979 2.32411194 0.00857544 C4.74879246 0.01967775 7.17308934 0.04476283 9.59765625 0.0703125 C11.25194775 0.0803552 12.9062451 0.08947878 14.56054688 0.09765625 C18.59389548 0.11958433 22.62696105 0.15404407 26.66015625 0.1953125 C26.66015625 4.4853125 26.66015625 8.7753125 26.66015625 13.1953125 C25.62197754 13.19942139 24.58379883 13.20353027 23.51416016 13.20776367 C19.61849035 13.22973141 15.72380551 13.28419926 11.82861328 13.34790039 C10.1509758 13.37092805 8.47319688 13.38543994 6.79541016 13.39086914 C-4.29410093 13.43380054 -12.89713268 13.83671146 -21.77734375 21.22265625 C-26.43144499 26.91229501 -28.83248822 31.45512428 -28.5859375 39.0546875 C-27.72844958 46.51347129 -24.79832575 52.08494797 -19.33984375 57.1953125 C-13.2798845 61.82001824 -5.73971594 62.4837734 1.66015625 62.609375 C2.38130615 62.62874115 3.10245605 62.6481073 3.84545898 62.6680603 C6.11690978 62.72716513 8.3884132 62.77396025 10.66015625 62.8203125 C12.21356204 62.85855616 13.76694808 62.89761146 15.3203125 62.9375 C19.10009724 63.03280816 22.87998093 63.11708882 26.66015625 63.1953125 C26.66015625 67.1553125 26.66015625 71.1153125 26.66015625 75.1953125 C21.27080558 75.29483883 15.88200015 75.36708909 10.49194336 75.41503906 C8.66177032 75.43504624 6.83166033 75.46226101 5.00170898 75.49707031 C2.35775113 75.54607253 -0.2853554 75.56839011 -2.9296875 75.5859375 C-4.13962624 75.61690521 -4.13962624 75.61690521 -5.37400818 75.64849854 C-14.79851899 75.6521484 -23.15590508 71.10531689 -30.33984375 65.1953125 C-33.02285623 62.39058546 -35.22448895 59.44506741 -37.33984375 56.1953125 C-37.77554688 55.56496094 -38.21125 54.93460938 -38.66015625 54.28515625 C-42.97315691 46.69970404 -42.51040186 36.60801521 -41.33984375 28.1953125 C-38.57790003 18.86115233 -32.74219504 11.41802006 -24.40625 6.4453125 C-16.32422228 2.24790484 -9.10028514 -0.1287791 0 0 Z " fill="#F3F8FB" transform="translate(104.33984375,58.8046875)"/>
<path d="M0 0 C0.29296875 3.2578125 0.29296875 3.2578125 0.1875 7.125 C0.14689453 9.04699219 0.14689453 9.04699219 0.10546875 11.0078125 C0.07066406 11.99523437 0.03585938 12.98265625 0 14 C-1.09989258 14.02505615 -2.19978516 14.0501123 -3.33300781 14.07592773 C-7.41824765 14.17018206 -11.50332461 14.27035865 -15.58837891 14.37231445 C-17.35559272 14.41559514 -19.1228465 14.45727505 -20.89013672 14.49731445 C-23.4320886 14.55518351 -25.97384059 14.61882981 -28.515625 14.68359375 C-29.69865204 14.70866249 -29.69865204 14.70866249 -30.90557861 14.73423767 C-34.41959549 14.8288914 -37.61519632 15.06273524 -41 16 C-41 16.66 -41 17.32 -41 18 C-42.175625 18.8971875 -42.175625 18.8971875 -43.375 19.8125 C-46.2884538 22.24037817 -46.64024463 23.56061878 -48 27 C-49.02123868 28.12308728 -50.06530021 29.22562842 -51.125 30.3125 C-53.49395729 32.95879863 -54.43353133 34.6114853 -54.5 38.1875 C-54.05956083 41.5458487 -53.6082768 43.16186447 -52 46 C-51.896875 47.03125 -51.79375 48.0625 -51.6875 49.125 C-51.460625 50.07375 -51.23375 51.0225 -51 52 C-48.53744315 53.45291273 -48.53744315 53.45291273 -46 54 C-46 54.66 -46 55.32 -46 56 C-45.34 56.33 -44.68 56.66 -44 57 C-45.98 57.495 -45.98 57.495 -48 58 C-54.22322764 51.74267249 -57.93606122 45.90940872 -58.375 36.9375 C-57.6208474 29.01889768 -55.07735005 24.5304587 -49.5234375 18.859375 C-40.03233151 11.86592848 -30.76294515 12.5157795 -19.4375 12.75 C-17.74416174 12.77009512 -16.05080047 12.78834057 -14.35742188 12.8046875 C-10.23770628 12.84844662 -6.11911049 12.9173061 -2 13 C-2 8.71 -2 4.42 -2 0 C-13.55 0 -25.1 0 -37 0 C-34.31705834 -2.68294166 -32.82577642 -2.31903151 -29.07421875 -2.44921875 C-27.29047852 -2.51399414 -27.29047852 -2.51399414 -25.47070312 -2.58007812 C-24.22224609 -2.61552734 -22.97378906 -2.65097656 -21.6875 -2.6875 C-19.8322168 -2.75807617 -19.8322168 -2.75807617 -17.93945312 -2.83007812 C-4.89017857 -3.26011905 -4.89017857 -3.26011905 0 0 Z " fill="#1861CF" transform="translate(133,59)"/>
<path d="M0 0 C17.510625 0.474375 35.02125 0.94875 53.0625 1.4375 C53.0625 37.4075 53.0625 73.3775 53.0625 110.4375 C52.7325 110.4375 52.4025 110.4375 52.0625 110.4375 C52.0625 74.7975 52.0625 39.1575 52.0625 2.4375 C34.655 2.56125 17.2475 2.685 -0.6875 2.8125 C-8.93379395 2.86349854 -8.93379395 2.86349854 -17.34667969 2.91552734 C-22.27238051 2.95543376 -22.27238051 2.95543376 -27.19805908 2.99795532 C-29.39285715 3.01564676 -31.58768865 3.02944931 -33.78253174 3.04019165 C-37.10614136 3.05721213 -40.42943612 3.08655082 -43.75292969 3.11865234 C-45.22091066 3.12191056 -45.22091066 3.12191056 -46.71854782 3.1252346 C-47.61409 3.13638613 -48.50963219 3.14753765 -49.43231201 3.1590271 C-50.21030529 3.16455786 -50.98829857 3.17008862 -51.7898674 3.17578697 C-54.23472812 3.47372057 -55.84846689 4.14636832 -57.9375 5.4375 C-58.22625 6.035625 -58.515 6.63375 -58.8125 7.25 C-60.16068733 9.87147536 -62.00695941 11.21351545 -64.29296875 13.015625 C-66.06891257 14.55112037 -67.50475987 16.19180264 -69 18 C-71.39055631 20.88885168 -73.90334337 23.20650248 -76.9375 25.4375 C-77.5975 25.1075 -78.2575 24.7775 -78.9375 24.4375 C-60.90805153 -6.33506993 -32.02039681 -1.22324477 0 0 Z " fill="#225BB7" transform="translate(116.9375,28.5625)"/>
<path d="M0 0 C0.33 0.99 0.66 1.98 1 3 C-0.18766975 4.4574213 -0.18766975 4.4574213 -1.88919067 6.03541565 C-5.96344525 10.54820903 -5.8480328 14.55576204 -5.77294922 20.43334961 C-5.78357895 21.4584967 -5.79420868 22.4836438 -5.80516052 23.53985596 C-5.83315154 26.91118852 -5.81916711 30.28094874 -5.8046875 33.65234375 C-5.81594043 35.99647892 -5.82982228 38.34060283 -5.84622192 40.68470764 C-5.88225054 46.84149794 -5.88263444 52.99779156 -5.87554932 59.15466309 C-5.87463626 65.44239174 -5.9074972 71.72993443 -5.9375 78.01757812 C-5.9913537 90.34510411 -6.007545 102.67236937 -6 115 C7.84763122 115.05632746 21.69463627 115.06638261 35.54232979 115.02334595 C41.9724725 115.00471021 48.40191654 115.00085611 54.83203125 115.03076172 C61.03751732 115.05907916 67.24183593 115.04859629 73.44726181 115.01119995 C75.81472403 115.00375294 78.18227287 115.01029153 80.54965591 115.03103638 C83.86661202 115.05771379 87.1797786 115.03468178 90.49658203 115 C91.4755394 115.01941147 92.45449677 115.03882294 93.46311951 115.05882263 C98.69463437 114.99359428 98.69463437 114.99359428 102.87527084 112.15234375 C104.49044417 109.98245987 104.49044417 109.98245987 105.76379204 107.71484375 C106.17174067 107.14894531 106.57968929 106.58304687 107 106 C107.99 106 108.98 106 110 106 C110 105.34 110 104.68 110 104 C111.485 104.495 111.485 104.495 113 105 C109.58740117 110.28201629 105.81010507 115.02756589 99.52118301 116.6326561 C92.07652146 117.58674054 84.56685625 117.26049477 77.08203125 117.07421875 C74.65398191 117.05367833 72.22588668 117.03803162 69.79777527 117.02705383 C63.43602533 116.98524204 57.07707968 116.87735727 50.71643066 116.75531006 C44.21433442 116.64237067 37.71178075 116.59245653 31.20898438 116.53710938 C18.47146631 116.41947092 5.73588295 116.23410863 -7 116 C-7.16373222 101.90926279 -7.28659732 87.81867369 -7.3626852 73.72717953 C-7.39920528 67.1837507 -7.44873602 60.64096124 -7.52807617 54.09790039 C-7.6041755 47.78252956 -7.6459995 41.46777341 -7.6641407 35.15197945 C-7.67706743 32.74337653 -7.7023109 30.33480698 -7.7401104 27.92646599 C-7.79098733 24.550419 -7.79792092 21.17690624 -7.79467773 17.80053711 C-7.81984467 16.80647354 -7.8450116 15.81240997 -7.87094116 14.78822327 C-7.81575929 9.473611 -7.26891944 6.67304953 -3.45033264 2.82496643 C-2.32305403 1.8560944 -1.18001649 0.90389776 0 0 Z " fill="#225CB6" transform="translate(37,54)"/>
<path d="M0 0 C3.3 0 6.6 0 10 0 C10 0.66 10 1.32 10 2 C12.33294775 2.04241723 14.66702567 2.04092937 17 2 C17.33 1.67 17.66 1.34 18 1 C21.74237002 0.71893898 25.49833779 0.76814589 29.25 0.75 C30.30058594 0.729375 31.35117188 0.70875 32.43359375 0.6875 C33.95919922 0.67976563 33.95919922 0.67976563 35.515625 0.671875 C36.44665039 0.6625293 37.37767578 0.65318359 38.33691406 0.64355469 C41.55738077 1.07460359 43.4290122 2.03094641 46 4 C46.48828125 7.13671875 46.48828125 7.13671875 46.3125 10.6875 C46.26738281 11.86699219 46.22226563 13.04648438 46.17578125 14.26171875 C46.08876953 15.61716797 46.08876953 15.61716797 46 17 C45.34 17 44.68 17 44 17 C44 13.04 44 9.08 44 5 C42.57119507 5.02356567 42.57119507 5.02356567 41.11352539 5.04760742 C37.54085931 5.10237697 33.96822946 5.13651884 30.39526367 5.16479492 C28.85613745 5.17977543 27.31705312 5.2001671 25.77807617 5.22631836 C9.70357622 5.49240064 9.70357622 5.49240064 2 2 C1.34 1.34 0.68 0.68 0 0 Z " fill="#2869C8" transform="translate(87,117)"/>
<path d="M0 0 C2.09765625 0.4296875 2.09765625 0.4296875 4 1 C3.56429687 1.36609375 3.12859375 1.7321875 2.6796875 2.109375 C-4.91060017 9.00963652 -9.16194529 16.71685345 -9.71240234 27.01782227 C-9.91300607 40.26157603 -5.31216329 49.43569315 3.8125 58.875 C4.204375 59.24625 4.59625 59.6175 5 60 C3.02 60.495 3.02 60.495 1 61 C0.505 59.515 0.505 59.515 0 58 C-0.66 58 -1.32 58 -2 58 C-2.495 56.515 -2.495 56.515 -3 55 C-3.66 54.67 -4.32 54.34 -5 54 C-5.495 52.515 -5.495 52.515 -6 51 C-6.66 50.67 -7.32 50.34 -8 50 C-8.88635295 47.44730352 -9.53559704 44.86380263 -10.21875 42.25 C-10.7671887 39.82546793 -10.7671887 39.82546793 -13 39 C-14.06697308 16.4458306 -14.06697308 16.4458306 -8 9 C-7.34 8.67 -6.68 8.34 -6 8 C-4.9935725 6.33720673 -3.99414593 4.67016516 -3 3 C-1.5625 1.125 -1.5625 1.125 0 0 Z " fill="#326DC4" transform="translate(73,67)"/>
<path d="M0 0 C0.29296875 3.2578125 0.29296875 3.2578125 0.1875 7.125 C0.14689453 9.04699219 0.14689453 9.04699219 0.10546875 11.0078125 C0.07066406 11.99523437 0.03585938 12.98265625 0 14 C-1.09989258 14.02505615 -2.19978516 14.0501123 -3.33300781 14.07592773 C-7.41824765 14.17018206 -11.50332461 14.27035865 -15.58837891 14.37231445 C-17.35559272 14.41559514 -19.1228465 14.45727505 -20.89013672 14.49731445 C-23.4320886 14.55518351 -25.97384059 14.61882981 -28.515625 14.68359375 C-29.69865204 14.70866249 -29.69865204 14.70866249 -30.90557861 14.73423767 C-34.41959549 14.8288914 -37.61519632 15.06273524 -41 16 C-41 16.66 -41 17.32 -41 18 C-46.625 20 -46.625 20 -50 20 C-43.46221762 14.25467609 -37.89749797 12.53276239 -29.44140625 12.70703125 C-28.65225327 12.71127609 -27.86310028 12.71552094 -27.05003357 12.71989441 C-24.55382739 12.73655548 -22.05845808 12.77418221 -19.5625 12.8125 C-17.86003778 12.82756317 -16.15756279 12.84124871 -14.45507812 12.85351562 C-10.3030678 12.8864175 -6.1516753 12.93811049 -2 13 C-2 8.71 -2 4.42 -2 0 C-13.55 0 -25.1 0 -37 0 C-34.31705834 -2.68294166 -32.82577642 -2.31903151 -29.07421875 -2.44921875 C-27.29047852 -2.51399414 -27.29047852 -2.51399414 -25.47070312 -2.58007812 C-24.22224609 -2.61552734 -22.97378906 -2.65097656 -21.6875 -2.6875 C-19.8322168 -2.75807617 -19.8322168 -2.75807617 -17.93945312 -2.83007812 C-4.89017857 -3.26011905 -4.89017857 -3.26011905 0 0 Z " fill="#2363C1" transform="translate(133,59)"/>
<path d="M0 0 C0.76695694 0.0028299 1.53391388 0.00565979 2.32411194 0.00857544 C4.74879246 0.01967775 7.17308934 0.04476283 9.59765625 0.0703125 C11.25194775 0.0803552 12.9062451 0.08947878 14.56054688 0.09765625 C18.59389548 0.11958433 22.62696105 0.15404407 26.66015625 0.1953125 C26.66015625 4.4853125 26.66015625 8.7753125 26.66015625 13.1953125 C15.77015625 13.1953125 4.88015625 13.1953125 -6.33984375 13.1953125 C-6.33984375 12.8653125 -6.33984375 12.5353125 -6.33984375 12.1953125 C4.22015625 12.1953125 14.78015625 12.1953125 25.66015625 12.1953125 C25.33015625 8.8953125 25.00015625 5.5953125 24.66015625 2.1953125 C19.66123331 2.3141616 14.66248501 2.43844631 9.66381836 2.56762695 C7.9656129 2.6107647 6.26736996 2.65245334 4.5690918 2.69262695 C2.11886327 2.75084594 -0.33118022 2.81438753 -2.78125 2.87890625 C-3.90824059 2.90397499 -3.90824059 2.90397499 -5.05799866 2.92955017 C-9.56162659 3.05427048 -13.89146313 3.47485431 -18.33984375 4.1953125 C-12.54518222 0.33220482 -6.73816548 -0.0953525 0 0 Z " fill="#C7E1FB" transform="translate(104.33984375,58.8046875)"/>
<path d="M0 0 C0.97582031 0.42152344 1.95164062 0.84304687 2.95703125 1.27734375 C4.24215988 1.83079331 5.52731766 2.38417519 6.8125 2.9375 C7.45509766 3.21529297 8.09769531 3.49308594 8.75976562 3.77929688 C14.46539941 6.23301503 18.99636127 7.18279658 25.16796875 7.31640625 C25.96278152 7.33718735 26.7575943 7.35796844 27.57649231 7.37937927 C30.11340763 7.44472087 32.65042573 7.50368808 35.1875 7.5625 C36.90821372 7.60569986 38.62891708 7.64931463 40.34960938 7.69335938 C44.56630113 7.80038648 48.7830962 7.90169724 53 8 C50.58248708 10.277146 49.29124727 10.97485368 45.93481445 11.26464844 C44.7562085 11.2134082 43.57760254 11.16216797 42.36328125 11.109375 C41.06326172 11.05910156 39.76324219 11.00882813 38.42382812 10.95703125 C37.05338099 10.88810875 35.68293831 10.81909773 34.3125 10.75 C32.9616433 10.69524648 31.61073096 10.64184798 30.25976562 10.58984375 C26.50332032 10.43046817 22.75276497 10.22938533 19 10 C17.56793213 9.91782227 17.56793213 9.91782227 16.10693359 9.83398438 C13.66796875 9.640625 13.66796875 9.640625 10 9 C9.34 8.01 8.68 7.02 8 6 C7.01 5.87625 6.02 5.7525 5 5.625 C4.01 5.41875 3.02 5.2125 2 5 C0.8125 2.4609375 0.8125 2.4609375 0 0 Z " fill="#185CC6" transform="translate(78,127)"/>
<path d="M0 0 C1.24546405 2.49092811 0.7767578 3.41080733 0 6 C-0.66 6 -1.32 6 -2 6 C-1.85761163 8.04190981 -1.71092972 10.08352045 -1.5625 12.125 C-1.48128906 13.26195313 -1.40007812 14.39890625 -1.31640625 15.5703125 C-1.02269035 18.7540478 -0.56875687 21.85510907 0 25 C0.99 25.33 1.98 25.66 3 26 C3 26.66 3 27.32 3 28 C5.475 28.99 5.475 28.99 8 30 C8 30.66 8 31.32 8 32 C8.66 32.33 9.32 32.66 10 33 C8.02 33.495 8.02 33.495 6 34 C-0.22322764 27.74267249 -3.93606122 21.90940872 -4.375 12.9375 C-3.96904444 8.67496659 -3.17969077 3.17969077 0 0 Z " fill="#306AC0" transform="translate(79,83)"/>
<path d="M0 0 C1.05692047 0.00424484 1.05692047 0.00424484 2.13519287 0.00857544 C4.3767626 0.01973449 6.61792686 0.04483057 8.859375 0.0703125 C10.38280671 0.08034786 11.90624471 0.08947274 13.4296875 0.09765625 C17.15638086 0.11965959 20.88283833 0.15415978 24.609375 0.1953125 C24.609375 0.8553125 24.609375 1.5153125 24.609375 2.1953125 C23.69647705 2.22036865 22.7835791 2.2454248 21.84301758 2.27124023 C18.44169869 2.36662857 15.04053561 2.46584652 11.6394043 2.56762695 C10.17004732 2.61081955 8.7006452 2.65250506 7.23120117 2.69262695 C5.11363145 2.75071132 2.99628563 2.81429348 0.87890625 2.87890625 C-1.02991333 2.93389282 -1.02991333 2.93389282 -2.97729492 2.98999023 C-5.89321396 3.1653917 -8.55330405 3.52924133 -11.390625 4.1953125 C-11.390625 3.5353125 -11.390625 2.8753125 -11.390625 2.1953125 C-7.65430857 -0.20423294 -4.36267002 -0.03462437 0 0 Z " fill="#155FCD" transform="translate(103.390625,72.8046875)"/>
<path d="M0 0 C2.09765625 0.4296875 2.09765625 0.4296875 4 1 C3.01 1.845625 2.02 2.69125 1 3.5625 C-4.52201142 9.00546422 -7.59696407 16.13205476 -11 23 C-12.140625 21.32421875 -12.140625 21.32421875 -13 19 C-12.171875 16.45703125 -12.171875 16.45703125 -10.75 13.8125 C-10.29109375 12.93207031 -9.8321875 12.05164063 -9.359375 11.14453125 C-8 9 -8 9 -6 8 C-4.9935725 6.33720673 -3.99414593 4.67016516 -3 3 C-1.5625 1.125 -1.5625 1.125 0 0 Z " fill="#2264C7" transform="translate(73,67)"/>
<path d="M0 0 C0.99 0.33 1.98 0.66 3 1 C2.38125 1.2475 1.7625 1.495 1.125 1.75 C-1.11049208 2.80004165 -1.11049208 2.80004165 -1.875 4.8125 C-3.22318733 7.43397536 -5.06945941 8.77601545 -7.35546875 10.578125 C-9.13141257 12.11362037 -10.56725987 13.75430264 -12.0625 15.5625 C-14.45305631 18.45135168 -16.96584337 20.76900248 -20 23 C-20.66 22.67 -21.32 22.34 -22 22 C-14.74 14.74 -7.48 7.48 0 0 Z " fill="#2464C6" transform="translate(60,31)"/>
<path d="M0 0 C1.18372948 0.00636726 1.18372948 0.00636726 2.39137268 0.01286316 C4.88757886 0.02952423 7.38294817 0.06715096 9.87890625 0.10546875 C11.58136847 0.12053192 13.28384346 0.13421746 14.98632812 0.14648438 C19.13833845 0.17938625 23.28973095 0.23107924 27.44140625 0.29296875 C27.44140625 0.62296875 27.44140625 0.95296875 27.44140625 1.29296875 C26.40209961 1.3180249 25.36279297 1.34308105 24.29199219 1.36889648 C20.43037922 1.46317801 16.56893742 1.56334783 12.70751953 1.6652832 C11.03731291 1.70855364 9.36706431 1.75023424 7.69677734 1.7902832 C5.2938167 1.84817726 2.89106584 1.91181615 0.48828125 1.9765625 C-0.25665588 1.99327499 -1.00159302 2.00998749 -1.769104 2.02720642 C-5.15369309 2.1235857 -8.31864615 2.25367049 -11.55859375 3.29296875 C-11.55859375 3.95296875 -11.55859375 4.61296875 -11.55859375 5.29296875 C-17.18359375 7.29296875 -17.18359375 7.29296875 -20.55859375 7.29296875 C-14.02081137 1.54764484 -8.45609172 -0.17426886 0 0 Z " fill="#2960B3" transform="translate(103.55859375,71.70703125)"/>
<path d="M0 0 C1.39412109 0.61488281 1.39412109 0.61488281 2.81640625 1.2421875 C4.06500375 1.78668866 5.31370739 2.33094648 6.5625 2.875 C7.47612305 3.27912109 7.47612305 3.27912109 8.40820312 3.69140625 C12.54509929 5.48625009 16.64027642 6.84414021 21 8 C21 8.33 21 8.66 21 9 C19.20906809 9.08086147 17.41710372 9.13912702 15.625 9.1875 C14.12839844 9.23970703 14.12839844 9.23970703 12.6015625 9.29296875 C11.74304688 9.19628906 10.88453125 9.09960938 10 9 C9.34 8.01 8.68 7.02 8 6 C7.01 5.87625 6.02 5.7525 5 5.625 C4.01 5.41875 3.02 5.2125 2 5 C0.8125 2.4609375 0.8125 2.4609375 0 0 Z " fill="#1C5FC3" transform="translate(78,127)"/>
<path d="M0 0 C0.33 0.66 0.66 1.32 1 2 C0.3125 4.0625 0.3125 4.0625 -1 6 C-2.33333333 6.33333333 -3.66666667 6.66666667 -5 7 C-5.68486725 8.32407669 -6.34870203 9.65909241 -7 11 C-9.625 13.25 -9.625 13.25 -12 15 C-12.66 14.67 -13.32 14.34 -14 14 C-9.38 9.38 -4.76 4.76 0 0 Z " fill="#C6DFF8" transform="translate(157,151)"/>
<path d="M0 0 C1.21236328 0.01353516 1.21236328 0.01353516 2.44921875 0.02734375 C3.37154297 0.04474609 3.37154297 0.04474609 4.3125 0.0625 C1.02744168 1.76439768 -2.33367346 3.20682232 -5.75 4.625 C-6.79285156 5.05941406 -7.83570312 5.49382812 -8.91015625 5.94140625 C-10.81248952 6.70929605 -12.74130526 7.41376842 -14.6875 8.0625 C-14.6875 7.4025 -14.6875 6.7425 -14.6875 6.0625 C-11.6875 4.0625 -11.6875 4.0625 -8.6875 4.0625 C-8.3575 3.0725 -8.0275 2.0825 -7.6875 1.0625 C-4.80538698 0.10179566 -2.98899956 -0.04331883 0 0 Z " fill="#2966C0" transform="translate(91.6875,58.9375)"/>
<path d="M0 0 C0.66 0.33 1.32 0.66 2 1 C-0.12996003 5.25992006 -1.62778994 6.36042123 -6 8 C-7.03647024 9.30518475 -8.04422943 10.63461347 -9 12 C-9.66 12 -10.32 12 -11 12 C-9.49650623 8.33213607 -7.36271208 6.31089607 -4.375 3.75 C-3.14910156 2.69039063 -3.14910156 2.69039063 -1.8984375 1.609375 C-1.27195312 1.07828125 -0.64546875 0.5471875 0 0 Z " fill="#DAE8F9" transform="translate(80,65)"/>
<path d="M0 0 C0.99 0.33 1.98 0.66 3 1 C-0.63 4.63 -4.26 8.26 -8 12 C-8.33 11.34 -8.66 10.68 -9 10 C-8.07456291 8.65826597 -7.13422595 7.32679841 -6.1875 6 C-5.66542969 5.2575 -5.14335937 4.515 -4.60546875 3.75 C-3.81076172 2.88375 -3.81076172 2.88375 -3 2 C-2.01 2 -1.02 2 0 2 C0 1.34 0 0.68 0 0 Z " fill="#2464C4" transform="translate(147,158)"/>
<path d="M0 0 C0.99 0.33 1.98 0.66 3 1 C0.03 3.97 -2.94 6.94 -6 10 C-6.33 9.01 -6.66 8.02 -7 7 C-2.88888889 1.44444444 -2.88888889 1.44444444 0 0 Z " fill="#2163C6" transform="translate(166,139)"/>
<path d="M0 0 C-2.31 0.66 -4.62 1.32 -7 2 C-7 2.66 -7 3.32 -7 4 C-12.625 6 -12.625 6 -16 6 C-11.6726368 2.19716567 -5.97149347 -2.62745713 0 0 Z " fill="#4278C2" transform="translate(99,73)"/>
<path d="M0 0 C0.33 0.99 0.66 1.98 1 3 C-0.21484375 4.82421875 -0.21484375 4.82421875 -1.9375 6.6875 C-2.50339844 7.31011719 -3.06929687 7.93273438 -3.65234375 8.57421875 C-4.09707031 9.04472656 -4.54179688 9.51523437 -5 10 C-5.68359375 8.203125 -5.68359375 8.203125 -6 6 C-4.78515625 4.296875 -4.78515625 4.296875 -3.0625 2.75 C-2.21365234 1.96882813 -2.21365234 1.96882813 -1.34765625 1.171875 C-0.90292969 0.78515625 -0.45820312 0.3984375 0 0 Z " fill="#2062C6" transform="translate(37,54)"/>
<path d="M0 0 C0.33 0.99 0.66 1.98 1 3 C-0.40445835 5.2636564 -2.1967913 7.0208685 -4 9 C-4.99 8.34 -5.98 7.68 -7 7 C-4.69 4.69 -2.38 2.38 0 0 Z " fill="#CCE3F8" transform="translate(165,143)"/>
<path d="M0 0 C4.95 0 9.9 0 15 0 C15 0.33 15 0.66 15 1 C14.34773438 1.06058594 13.69546875 1.12117188 13.0234375 1.18359375 C8.31283783 1.63519991 3.65798362 2.14195039 -1 3 C-0.67 2.01 -0.34 1.02 0 0 Z " fill="#1761D5" transform="translate(93,56)"/>
<path d="M0 0 C0 0.66 0 1.32 0 2 C-1.98 2.66 -3.96 3.32 -6 4 C-6 4.66 -6 5.32 -6 6 C-7.32 5.67 -8.64 5.34 -10 5 C-8.90241493 4.15801693 -7.79664683 3.32669329 -6.6875 2.5 C-6.07261719 2.0359375 -5.45773438 1.571875 -4.82421875 1.09375 C-3 0 -3 0 0 0 Z " fill="#1662D6" transform="translate(83,61)"/>
<path d="M0 0 C4.455 1.98 4.455 1.98 9 4 C5 5 5 5 2 5 C1.34 3.35 0.68 1.7 0 0 Z " fill="#3169C6" transform="translate(78,127)"/>
<path d="M0 0 C0 3.93169105 -1.39419615 5.16427228 -4 8 C-4.66 8 -5.32 8 -6 8 C-4.55746343 4.63408134 -2.66735273 2.48952921 0 0 Z " fill="#CAE4FA" transform="translate(75,69)"/>
</svg>
