<?xml version="1.0" encoding="UTF-8"?>
<svg version="1.1" xmlns="http://www.w3.org/2000/svg" width="600" height="333">
<path d="M0 0 C0.02752977 1.97908485 0.04663002 3.95828731 0.0625 5.9375 C0.07410156 7.03964844 0.08570313 8.14179687 0.09765625 9.27734375 C0.02221425 12.15319284 -0.17632341 14.88332024 -0.50610352 17.73266602 C-0.59803482 18.53438736 -0.68996613 19.3361087 -0.78468323 20.16212463 C-0.85573776 20.7686235 -0.9267923 21.37512238 -1 22 C0.03094788 21.99555878 1.06189575 21.99111755 2.12408447 21.98654175 C11.8354802 21.94601435 21.54685878 21.91602457 31.25831985 21.89637566 C36.25118787 21.88593441 41.24398766 21.87176893 46.23681641 21.84912109 C51.05434592 21.82740495 55.87180978 21.81543394 60.68938446 21.81024551 C62.52820621 21.80654756 64.36702434 21.79932646 66.20581818 21.78853989 C68.77954399 21.77404133 71.35299779 21.77202137 73.92675781 21.77294922 C74.68848801 21.76575867 75.4502182 21.75856812 76.23503113 21.75115967 C83.19929333 21.77836207 83.19929333 21.77836207 86 24 C87.21380252 27.4496027 87.1284542 30.82419459 87.13371277 34.45239258 C87.13597833 35.09818929 87.13824388 35.743986 87.14057809 36.4093523 C87.14690311 38.57109686 87.1460897 40.73277847 87.14526367 42.89453125 C87.14825604 44.44526246 87.15165875 45.99599293 87.15544128 47.54672241 C87.16427613 51.75736762 87.16661914 55.96799251 87.16725707 60.17864609 C87.16820659 63.6927261 87.17188526 67.20680137 87.17542917 70.72087955 C87.18357125 79.00956016 87.18601357 87.29822991 87.18530273 95.58691406 C87.18470152 104.14158495 87.19526252 112.69619287 87.2110464 121.25084782 C87.22411224 128.59360838 87.22948706 135.93634834 87.22884732 143.27912045 C87.22859212 147.66556449 87.23145594 152.05195253 87.24202538 156.43838501 C87.25169065 160.56206355 87.25179638 164.68563237 87.24450874 168.80931473 C87.24346104 170.32344345 87.24583675 171.83757895 87.2518692 173.35169601 C87.25956589 175.41712969 87.25496009 177.48218218 87.24723816 179.54760742 C87.24778293 180.70387131 87.24832769 181.86013519 87.24888897 183.05143738 C87.00435996 185.94834802 86.58324454 187.59055167 85 190 C82.16448877 191.89849961 79.92606765 192.24403387 76.55566406 192.21118164 C75.67719315 192.20784317 74.79872223 192.2045047 73.89363098 192.20106506 C72.46901802 192.1808152 72.46901802 192.1808152 71.015625 192.16015625 C69.52061714 192.15181007 69.52061714 192.15181007 67.9954071 192.14329529 C65.8561938 192.13087817 63.71700174 192.11422016 61.57785034 192.09375 C56.01683398 192.04152957 50.45574978 192.02173791 44.89453125 192.00390625 C43.23938255 191.99799973 43.23938255 191.99799973 41.55079651 191.99197388 C32.00544729 191.97134715 22.47627389 192.15856264 12.9375 192.5 C12.25860718 192.52409943 11.57971436 192.54819885 10.88024902 192.57302856 C7.2529332 192.70402426 3.62659733 192.84967472 0 193 C0 200.59 0 208.18 0 216 C-3.36290456 217.12096819 -4.67058193 216.6105259 -7.9473877 215.58776855 C-11.8077261 214.48235497 -15.7772231 213.91984214 -19.734375 213.265625 C-20.67343689 213.10701996 -21.61249878 212.94841492 -22.58001709 212.78500366 C-25.63606913 212.26963802 -28.69300786 211.75975684 -31.75 211.25 C-33.86790529 210.89411443 -35.98574334 210.5378285 -38.10351562 210.18115234 C-41.31287451 209.64066446 -44.52227562 209.10044626 -47.73193359 208.56173706 C-54.27754429 207.46247948 -60.81998631 206.34660311 -67.359375 205.2109375 C-68.14874451 205.07413574 -68.93811401 204.93733398 -69.75140381 204.79638672 C-75.68984066 203.7669516 -75.68984066 203.7669516 -78.59216309 203.25842285 C-85.62275144 202.02733987 -92.64065757 200.89384013 -99.72265625 200 C-106.23494721 199.15835653 -112.55602463 197.90691035 -118.9375 196.375 C-119.91912109 196.14554688 -120.90074219 195.91609375 -121.91210938 195.6796875 C-124.27631217 195.12611806 -126.6388137 194.56627053 -129 194 C-129.93589288 190.03944074 -130.12795031 186.35414434 -130.13371277 182.28895569 C-130.13597833 181.62738148 -130.13824388 180.96580727 -130.14057809 180.28418535 C-130.14689094 178.07493702 -130.14609048 175.86575047 -130.14526367 173.65649414 C-130.14825682 172.06945212 -130.15165971 170.48241082 -130.15544128 168.89537048 C-130.16426869 164.589612 -130.16661884 160.28387339 -130.16725707 155.97810674 C-130.16796818 153.28732233 -130.17010363 150.59654297 -130.17275429 147.90575981 C-130.18200285 138.51667841 -130.1860897 129.1276112 -130.18530273 119.73852539 C-130.18470175 110.98903723 -130.19525882 102.23961068 -130.2110464 93.49013811 C-130.22412327 85.97492847 -130.22948658 78.45973896 -130.22884732 70.94451803 C-130.22859242 66.45742115 -130.2314395 61.97037907 -130.24202538 57.48329353 C-130.25170905 53.26356557 -130.25178369 49.04394477 -130.24450874 44.82421303 C-130.24346331 43.27705987 -130.24582337 41.72990003 -130.2518692 40.18275833 C-130.25959789 38.0677225 -130.2549388 35.95305595 -130.24723816 33.83802795 C-130.24778293 32.6554091 -130.24832769 31.47279024 -130.24888897 30.25433445 C-129.9861648 26.81909863 -129.39912244 24.14827853 -128 21 C-123.19248875 18.97483589 -118.15632949 18.56115246 -113 18.0625 C-107.59996061 17.48309163 -102.32106243 16.74363244 -97 15.625 C-90.71090963 14.3030476 -84.4122631 13.23802726 -78.0625 12.25 C-66.51774538 10.44477068 -55.00832105 8.46027884 -43.5 6.4375 C-42.65881622 6.28970093 -41.81763245 6.14190186 -40.95095825 5.98962402 C-39.29233853 5.69800125 -37.63376357 5.40612377 -35.97523499 5.11398315 C-34.35516676 4.82868672 -32.73499965 4.54395116 -31.11473083 4.25979614 C-27.15497027 3.56381266 -23.1985069 2.85431566 -19.24609375 2.11767578 C-18.483573 1.97757584 -17.72105225 1.83747589 -16.9354248 1.69313049 C-15.511705 1.43109792 -14.08883931 1.16435653 -12.66711426 0.89170837 C-8.39530325 0.11128136 -4.33782074 -0.11546465 0 0 Z M0 31 C-1.44192906 39.21881227 -1.44192906 39.21881227 0 44 C5.94 43.67 11.88 43.34 18 43 C18 49.27 18 55.54 18 62 C10.1875 61.6875 10.1875 61.6875 7.73901367 61.54956055 C5.47745817 61.45790741 5.47745817 61.45790741 2 62 C-0.45645667 64.84758181 -1 66.24177486 -1 70 C4.94 70 10.88 70 17 70 C17.6726971 76.39062243 18 82.57462894 18 89 C16.87980469 88.96519531 15.75960937 88.93039063 14.60546875 88.89453125 C13.13282749 88.86639161 11.66017002 88.83909163 10.1875 88.8125 C9.44951172 88.78736328 8.71152344 88.76222656 7.95117188 88.73632812 C3.77963154 88.66407116 3.77963154 88.66407116 -0.01171875 90.19921875 C-1.30987315 92.56463052 -1.21528871 94.34477258 -1 97 C1.41674224 97.02705308 3.8331794 97.04686438 6.25 97.0625 C7.27287109 97.07506836 7.27287109 97.07506836 8.31640625 97.08789062 C11.8026497 97.10481414 14.58660119 96.8533497 18 96 C18 102.6 18 109.2 18 116 C12.39 116 6.78 116 1 116 C-1.2981424 119.8509288 -1.2981424 119.8509288 -1 124 C4.94 124 10.88 124 17 124 C17.33 127.3 17.66 130.6 18 134 C18.66 134 19.32 134 20 134 C19.01 134.99 19.01 134.99 18 136 C18 138.31 18 140.62 18 143 C11.73 143 5.46 143 -1 143 C-1 145.64 -1 148.28 -1 151 C1.81256281 151.02684312 4.62487241 151.04676188 7.4375 151.0625 C8.23994141 151.07087891 9.04238281 151.07925781 9.86914062 151.08789062 C11.91295221 151.0965143 13.95683902 151.0522815 16 151 C16.33 150.67 16.66 150.34 17 150 C17.33 153.3 17.66 156.6 18 160 C18.66 160 19.32 160 20 160 C19.67 160.556875 19.34 161.11375 19 161.6875 C17.86522475 164.31166778 17.92496414 166.17208611 18 169 C16.95199219 169.04898438 15.90398437 169.09796875 14.82421875 169.1484375 C13.44528646 169.22348143 12.0663815 169.29902857 10.6875 169.375 C9.65206055 169.42140625 9.65206055 169.42140625 8.59570312 169.46875 C4.93009211 169.68124919 3.12099208 169.91933861 0 172 C-1.14352916 174.28705831 -1.10334439 175.59264762 -1.0625 178.125 C-1.041875 179.40375 -1.02125 180.6825 -1 182 C0.98 182.33 2.96 182.66 5 183 C5 182.34 5 181.68 5 181 C5.495 181.165 5.99 181.33 6.5 181.5 C8.82892351 181.9657847 10.76286061 182.03435839 13.125 182 C17 182 17 182 19 183 C26.48452169 183.42061775 33.9354634 182.84439744 41.3828125 182.12109375 C44 182 44 182 46 183 C48.01896864 183.0962762 50.0412429 183.12981825 52.0625 183.125 C53.14660156 183.12757813 54.23070312 183.13015625 55.34765625 183.1328125 C57.92243398 183.30118564 57.92243398 183.30118564 59 182 C62.13311475 182.15117562 65.24173211 182.40423199 68.36523438 182.68359375 C71.84021487 182.96213569 74.65896032 182.96076172 78 182 C78.04677942 163.640946 78.08201793 145.28190752 78.10362434 126.92280674 C78.11392449 118.39781765 78.12796064 109.87286566 78.15087891 101.34790039 C78.17085147 93.91509203 78.18372561 86.48231054 78.18817699 79.04947609 C78.19077783 75.11608072 78.19686453 71.18276222 78.21146011 67.24939156 C78.2251052 63.54189064 78.22920873 59.83449775 78.22621536 56.12697411 C78.22702192 54.12839754 78.23774714 52.12983256 78.24884033 50.13128662 C78.246091 48.92410477 78.24334167 47.71692291 78.24050903 46.47315979 C78.24235262 45.4342991 78.24419621 44.3954384 78.24609566 43.32509708 C77.93786424 39.16045885 76.90590788 35.07658547 76 31 C50.92 31 25.84 31 0 31 Z " fill="#027134" transform="translate(182,53)"/>
<path d="M0 0 C1.48831242 0.00667405 2.97660807 0.01863442 4.46484375 0.03515625 C5.22345703 0.03966797 5.98207031 0.04417969 6.76367188 0.04882812 C8.64326246 0.06064945 10.52281274 0.07858547 12.40234375 0.09765625 C10.96391894 4.85210591 8.96355445 9.15445159 6.671875 13.54296875 C5.94420505 14.96330793 5.21700521 16.38388804 4.49023438 17.8046875 C3.34964589 20.02374468 2.20544663 22.24070015 1.05297852 24.45361328 C-0.06399709 26.60304945 -1.16581236 28.75971218 -2.265625 30.91796875 C-2.61449265 31.57846222 -2.96336029 32.23895569 -3.32279968 32.91946411 C-5.14860047 36.32497578 -5.14860047 36.32497578 -5.29074097 40.07073975 C-4.60026497 42.09002708 -3.79865909 43.9228533 -2.83178711 45.82470703 C-2.47148911 46.53869659 -2.1111911 47.25268616 -1.73997498 47.98831177 C-1.35140823 48.74884857 -0.96284149 49.50938538 -0.5625 50.29296875 C-0.16438614 51.08162323 0.23372772 51.87027771 0.64390564 52.68283081 C1.91372567 55.19806352 3.18865573 57.71064917 4.46484375 60.22265625 C6.14776763 63.53548859 7.82548909 66.85087756 9.5 70.16796875 C9.89059097 70.93255402 10.28118195 71.69713928 10.68360901 72.4848938 C13.40234375 77.87207242 13.40234375 77.87207242 13.40234375 80.09765625 C7.79234375 80.09765625 2.18234375 80.09765625 -3.59765625 80.09765625 C-6.62050214 74.22178728 -9.2708743 68.2689651 -11.78515625 62.16015625 C-12.48474037 60.46261729 -13.18644728 58.76595108 -13.890625 57.0703125 C-14.19508545 56.33047119 -14.4995459 55.59062988 -14.81323242 54.82836914 C-15.47101927 53.10691363 -15.47101927 53.10691363 -16.59765625 52.09765625 C-20.22765625 60.34765625 -23.85765625 68.59765625 -27.59765625 77.09765625 C-32.87765625 77.09765625 -38.15765625 77.09765625 -43.59765625 77.09765625 C-42.05054697 72.45632841 -40.34031757 68.4069886 -38.0859375 64.125 C-37.40371619 62.80042913 -36.72209311 61.47555 -36.04101562 60.15039062 C-34.97392902 58.08443413 -33.90272039 56.02100627 -32.82104492 53.96264648 C-31.77159248 51.96057388 -30.74008847 49.95006644 -29.7109375 47.9375 C-29.38394363 47.32591537 -29.05694977 46.71433075 -28.720047 46.08421326 C-27.40460241 43.48458033 -26.57815225 41.53971804 -26.70776367 38.60205078 C-27.85734193 35.36683165 -29.23320382 32.27633656 -30.72265625 29.1875 C-31.02961426 28.53818008 -31.33657227 27.88886017 -31.65283203 27.21986389 C-32.62921586 25.15576701 -33.61279571 23.09522045 -34.59765625 21.03515625 C-35.58183662 18.97121831 -36.56433117 16.90654042 -37.54248047 14.83973694 C-38.14980531 13.55693257 -38.76065504 12.27578943 -39.37548828 10.99656677 C-40.79565782 8.00134846 -41.78737193 5.33879353 -42.59765625 2.09765625 C-36.98765625 2.09765625 -31.37765625 2.09765625 -25.59765625 2.09765625 C-24.0893407 5.84450361 -22.59074899 9.59474746 -21.09765625 13.34765625 C-20.66839844 14.41113281 -20.23914063 15.47460938 -19.796875 16.5703125 C-19.39082031 17.59511719 -18.98476562 18.61992187 -18.56640625 19.67578125 C-18.18935547 20.6184082 -17.81230469 21.56103516 -17.42382812 22.53222656 C-16.59765625 25.09765625 -16.59765625 25.09765625 -16.59765625 29.09765625 C-15.93765625 29.09765625 -15.27765625 29.09765625 -14.59765625 29.09765625 C-14.35144531 27.81890625 -14.10523437 26.54015625 -13.8515625 25.22265625 C-12.66874537 19.90362661 -10.70758127 15.0798546 -8.53515625 10.09765625 C-8.17099609 9.24042969 -7.80683594 8.38320312 -7.43164062 7.5 C-4.26614849 0.11580208 -4.26614849 0.11580208 0 0 Z " fill="#F5FBF8" transform="translate(129.59765625,119.90234375)"/>
<path d="M0 0 C0.02752977 1.97908485 0.04663002 3.95828731 0.0625 5.9375 C0.07410156 7.03964844 0.08570313 8.14179687 0.09765625 9.27734375 C0.02221425 12.15319284 -0.17632341 14.88332024 -0.50610352 17.73266602 C-0.59803482 18.53438736 -0.68996613 19.3361087 -0.78468323 20.16212463 C-0.85573776 20.7686235 -0.9267923 21.37512238 -1 22 C0.03094788 21.99555878 1.06189575 21.99111755 2.12408447 21.98654175 C11.8354802 21.94601435 21.54685878 21.91602457 31.25831985 21.89637566 C36.25118787 21.88593441 41.24398766 21.87176893 46.23681641 21.84912109 C51.05434592 21.82740495 55.87180978 21.81543394 60.68938446 21.81024551 C62.52820621 21.80654756 64.36702434 21.79932646 66.20581818 21.78853989 C68.77954399 21.77404133 71.35299779 21.77202137 73.92675781 21.77294922 C74.68848801 21.76575867 75.4502182 21.75856812 76.23503113 21.75115967 C83.19929333 21.77836207 83.19929333 21.77836207 86 24 C87.21574038 27.4533739 87.12846016 30.83362084 87.13371277 34.46585083 C87.13597833 35.11305867 87.13824388 35.76026651 87.14057809 36.42708671 C87.14690308 38.59349918 87.14608971 40.75984885 87.14526367 42.92626953 C87.14825598 44.48024578 87.15165868 46.03422128 87.15544128 47.5881958 C87.16427525 51.80697092 87.16661906 56.02572575 87.16725707 60.24450922 C87.16820638 63.76374841 87.17188469 67.28298286 87.17542917 70.80222023 C87.1835704 79.10040837 87.18601359 87.39858566 87.18530273 95.69677734 C87.18470109 104.26739299 87.195271 112.83794587 87.2110464 121.40854561 C87.22409999 128.76146591 87.2294876 136.11436563 87.22884732 143.46729743 C87.22859182 147.86150245 87.23147221 152.25565162 87.24202538 156.64984512 C87.25167047 160.77844209 87.25181041 164.90692937 87.24450874 169.03553009 C87.24345861 170.553724 87.24585099 172.07192462 87.2518692 173.59010696 C87.25953164 175.65624121 87.2549832 177.7219911 87.24723816 179.78811646 C87.24778293 180.94622393 87.24832769 182.1043314 87.24888897 183.29753304 C87 186 87 186 85 188 C85 187.01 85 186.02 85 185 C84.34 184.67 83.68 184.34 83 184 C83.33 183.01 83.66 182.02 84 181 C84.09089924 179.13519134 84.12195027 177.26724477 84.12025452 175.40022278 C84.12162918 174.23494553 84.12300385 173.06966827 84.12442017 171.86907959 C84.12082489 170.5894635 84.11722961 169.30984741 84.11352539 167.99145508 C84.11324334 166.63142397 84.1134016 165.27139271 84.1139679 163.91136169 C84.11425518 160.21742897 84.1083696 156.52352862 84.10139394 152.82960343 C84.09514891 148.96987461 84.09455569 145.11014508 84.09336853 141.25041199 C84.09025861 133.94064908 84.08204978 126.63090109 84.07201904 119.32114476 C84.06084739 110.99959108 84.0553448 102.67803669 84.05032361 94.35647738 C84.0398669 77.23764295 84.022274 60.11882305 84 43 C83.01 43.33 82.02 43.66 81 44 C79.86430541 72.07806733 79.69178033 100.16483385 79.46777344 128.26196289 C79.41672435 134.56528985 79.36148255 140.8685801 79.30664062 147.171875 C79.20042731 159.44788501 79.0987035 171.72392746 79 184 C78.67 184 78.34 184 78 184 C77.0258137 176.2172492 76.86868593 168.54354689 76.90234375 160.70678711 C76.90458522 158.72055662 76.90682643 156.73432613 76.90905762 154.74809563 C76.9124088 152.63256549 76.91825587 150.51705557 76.92483521 148.40153313 C76.93845965 143.97501236 76.94427298 139.5485015 76.94897461 135.1219635 C76.9600315 125.72712875 76.97956899 116.33231834 77 106.9375 C77.02206521 96.78850609 77.04263387 86.63952224 77.05341816 76.49050909 C77.05837559 72.09744934 77.06819715 67.70443648 77.08184814 63.31139553 C77.08753543 61.23415062 77.09089476 59.15691732 77.0932312 57.07966614 C77.09608159 54.55727422 77.10249673 52.03488255 77.11331177 49.51251221 C77.11338226 48.38709518 77.11345276 47.26167816 77.11352539 46.10215759 C77.115746 45.13527984 77.11796661 44.16840208 77.12025452 43.172225 C76.9659048 39.10059392 76.4499594 35.04963456 76 31 C50.92 31 25.84 31 0 31 C0 34.96 0 38.92 0 43 C3.96 43 7.92 43 12 43 C12 43.66 12 44.32 12 45 C11.01 45 10.02 45 9 45 C8.505 45.99 8.505 45.99 8 47 C8 46.34 8 45.68 8 45 C6.515 45.495 6.515 45.495 5 46 C2.66700175 46.03954234 0.33291811 46.04401732 -2 46 C-2.66 43.69 -3.32 41.38 -4 39 C-3.34 39 -2.68 39 -2 39 C-2 37.02 -2 35.04 -2 33 C-2.66 32.67 -3.32 32.34 -4 32 C-3.01 30.515 -3.01 30.515 -2 29 C-1.01 29 -0.02 29 1 29 C0.505 28.01 0.505 28.01 0 27 C-1.485 26.505 -1.485 26.505 -3 26 C-2.01 25.505 -2.01 25.505 -1 25 C-1.495 24.01 -1.495 24.01 -2 23 C-2.08372659 21.47851674 -2.10730027 19.95344222 -2.09765625 18.4296875 C-2.09282227 17.08583984 -2.09282227 17.08583984 -2.08789062 15.71484375 C-2.07532227 14.30912109 -2.07532227 14.30912109 -2.0625 12.875 C-2.05798828 11.93011719 -2.05347656 10.98523437 -2.04882812 10.01171875 C-2.03702357 7.67441613 -2.02055759 5.33723939 -2 3 C-3.75048992 3.11794081 -5.5003718 3.24489944 -7.25 3.375 C-8.22453125 3.44460937 -9.1990625 3.51421875 -10.203125 3.5859375 C-19.61668302 4.61251893 -28.94529564 6.50886451 -38.265625 8.1640625 C-41.73781318 8.77555262 -45.21020877 9.38585563 -48.68261719 9.99609375 C-51.06843128 10.41669717 -53.45384753 10.8395633 -55.83886719 11.26464844 C-59.31336889 11.88329085 -62.7893085 12.49321183 -66.265625 13.1015625 C-67.32412659 13.2921524 -68.38262817 13.48274231 -69.47320557 13.67910767 C-75.07588576 14.65077587 -80.31379715 15.20653921 -86 15 C-86 14.67 -86 14.34 -86 14 C-69.70726471 10.73531797 -53.37575878 7.82992744 -36.97949219 5.14404297 C-36.25688202 5.02553986 -35.53427185 4.90703674 -34.7897644 4.78494263 C-33.35152038 4.54934043 -31.91314647 4.31452969 -30.47463989 4.08053589 C-26.76782995 3.47335277 -23.06913963 2.83628455 -19.37548828 2.15332031 C-18.23733421 1.94462814 -18.23733421 1.94462814 -17.07618713 1.73171997 C-15.64055557 1.46668907 -14.20583871 1.19662923 -12.77232361 0.92037964 C-8.4622597 0.12661338 -4.37805925 -0.12004413 0 0 Z " fill="#046E32" transform="translate(182,53)"/>
<path d="M0 0 C1.6874269 0.00015917 3.37485866 0.00585622 5.06225586 0.01586914 C6.39189613 0.01799156 6.39189613 0.01799156 7.74839783 0.02015686 C10.59133215 0.02577324 13.43418892 0.03832848 16.27709961 0.05102539 C18.19962452 0.05603828 20.12215065 0.06060155 22.04467773 0.06469727 C26.7680151 0.07574798 31.49129419 0.09302356 36.21459961 0.11352539 C35.88459961 3.41352539 35.55459961 6.71352539 35.21459961 10.11352539 C25.97459961 10.11352539 16.73459961 10.11352539 7.21459961 10.11352539 C6.88459961 17.37352539 6.55459961 24.63352539 6.21459961 32.11352539 C15.12459961 32.11352539 24.03459961 32.11352539 33.21459961 32.11352539 C33.21459961 35.41352539 33.21459961 38.71352539 33.21459961 42.11352539 C24.30459961 42.11352539 15.39459961 42.11352539 6.21459961 42.11352539 C6.54459961 45.41352539 6.87459961 48.71352539 7.21459961 52.11352539 C6.88459961 57.06352539 6.55459961 62.01352539 6.21459961 67.11352539 C16.44459961 67.11352539 26.67459961 67.11352539 37.21459961 67.11352539 C37.21459961 70.08352539 37.21459961 73.05352539 37.21459961 76.11352539 C32.59277055 77.28417272 28.14523241 77.24150231 23.41381836 77.21118164 C22.57744339 77.20976669 21.74106842 77.20835175 20.87934875 77.20689392 C18.22022861 77.20131723 15.5611941 77.18876904 12.90209961 77.17602539 C11.09415812 77.17100738 9.28621531 77.166445 7.47827148 77.16235352 C3.05701476 77.15135543 -1.36417832 77.13410689 -5.78540039 77.11352539 C-5.67820679 75.85678764 -5.67820679 75.85678764 -5.56884766 74.57466125 C-4.87128763 65.76541483 -4.66563706 57.05710949 -4.72290039 48.21899414 C-4.72732064 46.85134559 -4.73113323 45.48369495 -4.734375 44.11604309 C-4.74563566 39.84433933 -4.76496236 35.57269373 -4.78540039 31.30102539 C-4.8090502 26.30020396 -4.82934282 21.29941176 -4.84133911 16.29854774 C-4.84782106 14.30588181 -4.86039624 12.31323873 -4.87304688 10.32060242 C-4.8763501 9.12457901 -4.87965332 7.9285556 -4.88305664 6.69628906 C-4.88829346 5.6393132 -4.89353027 4.58233734 -4.89892578 3.49333191 C-4.71077788 -0.45076895 -4.14503451 0.12431093 0 0 Z " fill="#037033" transform="translate(343.785400390625,122.886474609375)"/>
<path d="M0 0 C5.14810224 3.97723422 8.02990524 11.35299883 9.1640625 17.671875 C9.25515086 19.56597717 9.29412601 21.46309061 9.2890625 23.359375 C9.29292969 24.81923828 9.29292969 24.81923828 9.296875 26.30859375 C9.1640625 28.671875 9.1640625 28.671875 8.1640625 29.671875 C5.42512165 29.76046146 2.7115298 29.78710979 -0.02734375 29.76953125 C-0.84718246 29.7681163 -1.66702118 29.76670135 -2.51170349 29.76524353 C-5.14065132 29.75962789 -7.76951523 29.74707279 -10.3984375 29.734375 C-12.17643107 29.72936201 -13.95442596 29.72479876 -15.73242188 29.72070312 C-20.10029295 29.70965339 -24.46810098 29.69237831 -28.8359375 29.671875 C-28.39175758 31.11305493 -27.93808351 32.55131079 -27.48046875 33.98828125 C-27.22885986 34.78951416 -26.97725098 35.59074707 -26.71801758 36.41625977 C-25.01725 40.7653856 -22.20965826 42.96904112 -18.1484375 45.046875 C-10.90493266 46.41357403 -4.77632556 45.1662378 1.5703125 41.51171875 C3.1640625 40.671875 3.1640625 40.671875 5.1640625 40.671875 C5.1640625 43.971875 5.1640625 47.271875 5.1640625 50.671875 C-5.19538949 55.45316053 -12.47125459 57.7813403 -23.8359375 54.671875 C-30.42371394 51.71606915 -35.02109362 47.34234537 -37.8359375 40.671875 C-40.71791657 31.14617576 -40.60932518 21.2230069 -37.8359375 11.671875 C-29.08754453 -1.53369379 -14.85772875 -6.67871846 0 0 Z M-23.8359375 9.671875 C-26.95023626 13.54370589 -27.84160083 15.70019165 -28.8359375 20.671875 C-19.9259375 20.671875 -11.0159375 20.671875 -1.8359375 20.671875 C-2.61306734 12.50758802 -2.61306734 12.50758802 -7.8359375 7.671875 C-13.17545846 5.00211452 -19.14507298 6.47355828 -23.8359375 9.671875 Z " fill="#096F37" transform="translate(517.8359375,145.328125)"/>
<path d="M0 0 C3.63 0 7.26 0 11 0 C14.96 6.93 18.92 13.86 23 21 C23.66 19.35 24.32 17.7 25 16 C26.03450253 13.56152975 26.89458415 12.10178082 28.8125 10.25 C30.92919768 8.07282524 31.79307347 6.42326598 33.125 3.75 C34.36328125 1.640625 34.36328125 1.640625 36 0 C39.42684655 -0.69484446 42.55252886 -0.48197655 46 0 C45.4997855 5.5023595 45.4997855 5.5023595 43.1796875 7.8125 C39.80125329 11.2030433 37.8715576 15.34361976 35.5859375 19.515625 C35.06257813 20.33546875 34.53921875 21.1553125 34 22 C33.34 22 32.68 22 32 22 C31.505 24.475 31.505 24.475 31 27 C30.34 27 29.68 27 29 27 C29.29769287 27.46897705 29.59538574 27.9379541 29.90209961 28.42114258 C31.2505383 30.5495218 32.59406226 32.68096099 33.9375 34.8125 C34.40607422 35.55048828 34.87464844 36.28847656 35.35742188 37.04882812 C35.80537109 37.76103516 36.25332031 38.47324219 36.71484375 39.20703125 C37.12855225 39.8616333 37.54226074 40.51623535 37.96850586 41.19067383 C39 43 39 43 40 46 C40.66 46 41.32 46 42 46 C46.09326923 52.45 46.09326923 52.45 45.62109375 55.234375 C45.41613281 55.81703125 45.21117187 56.3996875 45 57 C41.4847913 57.17367632 38.37756818 57.03847619 35 56 C31.77296568 52.77296568 29.83634808 48.925624 28.03125 44.76953125 C27.05845737 42.65258361 27.05845737 42.65258361 24 42 C23.34 41.01 22.68 40.02 22 39 C19.07623885 41.92376115 16.58097256 44.8069966 14.7578125 48.55078125 C13.35673196 51.34898447 12.0959454 53.66969783 10 56 C6.52061513 56.97958066 3.49712963 56.88057221 0 56 C-0.66 55.34 -1.32 54.68 -2 54 C-1.21718695 52.66144944 -0.42348123 51.32926356 0.375 50 C0.81585938 49.2575 1.25671875 48.515 1.7109375 47.75 C2.34902344 46.88375 2.34902344 46.88375 3 46 C3.66 46 4.32 46 5 46 C5.24363281 45.28972656 5.48726563 44.57945312 5.73828125 43.84765625 C7.62296753 39.5939835 10.54276767 36.25160159 13.41796875 32.62109375 C15.17383768 30.235919 15.17383768 30.235919 14.96875 28.078125 C13.56474054 25.06629825 11.98608776 22.17990855 10.3125 19.3125 C9.77882813 18.38473755 9.77882813 18.38473755 9.234375 17.43823242 C6.69716882 13.0714414 3.98066989 8.8720488 1.03125 4.76953125 C0 3 0 3 0 0 Z " fill="#087036" transform="translate(384,144)"/>
<path d="M0 0 C0.495 0.99 0.495 0.99 1 2 C4.02934491 2.65772428 4.02934491 2.65772428 7 3 C7 6.63 7 10.26 7 14 C5.68 13.505 4.36 13.01 3 12.5 C-3.49576902 10.36524023 -9.74210826 9.97233727 -16.16796875 12.72265625 C-20.14849243 15.49798939 -21.72924476 19.44057726 -23 24 C-23.83641417 31.32666646 -24.01682629 37.5958147 -20 44 C-18.515 44.495 -18.515 44.495 -17 45 C-16.53078125 45.49886719 -16.0615625 45.99773437 -15.578125 46.51171875 C-12.67839499 49.24636513 -8.83230513 49.01268975 -5 49 C-2.41226579 48.60704777 -0.46402867 47.97534468 2 47 C2.495 46.01 2.495 46.01 3 45 C4.65 45 6.3 45 8 45 C7.88601335 46.62580966 7.75844341 48.25067157 7.625 49.875 C7.55539062 50.77992188 7.48578125 51.68484375 7.4140625 52.6171875 C7 55 7 55 5 57 C-3.07692083 59.64335591 -12.11894612 60.6041746 -20.08984375 57.1015625 C-26.83049735 53.21431441 -31.34497922 48.3047463 -34 41 C-34.25910156 40.34644531 -34.51820313 39.69289062 -34.78515625 39.01953125 C-37.56822361 30.13704679 -34.74704705 19.73170692 -30.5625 11.6875 C-28.74669107 8.54129641 -27.26333473 7.50216996 -24 6 C-23.12085938 5.32453125 -22.24171875 4.6490625 -21.3359375 3.953125 C-17.07033299 1.45569847 -13.48187156 1.12181792 -8.625 0.75 C-7.37783203 0.63398438 -7.37783203 0.63398438 -6.10546875 0.515625 C-4.07164815 0.32860701 -2.03595073 0.16219314 0 0 Z " fill="#0A6F37" transform="translate(467,142)"/>
<path d="M0 0 C3.3 0 6.6 0 10 0 C11.37873984 2.75747969 11.12721359 4.97730399 11.12939453 8.06347656 C11.13254669 9.33950745 11.13569885 10.61553833 11.13894653 11.93023682 C11.13715441 13.33369989 11.13510288 14.73716265 11.1328125 16.140625 C11.13348664 17.5839642 11.13445758 19.02730328 11.13571167 20.47064209 C11.1371891 23.50713168 11.1350364 26.54359194 11.13037109 29.58007812 C11.12473482 33.43267342 11.12791319 37.2851981 11.13394356 41.13779068 C11.13760058 44.12706 11.13638627 47.11631332 11.13381577 50.10558319 C11.1331574 51.52304849 11.13393589 52.94051533 11.13629532 54.35797882 C11.14831616 63.62758973 10.7878306 72.7654798 10 82 C6.7 81.67 3.4 81.34 0 81 C-1.2278228 66.13047853 -1.15465373 51.24586266 -1.13037109 36.33813477 C-1.12459163 32.73701274 -1.12801902 29.13596393 -1.13394356 25.5348444 C-1.13754549 22.74425191 -1.13641372 19.95367703 -1.13381577 17.16308403 C-1.13282738 15.18986335 -1.13585626 13.21664197 -1.13894653 11.24342346 C-1.13579437 10.05715866 -1.13264221 8.87089386 -1.12939453 7.64868164 C-1.12859894 6.60297501 -1.12780334 5.55726837 -1.12698364 4.47987366 C-1 2 -1 2 0 0 Z " fill="#077037" transform="translate(535,118)"/>
<path d="M0 0 C0.99 0 1.98 0 3 0 C4.153815 26.21396324 4.25256886 52.43398703 4.29516602 78.66943359 C4.30640445 84.83912977 4.34110242 91.00848237 4.38033772 97.17805481 C4.40642293 101.97186968 4.41484859 106.76559916 4.41844749 111.55947876 C4.42330185 113.83682694 4.43488275 116.1141716 4.45348549 118.39144897 C4.47779562 121.55292578 4.47693153 124.71345866 4.4699707 127.875 C4.48278076 128.8016597 4.49559082 129.7283194 4.50878906 130.68305969 C4.46104961 136.63096617 3.37985579 140.08243766 0 145 C-1.65 144.67 -3.3 144.34 -5 144 C-5 143.34 -5 142.68 -5 142 C-4.01 142 -3.02 142 -2 142 C-2.00333092 140.0582489 -2.00333092 140.0582489 -2.00672913 138.07727051 C-2.02722525 125.7256782 -2.04209722 113.37408944 -2.05181217 101.02248383 C-2.05697499 94.67627744 -2.06394853 88.33008505 -2.07543945 81.98388672 C-2.16160068 33.04852313 -2.16160068 33.04852313 -1.55859375 13.53125 C-1.51960464 12.23022339 -1.48061554 10.92919678 -1.44044495 9.58874512 C-1.13350584 1.13350584 -1.13350584 1.13350584 0 0 Z " fill="#037032" transform="translate(263,96)"/>
<path d="M0 0 C4.29 0 8.58 0 13 0 C13 0.99 13 1.98 13 3 C14.04800781 2.9278125 15.09601563 2.855625 16.17578125 2.78125 C17.5546839 2.6874471 18.93359035 2.59370001 20.3125 2.5 C21.00279297 2.45230469 21.69308594 2.40460938 22.40429688 2.35546875 C25.27662359 2.16120511 28.12013788 2 31 2 C31.495 11.405 31.495 11.405 32 21 C27.43081016 22.82767594 25.29121586 23.25605823 20.5625 23.265625 C19.33789062 23.26820313 18.11328125 23.27078125 16.8515625 23.2734375 C15.58054688 23.26570313 14.30953125 23.25796875 13 23.25 C11.09347656 23.26160156 11.09347656 23.26160156 9.1484375 23.2734375 C7.31152344 23.26957031 7.31152344 23.26957031 5.4375 23.265625 C3.76494141 23.26224121 3.76494141 23.26224121 2.05859375 23.25878906 C-1.01370875 22.9988401 -3.22322051 22.30177698 -6 21 C-7.125 14.25 -7.125 14.25 -6 12 C-5.77721336 10.63027471 -5.5931895 9.25396412 -5.4375 7.875 C-5.293125 6.59625 -5.14875 5.3175 -5 4 C-3.02 3.34 -1.04 2.68 1 2 C0.67 1.34 0.34 0.68 0 0 Z M3 2 C3 2.33 3 2.66 3 3 C5.97 3 8.94 3 12 3 C12 2.67 12 2.34 12 2 C9.03 2 6.06 2 3 2 Z " fill="#036F34" transform="translate(213,201)"/>
<path d="M0 0 C0.66 0.33 1.32 0.66 2 1 C3.77822808 1.08472959 5.55962383 1.10720915 7.33984375 1.09765625 C8.40267578 1.09443359 9.46550781 1.09121094 10.56054688 1.08789062 C11.67494141 1.07951172 12.78933594 1.07113281 13.9375 1.0625 C15.04802734 1.05798828 16.15855469 1.05347656 17.30273438 1.04882812 C19.36451269 1.04008648 21.42628401 1.0293002 23.48803711 1.01586914 C25.32532902 1.00426218 27.16267142 1 29 1 C31.08229108 4.12343663 31.23770457 4.53852922 30.9765625 8.01171875 C30.925 8.76904297 30.8734375 9.52636719 30.8203125 10.30664062 C30.75585938 11.09232422 30.69140625 11.87800781 30.625 12.6875 C30.53992188 13.88342773 30.53992188 13.88342773 30.453125 15.10351562 C30.31183972 17.06973581 30.15720094 19.03498824 30 21 C26.40537669 23.25998595 23.43404325 23.20868087 19.25 23.125 C18.07953125 23.10695312 16.9090625 23.08890625 15.703125 23.0703125 C14.81109375 23.04710937 13.9190625 23.02390625 13 23 C13 22.34 13 21.68 13 21 C10.22882696 21.14080555 7.45817359 21.28743118 4.6875 21.4375 C3.90181641 21.47681641 3.11613281 21.51613281 2.30664062 21.55664062 C1.54931641 21.59853516 0.79199219 21.64042969 0.01171875 21.68359375 C-1.03302612 21.73858032 -1.03302612 21.73858032 -2.09887695 21.79467773 C-4.2216572 21.95581153 -4.2216572 21.95581153 -7 23 C-7.11368403 16.24211575 -6.97196778 9.69577806 -6 3 C-5 2 -5 2 -2.4375 1.9375 C-1.2309375 1.9684375 -1.2309375 1.9684375 0 2 C0 1.34 0 0.68 0 0 Z " fill="#066E36" transform="translate(214,148)"/>
<path d="M0 0 C0.98396507 0.00424484 0.98396507 0.00424484 1.98780823 0.00857544 C4.05587034 0.01965266 6.12347798 0.04473187 8.19140625 0.0703125 C9.6048114 0.08035848 11.01822342 0.08948148 12.43164062 0.09765625 C15.87254019 0.11955066 19.31317877 0.15399199 22.75390625 0.1953125 C22.767543 1.92055047 22.77716557 3.64582039 22.78515625 5.37109375 C22.79095703 6.33184814 22.79675781 7.29260254 22.80273438 8.2824707 C22.73527003 12.30705595 22.27708741 16.20605616 21.75390625 20.1953125 C17.69752148 21.16281119 13.90305167 21.32428802 9.73828125 21.328125 C8.75362885 21.32956009 8.75362885 21.32956009 7.74908447 21.33102417 C6.37080794 21.3317013 4.99252813 21.32987973 3.61425781 21.32568359 C1.49667312 21.32029409 -0.62070279 21.32566186 -2.73828125 21.33203125 C-4.07942755 21.33137106 -5.42057373 21.33009112 -6.76171875 21.328125 C-7.98149414 21.32699707 -9.20126953 21.32586914 -10.45800781 21.32470703 C-13.24609375 21.1953125 -13.24609375 21.1953125 -14.24609375 20.1953125 C-14.28702312 17.86233817 -14.28851098 15.52826025 -14.24609375 13.1953125 C-14.90609375 12.8653125 -15.56609375 12.5353125 -16.24609375 12.1953125 C-15.91609375 11.8653125 -15.58609375 11.5353125 -15.24609375 11.1953125 C-15.0141651 9.68061802 -14.83394137 8.15776688 -14.68359375 6.6328125 C-14.59980469 5.80652344 -14.51601562 4.98023437 -14.4296875 4.12890625 C-14.36910156 3.49082031 -14.30851563 2.85273437 -14.24609375 2.1953125 C-9.32150792 0.59889601 -5.23016174 -0.04489409 0 0 Z " fill="#027134" transform="translate(222.24609375,121.8046875)"/>
<path d="M0 0 C1.47583955 0.0001591 2.95168467 0.00585225 4.42749023 0.01586914 C5.20293686 0.01728409 5.97838348 0.01869904 6.77732849 0.02015686 C9.26361893 0.02577194 11.74982059 0.03832693 14.23608398 0.05102539 C15.91772331 0.05603845 17.59936405 0.06060169 19.28100586 0.06469727 C23.41189965 0.07574626 27.54272674 0.09302094 31.67358398 0.11352539 C33.33772053 3.44179849 32.49225805 7.11086512 32.23608398 10.73852539 C32.18387695 11.54032227 32.13166992 12.34211914 32.07788086 13.16821289 C31.94810027 15.15031642 31.81148664 17.13197038 31.67358398 19.11352539 C26.7440114 19.1876686 21.81476317 19.24212356 16.88476562 19.27832031 C15.20762478 19.29340923 13.53052341 19.31388287 11.85351562 19.33984375 C9.44317895 19.3762235 7.0333638 19.39325025 4.62280273 19.40649414 C3.87270432 19.421978 3.1226059 19.43746185 2.34977722 19.45341492 C-2.81240174 19.45508474 -2.81240174 19.45508474 -5.31152344 17.79443359 C-6.84158223 15.26028522 -6.51886013 13.00018711 -6.32641602 10.11352539 C-5.66641602 10.11352539 -5.00641602 10.11352539 -4.32641602 10.11352539 C-4.33801758 9.47543945 -4.34961914 8.83735352 -4.36157227 8.17993164 C-4.3705957 7.35364258 -4.37961914 6.52735352 -4.38891602 5.67602539 C-4.40051758 4.85231445 -4.41211914 4.02860352 -4.42407227 3.17993164 C-4.25929356 -0.30678583 -3.59120249 0.12256214 0 0 Z " fill="#027034" transform="translate(212.326416015625,176.886474609375)"/>
<path d="M0 0 C1.12276085 -0.0049926 1.12276085 -0.0049926 2.26820374 -0.01008606 C3.85449609 -0.01515818 5.44079915 -0.0174943 7.02709961 -0.01733398 C9.45899994 -0.01951898 11.89044574 -0.03766706 14.32226562 -0.05664062 C15.86067553 -0.05957474 17.39908759 -0.06155942 18.9375 -0.0625 C20.03287331 -0.07327827 20.03287331 -0.07327827 21.15037537 -0.08427429 C26.30633318 -0.06085432 26.30633318 -0.06085432 28.53515625 2.16796875 C28.51767406 5.08749443 28.39570992 7.8909476 28.16015625 10.79296875 C28.07507813 11.99566406 28.07507813 11.99566406 27.98828125 13.22265625 C27.84667643 15.20512373 27.69213366 17.18665926 27.53515625 19.16796875 C26.89578125 19.29171875 26.25640625 19.41546875 25.59765625 19.54296875 C24.91703125 19.74921875 24.23640625 19.95546875 23.53515625 20.16796875 C23.20515625 20.82796875 22.87515625 21.48796875 22.53515625 22.16796875 C18.57515625 22.16796875 14.61515625 22.16796875 10.53515625 22.16796875 C10.53515625 21.17796875 10.53515625 20.18796875 10.53515625 19.16796875 C9.69210938 19.25175781 8.8490625 19.33554688 7.98046875 19.421875 C6.88476562 19.52371094 5.7890625 19.62554687 4.66015625 19.73046875 C3.02433594 19.88708984 3.02433594 19.88708984 1.35546875 20.046875 C-1.46484375 20.16796875 -1.46484375 20.16796875 -3.46484375 19.16796875 C-3.79484375 19.82796875 -4.12484375 20.48796875 -4.46484375 21.16796875 C-4.46484375 20.50796875 -4.46484375 19.84796875 -4.46484375 19.16796875 C-5.45484375 19.49796875 -6.44484375 19.82796875 -7.46484375 20.16796875 C-8.45484375 17.19796875 -9.44484375 14.22796875 -10.46484375 11.16796875 C-9.80484375 11.16796875 -9.14484375 11.16796875 -8.46484375 11.16796875 C-8.47644531 10.45769531 -8.48804688 9.74742188 -8.5 9.015625 C-8.50902344 8.09652344 -8.51804688 7.17742187 -8.52734375 6.23046875 C-8.53894531 5.31394531 -8.55054688 4.39742188 -8.5625 3.453125 C-8.35118027 -1.49175676 -3.89484134 0.00591893 0 0 Z " fill="#066E34" transform="translate(216.46484375,95.83203125)"/>
<path d="M0 0 C1.6874269 0.00015917 3.37485866 0.00585622 5.06225586 0.01586914 C6.39189613 0.01799156 6.39189613 0.01799156 7.74839783 0.02015686 C10.59133215 0.02577324 13.43418892 0.03832848 16.27709961 0.05102539 C18.19962452 0.05603828 20.12215065 0.06060155 22.04467773 0.06469727 C26.7680151 0.07574798 31.49129419 0.09302356 36.21459961 0.11352539 C35.88459961 3.41352539 35.55459961 6.71352539 35.21459961 10.11352539 C25.97459961 10.11352539 16.73459961 10.11352539 7.21459961 10.11352539 C6.88459961 17.37352539 6.55459961 24.63352539 6.21459961 32.11352539 C9.51459961 32.11352539 12.81459961 32.11352539 16.21459961 32.11352539 C19.33959961 32.61352539 19.33959961 32.61352539 21.21459961 33.11352539 C21.21459961 33.44352539 21.21459961 33.77352539 21.21459961 34.11352539 C15.93459961 34.11352539 10.65459961 34.11352539 5.21459961 34.11352539 C4.21454657 31.11336627 4.09884376 29.13928783 4.11694336 26.00805664 C4.12016602 25.02514648 4.12338867 24.04223633 4.12670898 23.02954102 C4.13508789 22.00538086 4.1434668 20.9812207 4.15209961 19.92602539 C4.15886719 18.37238281 4.15886719 18.37238281 4.16577148 16.78735352 C4.17755951 14.22935273 4.19401446 11.67146806 4.21459961 9.11352539 C3.88459961 9.77352539 3.55459961 10.43352539 3.21459961 11.11352539 C2.55459961 10.78352539 1.89459961 10.45352539 1.21459961 10.11352539 C1.21459961 8.79352539 1.21459961 7.47352539 1.21459961 6.11352539 C-0.10540039 6.11352539 -1.42540039 6.11352539 -2.78540039 6.11352539 C-2.78540039 20.30352539 -2.78540039 34.49352539 -2.78540039 49.11352539 C-3.77540039 49.60852539 -3.77540039 49.60852539 -4.78540039 50.11352539 C-4.81066877 43.15349092 -4.82823261 36.19346819 -4.84033203 29.23339844 C-4.8453738 26.86360227 -4.85220704 24.49380924 -4.86083984 22.12402344 C-4.87291229 18.725985 -4.8786301 15.32798754 -4.88305664 11.92993164 C-4.88821793 10.86327774 -4.89337921 9.79662384 -4.8986969 8.69764709 C-4.89877243 7.71670578 -4.89884796 6.73576447 -4.89892578 5.72509766 C-4.90114639 4.85683853 -4.903367 3.98857941 -4.90565491 3.0940094 C-4.68602915 -0.52302985 -3.7897745 0.11365657 0 0 Z " fill="#0C6F39" transform="translate(343.785400390625,122.886474609375)"/>
<path d="M0 0 C2.59728103 -0.29181109 4.95610363 -0.38883773 7.55493164 -0.35644531 C8.33390305 -0.35848969 9.11287445 -0.36053406 9.91545105 -0.36264038 C12.49725611 -0.36565521 15.07842683 -0.34715214 17.66015625 -0.328125 C19.44852032 -0.32506876 21.23688677 -0.32319161 23.0252533 -0.32244873 C26.77547292 -0.31784141 30.52547831 -0.30339815 34.27563477 -0.28125 C39.0935806 -0.25294687 43.91135764 -0.24203702 48.7293787 -0.2375679 C52.42241622 -0.23342018 56.11541928 -0.22360848 59.80843925 -0.21169281 C61.58553222 -0.20597789 63.36262854 -0.20122325 65.13972664 -0.19742584 C67.61803195 -0.19058527 70.0962008 -0.17696404 72.57446289 -0.16113281 C73.31578461 -0.16001495 74.05710632 -0.15889709 74.82089233 -0.15774536 C79.88531279 -0.11468721 79.88531279 -0.11468721 81 1 C81.096708 2.98694851 81.12187052 4.97739013 81.12025452 6.96669006 C81.12231651 8.91242165 81.12231651 8.91242165 81.12442017 10.89746094 C81.12088055 12.3483889 81.11724573 13.79931663 81.11352539 15.25024414 C81.11324353 16.76761371 81.11340123 18.28498342 81.1139679 19.80235291 C81.11425591 23.93440516 81.10835858 28.06642863 81.10139394 32.19847417 C81.09516102 36.51198892 81.09455665 40.82550427 81.09336853 45.13902283 C81.09025503 53.31300117 81.08204139 61.48696621 81.07201904 69.66093868 C81.06085848 78.96428969 81.0553476 88.26764132 81.05032361 97.57099736 C81.03985879 116.71400579 81.02225899 135.85700183 81 155 C80.67 155 80.34 155 80 155 C79.0258137 147.2172492 78.86868593 139.54354689 78.90234375 131.70678711 C78.90458522 129.72055662 78.90682643 127.73432613 78.90905762 125.74809563 C78.9124088 123.63256549 78.91825587 121.51705557 78.92483521 119.40153313 C78.93845965 114.97501236 78.94427298 110.5485015 78.94897461 106.1219635 C78.9600315 96.72712875 78.97956899 87.33231834 79 77.9375 C79.02206521 67.78850609 79.04263387 57.63952224 79.05341816 47.49050909 C79.05837559 43.09744934 79.06819715 38.70443648 79.08184814 34.31139553 C79.08753543 32.23415062 79.09089476 30.15691732 79.0932312 28.07966614 C79.09608159 25.55727422 79.10249673 23.03488255 79.11331177 20.51251221 C79.11341751 18.82438667 79.11341751 18.82438667 79.11352539 17.10215759 C79.115746 16.13527984 79.11796661 15.16840208 79.12025452 14.172225 C78.9659048 10.10059392 78.4499594 6.04963456 78 2 C52.92 2 27.84 2 2 2 C2 5.96 2 9.92 2 14 C5.96 14 9.92 14 14 14 C14 14.66 14 15.32 14 16 C13.01 16 12.02 16 11 16 C10.67 16.66 10.34 17.32 10 18 C10 17.34 10 16.68 10 16 C9.01 16.33 8.02 16.66 7 17 C4.66700175 17.03954234 2.33291811 17.04401732 0 17 C-0.66 14.69 -1.32 12.38 -2 10 C-1.34 10 -0.68 10 0 10 C0 8.02 0 6.04 0 4 C-0.66 3.67 -1.32 3.34 -2 3 C-1.34 2.01 -0.68 1.02 0 0 Z " fill="#206E45" transform="translate(180,82)"/>
<path d="M0 0 C1.65 0 3.3 0 5 0 C5.70574812 5.92324316 6.04411573 11.69684267 5.96875 17.66015625 C6.01135874 20.85048575 6.45384684 23.85961931 7 27 C7.66 27 8.32 27 9 27 C9 28.32 9 29.64 9 31 C16.63545993 33.74049239 23.91700056 34.63259093 32 35 C31.01 35.495 31.01 35.495 30 36 C30.33 36.99 30.66 37.98 31 39 C25.3598959 42.7600694 17.61037052 41.4210275 11.125 40.375 C4.76801012 37.57792445 0.60655207 33.50744406 -2.21484375 27.15625 C-3.52921113 23.54664406 -4.80227801 19.85557881 -5 16 C-4.34 15.01 -3.68 14.02 -3 13 C-2.58419071 11.34763368 -2.23460655 9.67777815 -1.9375 8 C-1.43489906 5.20869559 -0.89946977 2.6984093 0 0 Z " fill="#037033" transform="translate(436,158)"/>
<path d="M0 0 C2.38067113 3.5710067 2.25121103 5.10627685 2.25396729 9.34559631 C2.25708727 9.99194973 2.26020725 10.63830315 2.26342177 11.30424303 C2.27141026 13.47383568 2.265075 15.64314931 2.25878906 17.81274414 C2.26149853 19.36657373 2.26505921 20.92040204 2.26940918 22.47422791 C2.27854003 26.69722229 2.27498627 30.92011915 2.26865101 35.14311528 C2.26359552 39.55711843 2.26828112 43.97111311 2.27142334 48.38511658 C2.27506392 55.79720564 2.27026108 63.20925487 2.26074219 70.62133789 C2.24985345 79.19932338 2.25338588 87.77721382 2.264395 96.35519701 C2.27346048 103.71234867 2.2747569 111.06947166 2.26951766 118.4266271 C2.2663944 122.82419388 2.26599843 127.22171593 2.27259064 131.61927986 C2.27835289 135.75197759 2.27438789 139.88455232 2.26280212 144.01723671 C2.26014968 145.53703863 2.26093053 147.05685084 2.26532745 148.57664871 C2.27076141 150.64503635 2.26397553 152.71302536 2.25396729 154.78138733 C2.25321323 155.94079362 2.25245918 157.10019991 2.25168228 158.29473972 C2 161 2 161 0 163 C0 162.01 0 161.02 0 160 C-0.66 159.67 -1.32 159.34 -2 159 C-1.67 158.01 -1.34 157.02 -1 156 C-0.8965747 153.90751491 -0.85356077 151.81187959 -0.84178162 149.71687317 C-0.82709839 147.74177513 -0.82709839 147.74177513 -0.81211853 145.72677612 C-0.80621429 144.26422155 -0.80040385 142.8016666 -0.79467773 141.33911133 C-0.78509938 139.80173987 -0.77508933 138.26437105 -0.76467896 136.727005 C-0.73761915 132.54964678 -0.7166154 128.37227724 -0.69667697 124.19487977 C-0.67482407 119.83063837 -0.64743197 115.46643188 -0.62062073 111.10221863 C-0.57068444 102.83625086 -0.52574907 94.57026372 -0.48259836 86.30425805 C-0.433234 76.89442913 -0.3783129 67.48463524 -0.32291877 58.07484019 C-0.20908435 38.71659263 -0.10224847 19.35831204 0 0 Z " fill="#266E48" transform="translate(267,78)"/>
<path d="M0 0 C0.02752977 1.97908485 0.04663002 3.95828731 0.0625 5.9375 C0.07410156 7.03964844 0.08570313 8.14179687 0.09765625 9.27734375 C0.02221425 12.15319284 -0.17632341 14.88332024 -0.50610352 17.73266602 C-0.59803482 18.53438736 -0.68996613 19.3361087 -0.78468323 20.16212463 C-0.85573776 20.7686235 -0.9267923 21.37512238 -1 22 C0.0353891 21.99777939 1.0707782 21.99555878 2.13754272 21.99327087 C11.87900589 21.97302891 21.6204648 21.95802275 31.3619442 21.94818783 C36.3705368 21.94296169 41.37911246 21.9358689 46.38769531 21.92456055 C51.21817822 21.91372214 56.04864482 21.90772113 60.87913895 21.90512276 C62.72518801 21.90327024 64.57123615 21.89965291 66.41727829 21.89426994 C68.99614161 21.88704688 71.57493685 21.8860096 74.15380859 21.88647461 C75.30718971 21.8810817 75.30718971 21.8810817 76.48387146 21.87557983 C81.77189568 21.88594784 81.77189568 21.88594784 84 23 C83.67 23.66 83.34 24.32 83 25 C82.34 24.67 81.68 24.34 81 24 C78.37676082 23.87762246 75.77831268 23.81432246 73.15380859 23.79467773 C72.34397018 23.78477814 71.53413177 23.77487854 70.69975281 23.76467896 C68.01601104 23.73302601 65.33225155 23.70829156 62.6484375 23.68359375 C60.7904107 23.6630275 58.93238861 23.64203111 57.07437134 23.62062073 C52.17862765 23.5653661 47.28284149 23.51597179 42.38702393 23.46777344 C37.39339407 23.41758315 32.39982605 23.3618842 27.40625 23.30664062 C17.60421747 23.19901756 7.80213256 23.09809071 -2 23 C-2 16.4 -2 9.8 -2 3 C-4.59875 3.185625 -4.59875 3.185625 -7.25 3.375 C-8.22453125 3.44460937 -9.1990625 3.51421875 -10.203125 3.5859375 C-19.61668302 4.61251893 -28.94529564 6.50886451 -38.265625 8.1640625 C-41.73781318 8.77555262 -45.21020877 9.38585563 -48.68261719 9.99609375 C-51.06843128 10.41669717 -53.45384753 10.8395633 -55.83886719 11.26464844 C-59.31336889 11.88329085 -62.7893085 12.49321183 -66.265625 13.1015625 C-67.32412659 13.2921524 -68.38262817 13.48274231 -69.47320557 13.67910767 C-75.07588576 14.65077587 -80.31379715 15.20653921 -86 15 C-86 14.67 -86 14.34 -86 14 C-69.70726471 10.73531797 -53.37575878 7.82992744 -36.97949219 5.14404297 C-36.25688202 5.02553986 -35.53427185 4.90703674 -34.7897644 4.78494263 C-33.35152038 4.54934043 -31.91314647 4.31452969 -30.47463989 4.08053589 C-26.76782995 3.47335277 -23.06913963 2.83628455 -19.37548828 2.15332031 C-18.23733421 1.94462814 -18.23733421 1.94462814 -17.07618713 1.73171997 C-15.64055557 1.46668907 -14.20583871 1.19662923 -12.77232361 0.92037964 C-8.4622597 0.12661338 -4.37805925 -0.12004413 0 0 Z " fill="#256C47" transform="translate(182,53)"/>
<path d="M0 0 C0.495 2.475 0.495 2.475 1 5 C1.66 4.34 2.32 3.68 3 3 C3.19491452 4.45736087 3.38069358 5.91594593 3.5625 7.375 C3.71912109 8.59316406 3.71912109 8.59316406 3.87890625 9.8359375 C4 12 4 12 3 14 C-15.81 14.495 -15.81 14.495 -35 15 C-35 14.34 -35 13.68 -35 13 C-33.03277992 11.61876037 -31.03131672 10.28511874 -29 9 C-28.67 8.67 -28.34 8.34 -28 8 C-26.29436222 7.84259395 -24.58272756 7.74906608 -22.87109375 7.68359375 C-21.31938477 7.62075195 -21.31938477 7.62075195 -19.73632812 7.55664062 C-18.1034082 7.49766602 -18.1034082 7.49766602 -16.4375 7.4375 C-14.7987793 7.37272461 -14.7987793 7.37272461 -13.12695312 7.30664062 C-10.41810436 7.20017932 -7.70916008 7.09816484 -5 7 C-4.896875 6.21625 -4.79375 5.4325 -4.6875 4.625 C-4.00541465 2.02067414 -3.23533224 0 0 0 Z " fill="#027133" transform="translate(522,159)"/>
<path d="M0 0 C10.23 0 20.46 0 31 0 C31 2.31 31 4.62 31 7 C24.70354997 8.06280504 18.43733393 8.32111895 12.0625 8.5625 C10.46438477 8.62727539 10.46438477 8.62727539 8.83398438 8.69335938 C6.22276557 8.79874489 3.61146254 8.90087088 1 9 C-1.125 3.375 -1.125 3.375 0 0 Z " fill="#047034" transform="translate(349,191)"/>
<path d="M0 0 C2.97 0 5.94 0 9 0 C10.37873984 2.75747969 10.12721359 4.97730399 10.12939453 8.06347656 C10.13254669 9.33950745 10.13569885 10.61553833 10.13894653 11.93023682 C10.13715441 13.33369989 10.13510288 14.73716265 10.1328125 16.140625 C10.13348664 17.5839642 10.13445758 19.02730328 10.13571167 20.47064209 C10.1371891 23.50713168 10.1350364 26.54359194 10.13037109 29.58007812 C10.12473482 33.43267342 10.12791319 37.2851981 10.13394356 41.13779068 C10.13760058 44.12706 10.13638627 47.11631332 10.13381577 50.10558319 C10.1331574 51.52304849 10.13393589 52.94051533 10.13629532 54.35797882 C10.14831616 63.62758973 9.7878306 72.7654798 9 82 C5.7 81.67 2.4 81.34 -1 81 C-1 80.67 -1 80.34 -1 80 C1.64 80 4.28 80 7 80 C6.99777939 79.11130219 6.99555878 78.22260437 6.99327087 77.30697632 C6.97321108 68.92064442 6.95799685 60.5343206 6.94818783 52.1479702 C6.94297535 47.83675485 6.93590743 43.52555938 6.92456055 39.21435547 C6.91367351 35.05169098 6.90771084 30.88904558 6.90512276 26.72636795 C6.90327899 25.14040451 6.89967859 23.55444208 6.89426994 21.96848679 C6.88698229 19.74247757 6.88601231 17.51654662 6.88647461 15.29052734 C6.884254 14.02477875 6.88203339 12.75903015 6.87974548 11.45492554 C6.99268292 8.21022064 7.38327023 5.18351923 8 2 C5.36 2 2.72 2 0 2 C0 1.34 0 0.68 0 0 Z " fill="#1E6F47" transform="translate(536,118)"/>
<path d="M0 0 C0.98396507 0.00424484 0.98396507 0.00424484 1.98780823 0.00857544 C4.05587034 0.01965266 6.12347798 0.04473187 8.19140625 0.0703125 C9.6048114 0.08035848 11.01822342 0.08948148 12.43164062 0.09765625 C15.87254019 0.11955066 19.31317877 0.15399199 22.75390625 0.1953125 C22.42390625 1.5153125 22.09390625 2.8353125 21.75390625 4.1953125 C10.53390625 3.8653125 -0.68609375 3.5353125 -12.24609375 3.1953125 C-12.24609375 6.8253125 -12.24609375 10.4553125 -12.24609375 14.1953125 C-7.15141139 16.23318544 -3.40882584 17.25320268 2.00390625 17.1953125 C3.24140625 17.1953125 4.47890625 17.1953125 5.75390625 17.1953125 C6.08390625 17.5253125 6.41390625 17.8553125 6.75390625 18.1953125 C8.94030078 18.26790196 11.12891014 18.27905033 13.31640625 18.2578125 C14.51394531 18.24878906 15.71148437 18.23976562 16.9453125 18.23046875 C18.33556641 18.21306641 18.33556641 18.21306641 19.75390625 18.1953125 C20.08390625 14.2353125 20.41390625 10.2753125 20.75390625 6.1953125 C23.11964859 9.743926 22.8625589 10.771765 22.37890625 14.8828125 C22.26804688 15.87667969 22.1571875 16.87054688 22.04296875 17.89453125 C21.89988281 19.03341797 21.89988281 19.03341797 21.75390625 20.1953125 C17.69752148 21.16281119 13.90305167 21.32428802 9.73828125 21.328125 C8.75362885 21.32956009 8.75362885 21.32956009 7.74908447 21.33102417 C6.37080794 21.3317013 4.99252813 21.32987973 3.61425781 21.32568359 C1.49667312 21.32029409 -0.62070279 21.32566186 -2.73828125 21.33203125 C-4.07942755 21.33137106 -5.42057373 21.33009112 -6.76171875 21.328125 C-7.98149414 21.32699707 -9.20126953 21.32586914 -10.45800781 21.32470703 C-13.24609375 21.1953125 -13.24609375 21.1953125 -14.24609375 20.1953125 C-14.28702312 17.86233817 -14.28851098 15.52826025 -14.24609375 13.1953125 C-14.90609375 12.8653125 -15.56609375 12.5353125 -16.24609375 12.1953125 C-15.91609375 11.8653125 -15.58609375 11.5353125 -15.24609375 11.1953125 C-15.0141651 9.68061802 -14.83394137 8.15776688 -14.68359375 6.6328125 C-14.59980469 5.80652344 -14.51601562 4.98023437 -14.4296875 4.12890625 C-14.36910156 3.49082031 -14.30851563 2.85273437 -14.24609375 2.1953125 C-9.32150792 0.59889601 -5.23016174 -0.04489409 0 0 Z " fill="#156740" transform="translate(222.24609375,121.8046875)"/>
<path d="M0 0 C0.66 0.33 1.32 0.66 2 1 C1.67 1.66 1.34 2.32 1 3 C0.85022961 5.24655587 0.77849826 7.49863768 0.75 9.75 C0.72421875 10.96171875 0.6984375 12.1734375 0.671875 13.421875 C1.03017152 17.32901323 1.89066731 19.70786394 4 23 C4.99 23.33 5.98 23.66 7 24 C7.70382812 24.74830078 7.70382812 24.74830078 8.421875 25.51171875 C11.32160501 28.24636513 15.16769487 28.01268975 19 28 C21.58773421 27.60704777 23.53597133 26.97534468 26 26 C26.33 25.34 26.66 24.68 27 24 C28.65 24 30.3 24 32 24 C31.88601335 25.62580966 31.75844341 27.25067157 31.625 28.875 C31.55539062 29.77992188 31.48578125 30.68484375 31.4140625 31.6171875 C31 34 31 34 29 36 C20.85527334 38.66554691 12.02960019 39.47225954 4 36 C7.60993172 34.86519473 10.9842327 34.89984233 14.75 34.9375 C16.50570313 34.95103516 16.50570313 34.95103516 18.296875 34.96484375 C19.18890625 34.97644531 20.0809375 34.98804688 21 35 C21.66 33.68 22.32 32.36 23 31 C22.32195312 30.96261719 21.64390625 30.92523438 20.9453125 30.88671875 C14.41138953 30.42518125 8.06734278 29.60920708 2 27 C1.67 26.34 1.34 25.68 1 25 C1.33 24.01 1.66 23.02 2 22 C1.34 22 0.68 22 0 22 C-2.31005322 15.35859698 -3.17661256 8.67691424 -1 1.875 C-0.67 1.25625 -0.34 0.6375 0 0 Z " fill="#247147" transform="translate(443,163)"/>
<path d="M0 0 C1.47583955 0.0001591 2.95168467 0.00585225 4.42749023 0.01586914 C5.20293686 0.01728409 5.97838348 0.01869904 6.77732849 0.02015686 C9.26361893 0.02577194 11.74982059 0.03832693 14.23608398 0.05102539 C15.91772331 0.05603845 17.59936405 0.06060169 19.28100586 0.06469727 C23.41189965 0.07574626 27.54272674 0.09302094 31.67358398 0.11352539 C34.50593676 5.77823093 32.04549012 12.79112103 31.67358398 19.11352539 C20.12358398 19.11352539 8.57358398 19.11352539 -3.32641602 19.11352539 C-3.32641602 18.12352539 -3.32641602 17.13352539 -3.32641602 16.11352539 C7.89358398 16.44352539 19.11358398 16.77352539 30.67358398 17.11352539 C30.34358398 12.82352539 30.01358398 8.53352539 29.67358398 4.11352539 C26.72073679 2.63710179 23.98909415 2.89079601 20.69702148 2.79711914 C20.01177399 2.77633804 19.32652649 2.75555695 18.62051392 2.73414612 C16.42997329 2.66872354 14.2393121 2.60979985 12.04858398 2.55102539 C10.56419648 2.50783321 9.0798212 2.46421869 7.59545898 2.42016602 C3.95496314 2.31304986 0.31433148 2.21176177 -3.32641602 2.11352539 C-3.32641602 5.08352539 -3.32641602 8.05352539 -3.32641602 11.11352539 C-3.98641602 11.11352539 -4.64641602 11.11352539 -5.32641602 11.11352539 C-4.99641602 12.10352539 -4.66641602 13.09352539 -4.32641602 14.11352539 C-5.31641602 14.60852539 -5.31641602 14.60852539 -6.32641602 15.11352539 C-6.32641602 13.46352539 -6.32641602 11.81352539 -6.32641602 10.11352539 C-5.66641602 10.11352539 -5.00641602 10.11352539 -4.32641602 10.11352539 C-4.33801758 9.47543945 -4.34961914 8.83735352 -4.36157227 8.17993164 C-4.3705957 7.35364258 -4.37961914 6.52735352 -4.38891602 5.67602539 C-4.40051758 4.85231445 -4.41211914 4.02860352 -4.42407227 3.17993164 C-4.25929356 -0.30678583 -3.59120249 0.12256214 0 0 Z " fill="#19633F" transform="translate(212.326416015625,176.886474609375)"/>
<path d="M0 0 C0 3.3 0 6.6 0 10 C-8.91 10 -17.82 10 -27 10 C-26.67 13.3 -26.34 16.6 -26 20 C-26.33 24.95 -26.66 29.9 -27 35 C-16.77 35 -6.54 35 4 35 C4 37.97 4 40.94 4 44 C-0.4378561 45.11165232 -4.76956386 45.11527763 -9.3125 45.0625 C-10.05306641 45.05798828 -10.79363281 45.05347656 -11.55664062 45.04882812 C-13.37112899 45.03712175 -15.18557534 45.01918898 -17 45 C-17 44.67 -17 44.34 -17 44 C-7.1 43.505 -7.1 43.505 3 43 C3 40.69 3 38.38 3 36 C-7.56 36 -18.12 36 -29 36 C-29 27.09 -29 18.18 -29 9 C-19.76 9 -10.52 9 -1 9 C-1 6.69 -1 4.38 -1 2 C-4.3 2 -7.6 2 -11 2 C-11 1.67 -11 1.34 -11 1 C-7.26513121 0.4254048 -3.78706732 0 0 0 Z " fill="#247147" transform="translate(377,155)"/>
<path d="M0 0 C13.2 0 26.4 0 40 0 C39.67 3.3 39.34 6.6 39 10 C29.76 10 20.52 10 11 10 C10.67 17.26 10.34 24.52 10 32 C13.3 32 16.6 32 20 32 C23.125 32.5 23.125 32.5 25 33 C25 33.33 25 33.66 25 34 C19.72 34 14.44 34 9 34 C7.46173261 29.38519783 7.77455174 24.77112314 7.75 19.9375 C7.729375 18.91849609 7.70875 17.89949219 7.6875 16.84960938 C7.68234375 15.87701172 7.6771875 14.90441406 7.671875 13.90234375 C7.6625293 13.01023193 7.65318359 12.11812012 7.64355469 11.19897461 C7.76118164 10.47331299 7.87880859 9.74765137 8 9 C11.5922854 6.60514307 12.96005459 6.82441571 17.19921875 7.0234375 C18.40771484 7.075 19.61621094 7.1265625 20.86132812 7.1796875 C22.12396484 7.24414062 23.38660156 7.30859375 24.6875 7.375 C25.96173828 7.43171875 27.23597656 7.4884375 28.54882812 7.546875 C31.69977629 7.68849065 34.84994472 7.83991885 38 8 C38 5.69 38 3.38 38 1 C36.38774536 1.04543945 36.38774536 1.04543945 34.74291992 1.09179688 C30.75660359 1.20403579 26.770272 1.31572426 22.78393555 1.42724609 C21.05834539 1.47559831 19.33275941 1.52409998 17.60717773 1.57275391 C15.12745225 1.64264551 12.64771224 1.71200036 10.16796875 1.78125 C9.39599655 1.80312378 8.62402435 1.82499756 7.82865906 1.84753418 C4.88459636 1.92933942 1.94536935 2 -1 2 C-0.67 1.34 -0.34 0.68 0 0 Z " fill="#26724D" transform="translate(340,123)"/>
<path d="M0 0 C0.33 0.66 0.66 1.32 1 2 C1.66 2.33 2.32 2.66 3 3 C3.928125 3.53625 4.85625 4.0725 5.8125 4.625 C9.45166744 6.19483694 10.28111108 5.82641976 14 5 C15.79116798 4.95773055 17.58380386 4.95894106 19.375 5 C23.71732812 5.04700761 27.72941931 4.75921434 32 4 C31.67 4.66 31.34 5.32 31 6 C30.67 6.99 30.34 7.98 30 9 C29 11 29 11 27.36328125 11.609375 C19.49563094 12.90981307 10.94036063 13.25885766 4 9 C3.34 8.01 2.68 7.02 2 6 C1.34 6 0.68 6 0 6 C0 4.02 0 2.04 0 0 Z " fill="#037134" transform="translate(486,187)"/>
<path d="M0 0 C0.66 0 1.32 0 2 0 C2 3.3 2 6.6 2 10 C-8.37384008 14.78792619 -15.60455435 16.95704602 -27 14 C-29.8984375 12.41796875 -29.8984375 12.41796875 -32 11 C-29 10 -29 10 -26.89453125 10.9296875 C-22.80355127 12.44241154 -19.00858624 12.21367265 -14.6875 12.125 C-13.43356445 12.11146484 -13.43356445 12.11146484 -12.15429688 12.09765625 C-10.10274031 12.07420989 -8.05133223 12.03834266 -6 12 C-6.061875 11.21625 -6.12375 10.4325 -6.1875 9.625 C-6.0946875 8.325625 -6.0946875 8.325625 -6 7 C-5.01 6.34 -4.02 5.68 -3 5 C-3.928125 5.33 -4.85625 5.66 -5.8125 6 C-11.27420085 7.56048596 -18.04102916 8.28866402 -23.33203125 5.984375 C-23.88246094 5.65953125 -24.43289063 5.3346875 -25 5 C-21.80207269 3.93402423 -20.71570227 4.11848775 -17.5 4.6875 C-11.36949387 5.41882695 -6.50977154 3.57989303 -1 1 C-0.67 0.67 -0.34 0.34 0 0 Z " fill="#186E40" transform="translate(521,186)"/>
<path d="M0 0 C0.66 0 1.32 0 2 0 C2 0.99 2 1.98 2 3 C2.61101563 3.02578125 3.22203125 3.0515625 3.8515625 3.078125 C11.19886535 3.53345081 18.32588235 4.67696187 25.5625 6 C27.02647217 6.26731934 27.02647217 6.26731934 28.52001953 6.54003906 C35.57375782 7.85791927 35.57375782 7.85791927 39 9 C39.33 8.34 39.66 7.68 40 7 C40 7.66 40 8.32 40 9 C41.17433594 9.18175781 42.34867188 9.36351562 43.55859375 9.55078125 C48.70816892 10.35208937 53.85450388 11.17294411 59 12 C59.83692383 12.13341797 60.67384766 12.26683594 61.53613281 12.40429688 C63.8798551 12.78131823 66.22133131 13.16997025 68.5625 13.5625 C69.28171631 13.67698486 70.00093262 13.79146973 70.74194336 13.90942383 C75.7703777 14.7703777 75.7703777 14.7703777 78 17 C68.33891403 16.41443729 58.85479742 14.76376627 49.32446289 13.15356445 C46.60065023 12.69393762 43.87564938 12.24197901 41.15039062 11.79101562 C32.06577555 10.27628022 23.00303628 8.66644982 13.96484375 6.89453125 C13.13618301 6.73482346 12.30752228 6.57511566 11.45375061 6.41056824 C7.44045673 5.60758613 3.74950513 4.7041489 0 3 C0 2.01 0 1.02 0 0 Z " fill="#1E6C45" transform="translate(52,243)"/>
<path d="M0 0 C13.2 0 26.4 0 40 0 C35.78565031 2.10717485 32.73785303 2.34111929 28.171875 2.4140625 C27.42286926 2.43342865 26.67386353 2.4527948 25.90216064 2.4727478 C23.51822164 2.53235716 21.13423386 2.57885354 18.75 2.625 C17.13018769 2.66319701 15.51039532 2.70224975 13.890625 2.7421875 C9.92718918 2.83964904 5.96395655 2.91936277 2 3 C2 10.59 2 18.18 2 26 C-1.80931176 27.26977059 -3.81618993 26.52074507 -7.6875 25.5625 C-9.45673828 25.13130859 -9.45673828 25.13130859 -11.26171875 24.69140625 C-12.16535156 24.46324219 -13.06898438 24.23507812 -14 24 C-14 23.34 -14 22.68 -14 22 C-9.71 22.33 -5.42 22.66 -1 23 C-0.67 15.41 -0.34 7.82 0 0 Z " fill="#246C47" transform="translate(180,243)"/>
<path d="M0 0 C0 3.63 0 7.26 0 11 C0.66 11.33 1.32 11.66 2 12 C1.34 14.64 0.68 17.28 0 20 C-4.29 20 -8.58 20 -13 20 C-13 19.01 -13 18.02 -13 17 C-14.65 17.33 -16.3 17.66 -18 18 C-16.8125 16.4375 -16.8125 16.4375 -15 15 C-12.3125 15.3125 -12.3125 15.3125 -10 16 C-10 16.66 -10 17.32 -10 18 C-6.04 17.505 -6.04 17.505 -2 17 C-2.30759178 15.02006459 -2.6212068 13.04106401 -2.9375 11.0625 C-3.11152344 9.96035156 -3.28554687 8.85820312 -3.46484375 7.72265625 C-3.71845136 5.09573071 -3.71845136 5.09573071 -5 4 C-8.36209065 3.71530684 -11.72414001 3.55104937 -15.09375 3.37890625 C-16.0528125 3.25386719 -17.011875 3.12882812 -18 3 C-18.33 2.34 -18.66 1.68 -19 1 C-16.02085163 0.83300069 -13.04168271 0.66638454 -10.0625 0.5 C-8.78729492 0.42845703 -8.78729492 0.42845703 -7.48632812 0.35546875 C-6.67744141 0.31035156 -5.86855469 0.26523438 -5.03515625 0.21875 C-4.2862915 0.17685547 -3.53742676 0.13496094 -2.76586914 0.09179688 C-1.84464901 0.0439082 -0.92246402 0 0 0 Z " fill="#1B6E43" transform="translate(200,122)"/>
<path d="M0 0 C5.17311009 5.87853419 5.21879521 12.28086354 5.16796875 19.7421875 C5 22 5 22 4 23 C1.26105915 23.08858646 -1.4525327 23.11523479 -4.19140625 23.09765625 C-5.01124496 23.0962413 -5.83108368 23.09482635 -6.67576599 23.09336853 C-9.30471382 23.08775289 -11.93357773 23.07519779 -14.5625 23.0625 C-16.34049357 23.05748701 -18.11848846 23.05292376 -19.89648438 23.04882812 C-24.26435545 23.03777839 -28.63216348 23.02050331 -33 23 C-32.67 25.64 -32.34 28.28 -32 31 C-32.66 30.34 -33.32 29.68 -34 29 C-34 26.36 -34 23.72 -34 21 C-21.79 21 -9.58 21 3 21 C1.75484624 10.45864415 1.75484624 10.45864415 0 0 Z " fill="#24714A" transform="translate(522,152)"/>
<path d="M0 0 C1.01802622 6.41276359 0.93552902 12.40569919 0.56640625 18.875 C-0.07638488 31.92297182 -0.11442989 44.93914229 -0.0625 58 C-0.0574639 60.25130106 -0.0529048 62.50260325 -0.04882812 64.75390625 C-0.03801505 70.16929604 -0.02145168 75.58464241 0 81 C-0.66 81 -1.32 81 -2 81 C-3.20994726 22.6633268 -3.20994726 22.6633268 -3 1 C-1 0 -1 0 0 0 Z " fill="#1B633D" transform="translate(55,117)"/>
<path d="M0 0 C2.21463013 -0.32279968 2.21463013 -0.32279968 5.00048828 -0.2487793 C6.56188034 -0.21840828 6.56188034 -0.21840828 8.15481567 -0.18742371 C9.8454866 -0.13138725 9.8454866 -0.13138725 11.5703125 -0.07421875 C13.29735916 -0.03455742 13.29735916 -0.03455742 15.05929565 0.00590515 C18.74837752 0.09390123 22.43650059 0.20297146 26.125 0.3125 C28.62105904 0.37573436 31.11715312 0.43760119 33.61328125 0.49804688 C39.74268288 0.64947964 45.87142704 0.81823282 52 1 C52 1.33 52 1.66 52 2 C35.5 2 19 2 2 2 C2 5.96 2 9.92 2 14 C5.96 14 9.92 14 14 14 C14 14.66 14 15.32 14 16 C13.01 16 12.02 16 11 16 C10.67 16.66 10.34 17.32 10 18 C10 17.34 10 16.68 10 16 C9.01 16.33 8.02 16.66 7 17 C4.66700175 17.03954234 2.33291811 17.04401732 0 17 C-0.66 14.69 -1.32 12.38 -2 10 C-1.34 10 -0.68 10 0 10 C0 8.02 0 6.04 0 4 C-0.66 3.67 -1.32 3.34 -2 3 C-1.34 2.01 -0.68 1.02 0 0 Z " fill="#1A653F" transform="translate(180,82)"/>
<path d="M0 0 C1.43352212 0.00015908 2.86704998 0.00585132 4.30053711 0.01586914 C5.43041298 0.01799156 5.43041298 0.01799156 6.58311462 0.02015686 C8.99807646 0.02577163 11.41294687 0.03832656 13.82788086 0.05102539 C15.46134307 0.05603849 17.09480672 0.06060173 18.72827148 0.06469727 C22.74067671 0.07574585 26.75301326 0.09302033 30.76538086 0.11352539 C30.76538086 0.77352539 30.76538086 1.43352539 30.76538086 2.11352539 C29.83677246 2.13858154 28.90816406 2.1636377 27.95141602 2.18945312 C24.51102282 2.28450471 21.07080373 2.38374246 17.63061523 2.48583984 C16.14075445 2.52919129 14.65084391 2.57086623 13.16088867 2.61083984 C11.02108759 2.66853754 8.88153701 2.73223294 6.74194336 2.79711914 C5.45368652 2.83377686 4.16542969 2.87043457 2.83813477 2.90820312 C-0.14738734 2.90883214 -0.14738734 2.90883214 -2.23461914 4.11352539 C-2.23461914 8.73352539 -2.23461914 13.35352539 -2.23461914 18.11352539 C3.37538086 18.11352539 8.98538086 18.11352539 14.76538086 18.11352539 C14.76538086 18.44352539 14.76538086 18.77352539 14.76538086 19.11352539 C12.80773703 19.30809244 10.84922765 19.49396787 8.89038086 19.67602539 C7.25456055 19.83264648 7.25456055 19.83264648 5.58569336 19.99243164 C2.76538086 20.11352539 2.76538086 20.11352539 0.76538086 19.11352539 C0.43538086 19.77352539 0.10538086 20.43352539 -0.23461914 21.11352539 C-0.23461914 20.45352539 -0.23461914 19.79352539 -0.23461914 19.11352539 C-1.22461914 19.44352539 -2.21461914 19.77352539 -3.23461914 20.11352539 C-4.22461914 17.14352539 -5.21461914 14.17352539 -6.23461914 11.11352539 C-5.57461914 11.11352539 -4.91461914 11.11352539 -4.23461914 11.11352539 C-4.2462207 10.40325195 -4.25782227 9.69297852 -4.26977539 8.96118164 C-4.27879883 8.04208008 -4.28782227 7.12297852 -4.29711914 6.17602539 C-4.3087207 5.25950195 -4.32032227 4.34297852 -4.33227539 3.39868164 C-4.17784115 -0.21507967 -3.71270946 0.13030492 0 0 Z " fill="#206540" transform="translate(212.234619140625,95.886474609375)"/>
<path d="M0 0 C0.66 0.33 1.32 0.66 2 1 C3.77822808 1.08472959 5.55962383 1.10720915 7.33984375 1.09765625 C8.40267578 1.09443359 9.46550781 1.09121094 10.56054688 1.08789062 C11.67494141 1.07951172 12.78933594 1.07113281 13.9375 1.0625 C15.04802734 1.05798828 16.15855469 1.05347656 17.30273438 1.04882812 C19.36451269 1.04008648 21.42628401 1.0293002 23.48803711 1.01586914 C25.32532902 1.00426218 27.16267142 1 29 1 C31 4 31 4 30.625 7.1875 C30.41875 8.115625 30.2125 9.04375 30 10 C29.67 10 29.34 10 29 10 C29 8.02 29 6.04 29 4 C18.11 4 7.22 4 -4 4 C-4 6.64 -4 9.28 -4 12 C-4.66 12 -5.32 12 -6 12 C-6.02689216 10.52093108 -6.04634621 9.04172517 -6.0625 7.5625 C-6.07410156 6.73878906 -6.08570313 5.91507813 -6.09765625 5.06640625 C-6 3 -6 3 -5 2 C-3.33382885 1.95936168 -1.66611905 1.957279 0 2 C0 1.34 0 0.68 0 0 Z " fill="#1D6D45" transform="translate(214,148)"/>
<path d="M0 0 C0.66 0.33 1.32 0.66 2 1 C2 3.97 2 6.94 2 10 C-6.66222026 12.27205777 -15.51739117 13.66815517 -24 10 C-20.39006828 8.86519473 -17.0157673 8.89984233 -13.25 8.9375 C-11.49429687 8.95103516 -11.49429687 8.95103516 -9.703125 8.96484375 C-8.81109375 8.97644531 -7.9190625 8.98804688 -7 9 C-5.89163577 7.11683841 -5.89163577 7.11683841 -5 5 C-5.33 4.34 -5.66 3.68 -6 3 C-4.03533587 1.93224776 -2.03144641 0.93446535 0 0 Z " fill="#157041" transform="translate(471,189)"/>
<path d="M0 0 C0.33 0.66 0.66 1.32 1 2 C11.89 2 22.78 2 34 2 C34.495 2.99 34.495 2.99 35 4 C29.20741707 5.77044646 22.99359213 5.18449117 17 5.1875 C15.07414062 5.20586914 15.07414062 5.20586914 13.109375 5.22460938 C11.87703125 5.22654297 10.6446875 5.22847656 9.375 5.23046875 C8.24835938 5.23457764 7.12171875 5.23868652 5.9609375 5.24291992 C3.08184219 5.00671446 1.43386763 4.49779324 -1 3 C-0.67 2.01 -0.34 1.02 0 0 Z " fill="#1E633F" transform="translate(209,219)"/>
<path d="M0 0 C4.29 0 8.58 0 13 0 C13 0.99 13 1.98 13 3 C14.04800781 2.9278125 15.09601563 2.855625 16.17578125 2.78125 C17.5546839 2.6874471 18.93359035 2.59370001 20.3125 2.5 C21.00279297 2.45230469 21.69308594 2.40460938 22.40429688 2.35546875 C25.27662359 2.16120511 28.12013788 2 31 2 C31 5.3 31 8.6 31 12 C30.67 12 30.34 12 30 12 C30 9.36 30 6.72 30 4 C25.43726776 4.1390777 20.87488309 4.28743634 16.3125 4.4375 C15.01892578 4.47681641 13.72535156 4.51613281 12.39257812 4.55664062 C11.14541016 4.59853516 9.89824219 4.64042969 8.61328125 4.68359375 C6.89298706 4.73858032 6.89298706 4.73858032 5.13793945 4.79467773 C2.33006722 4.97840298 -0.26225814 5.3699382 -3 6 C-3.33 7.98 -3.66 9.96 -4 12 C-4.33 12 -4.66 12 -5 12 C-5 9.36 -5 6.72 -5 4 C-3.02 3.34 -1.04 2.68 1 2 C0.67 1.34 0.34 0.68 0 0 Z M3 2 C3 2.33 3 2.66 3 3 C5.97 3 8.94 3 12 3 C12 2.67 12 2.34 12 2 C9.03 2 6.06 2 3 2 Z " fill="#206342" transform="translate(213,201)"/>
<path d="M0 0 C0.98608749 0.00212242 0.98608749 0.00212242 1.99209595 0.00428772 C4.07029981 0.00983863 6.14839177 0.0223816 8.2265625 0.03515625 C9.64452968 0.04017761 11.06249857 0.0447394 12.48046875 0.04882812 C15.93753572 0.05979188 19.39453817 0.07702204 22.8515625 0.09765625 C22.5215625 1.41765625 22.1915625 2.73765625 21.8515625 4.09765625 C10.3015625 3.76765625 -1.2484375 3.43765625 -13.1484375 3.09765625 C-13.1484375 2.43765625 -13.1484375 1.77765625 -13.1484375 1.09765625 C-8.70696181 0.23849529 -4.52073926 -0.0193194 0 0 Z " fill="#236D48" transform="translate(222.1484375,121.90234375)"/>
<path d="M0 0 C11.55 0.33 23.1 0.66 35 1 C35 1.66 35 2.32 35 3 C23.45 3 11.9 3 0 3 C0 2.01 0 1.02 0 0 Z " fill="#206F46" transform="translate(209,193)"/>
<path d="M0 0 C2.52554365 0.02146354 4.99602213 0.13958887 7.5078125 0.3984375 C7.01550481 5.93689904 7.01550481 5.93689904 4.4453125 8.2734375 C3.8059375 8.6446875 3.1665625 9.0159375 2.5078125 9.3984375 C1.8478125 8.4084375 1.1878125 7.4184375 0.5078125 6.3984375 C-2.05501492 5.66878384 -2.05501492 5.66878384 -4.4921875 5.3984375 C-4.4921875 6.0584375 -4.4921875 6.7184375 -4.4921875 7.3984375 C-5.1521875 7.0684375 -5.8121875 6.7384375 -6.4921875 6.3984375 C-3.84102471 0.61408232 -3.84102471 0.61408232 0 0 Z " fill="#0F7039" transform="translate(422.4921875,143.6015625)"/>
<path d="M0 0 C0.33 0.66 0.66 1.32 1 2 C-0.38599708 5.82560279 -2.21600662 9.0282614 -5 12 C-8.47991235 12.98818885 -11.50002366 12.88128901 -15 12 C-15.66 11.34 -16.32 10.68 -17 10 C-15.68 8.68 -14.36 7.36 -13 6 C-12.01 6.66 -11.02 7.32 -10 8 C-9.34 8 -8.68 8 -8 8 C-7.67 7.01 -7.34 6.02 -7 5 C-5.68 5.33 -4.36 5.66 -3 6 C-2.690625 5.195625 -2.38125 4.39125 -2.0625 3.5625 C-1 1 -1 1 0 0 Z " fill="#176D3F" transform="translate(399,188)"/>
<path d="M0 0 C0.66 0 1.32 0 2 0 C6.09326923 6.45 6.09326923 6.45 5.62109375 9.234375 C5.41613281 9.81703125 5.21117187 10.3996875 5 11 C3.39479996 10.93976735 1.79065673 10.85091401 0.1875 10.75 C-1.15248047 10.68039063 -1.15248047 10.68039063 -2.51953125 10.609375 C-5 10 -5 10 -6.82421875 8.078125 C-8 6 -8 6 -8 4 C-5.13275314 4.57344937 -4.1385485 4.8614515 -2 7 C-1.34 4.69 -0.68 2.38 0 0 Z " fill="#146D3D" transform="translate(424,190)"/>
<path d="M0 0 C1.32 0 2.64 0 4 0 C5.35064935 8.94805195 5.35064935 8.94805195 4 13 C2.125 12.375 2.125 12.375 0 11 C-1.69042446 7.54231359 -2.25742619 5.8458289 -1.125 2.125 C-0.75375 1.42375 -0.3825 0.7225 0 0 Z " fill="#026F32" transform="translate(398,156)"/>
<path d="M0 0 C0.33 0.66 0.66 1.32 1 2 C4.02934491 2.65772428 4.02934491 2.65772428 7 3 C7 6.63 7 10.26 7 14 C5.35 13.34 3.7 12.68 2 12 C2.99 11.01 3.98 10.02 5 9 C4.67 8.01 4.34 7.02 4 6 C2.05396726 5.40929986 2.05396726 5.40929986 0 5 C-0.66 4.34 -1.32 3.68 -2 3 C-4.66949409 2.75684344 -4.66949409 2.75684344 -7.625 2.875 C-8.62789063 2.89304688 -9.63078125 2.91109375 -10.6640625 2.9296875 C-11.82035156 2.96449219 -11.82035156 2.96449219 -13 3 C-13 2.34 -13 1.68 -13 1 C-6.565 0.505 -6.565 0.505 0 0 Z " fill="#1F7243" transform="translate(467,142)"/>
<path d="M0 0 C0.99 0 1.98 0 3 0 C2.38367054 4.95998472 0.20164371 8.93671966 -2.0625 13.3125 C-2.62807617 14.42334961 -2.62807617 14.42334961 -3.20507812 15.55664062 C-4.13128157 17.37387522 -5.06490629 19.18732404 -6 21 C-7.15387657 17.53837028 -6.79998922 16.79997125 -5.5625 13.5 C-4.52423721 10.70646782 -4 9.02090819 -4 6 C-2.1875 2.8125 -2.1875 2.8125 0 0 Z " fill="#177441" transform="translate(101,158)"/>
<path d="M0 0 C2.76276177 0.52268466 5.3260876 1.10869587 8 2 C15.39005127 2.31926524 22.69395786 2.16896674 30 1 C26.65323797 4.34676203 22.607246 5.26811978 18 6 C11.36220303 5.70805986 5.52546939 4.86067917 0 1 C0 0.67 0 0.34 0 0 Z " fill="#286F49" transform="translate(489,196)"/>
<path d="M0 0 C-0.33 0.66 -0.66 1.32 -1 2 C-3.46216348 2.26136355 -5.84349465 2.42147223 -8.3125 2.5 C-14.43377484 2.63878135 -14.43377484 2.63878135 -20 5 C-20.33 3.35 -20.66 1.7 -21 0 C-17.87549468 -0.19645093 -14.75038555 -0.38063489 -11.625 -0.5625 C-10.29082031 -0.64661133 -10.29082031 -0.64661133 -8.9296875 -0.73242188 C-7.65351563 -0.80493164 -7.65351563 -0.80493164 -6.3515625 -0.87890625 C-5.56604004 -0.9260376 -4.78051758 -0.97316895 -3.97119141 -1.02172852 C-2 -1 -2 -1 0 0 Z " fill="#286A47" transform="translate(201,221)"/>
<path d="M0 0 C0.33 0 0.66 0 1 0 C1.19628414 3.79126598 1.38053896 7.58302172 1.5625 11.375 C1.61857422 12.45523438 1.67464844 13.53546875 1.73242188 14.6484375 C1.78076172 15.6796875 1.82910156 16.7109375 1.87890625 17.7734375 C1.94960327 19.20308838 1.94960327 19.20308838 2.02172852 20.66162109 C2 23 2 23 1 25 C3.31 25 5.62 25 8 25 C8 25.33 8 25.66 8 26 C4.7 26 1.4 26 -2 26 C-1.34 17.42 -0.68 8.84 0 0 Z " fill="#226D44" transform="translate(340,174)"/>
<path d="M0 0 C0.33 0.99 0.66 1.98 1 3 C0.01 3 -0.98 3 -2 3 C-2 3.66 -2 4.32 -2 5 C-0.35 5 1.3 5 3 5 C3.33 4.34 3.66 3.68 4 3 C4.99 3 5.98 3 7 3 C7 4.65 7 6.3 7 8 C1.65924276 9.21380846 1.65924276 9.21380846 -1.3125 8.25 C-3 7 -3 7 -4 4 C-6.00016466 2.79117904 -6.00016466 2.79117904 -8 2 C-4.91190305 0.23537317 -3.76687864 0 0 0 Z " fill="#096632" transform="translate(260,235)"/>
<path d="M0 0 C1.51176365 4.5004041 0.98700058 9.21944312 0.78515625 13.89257812 C0.67780412 19.0503601 1.81513713 22.34050465 4 27 C3.6875 29.4375 3.6875 29.4375 3 31 C-1.82520669 24.4201727 -2.51138223 15.9264246 -2 8 C-1.45740159 5.27765279 -0.76383509 2.67342282 0 0 Z " fill="#206E44" transform="translate(480,160)"/>
<path d="M0 0 C-0.33 0.66 -0.66 1.32 -1 2 C-3.109375 2.6328125 -3.109375 2.6328125 -5.75 3.125 C-6.61109375 3.29257813 -7.4721875 3.46015625 -8.359375 3.6328125 C-10.94533821 3.9923991 -13.39313809 4.06564041 -16 4 C-15.79375 5.0725 -15.5875 6.145 -15.375 7.25 C-15.0123809 10.87619096 -15.01637931 12.08291076 -17 15 C-17.98627807 10.06860965 -18.42047675 6.52523914 -16 2 C-11.04076538 -0.72757904 -5.50794001 -0.19593462 0 0 Z " fill="#206A46" transform="translate(70,72)"/>
<path d="M0 0 C3.63 0 7.26 0 11 0 C11.66 1.98 12.32 3.96 13 6 C12.01 6.495 12.01 6.495 11 7 C10.67 5.68 10.34 4.36 10 3 C7.69 2.67 5.38 2.34 3 2 C3.28875 2.721875 3.5775 3.44375 3.875 4.1875 C4.91666667 6.79166667 5.95833333 9.39583333 7 12 C4.04485124 9.24865461 1.8475191 6.60266225 0 3 C0 2.01 0 1.02 0 0 Z " fill="#217245" transform="translate(384,144)"/>
<path d="M0 0 C0.33 1.32 0.66 2.64 1 4 C1.66 4 2.32 4 3 4 C3 4.66 3 5.32 3 6 C2.34 6 1.68 6 1 6 C1.7425 7.423125 1.7425 7.423125 2.5 8.875 C4 12 4 12 4 14 C4.66 14 5.32 14 6 14 C5.34 15.32 4.68 16.64 4 18 C2.9615789 16.28133783 1.94485365 14.54955402 0.9375 12.8125 C0.36902344 11.84957031 -0.19945313 10.88664063 -0.78515625 9.89453125 C-2.15327658 6.6347976 -2.0898518 5.30379157 -1 2 C-0.67 1.34 -0.34 0.68 0 0 Z " fill="#247748" transform="translate(125,154)"/>
<path d="M0 0 C0.66 0 1.32 0 2 0 C2.33 0.99 2.66 1.98 3 3 C2.34 3 1.68 3 1 3 C1 3.66 1 4.32 1 5 C0.34 5 -0.32 5 -1 5 C-1.268125 5.5775 -1.53625 6.155 -1.8125 6.75 C-3.02929189 9.05550043 -4.30333879 11.02056192 -6 13 C-6.66 13 -7.32 13 -8 13 C-7.67 11.68 -7.34 10.36 -7 9 C-6.34 9 -5.68 9 -5 9 C-4.731875 8.2575 -4.46375 7.515 -4.1875 6.75 C-3.04723249 4.10938051 -1.90619694 2.14447156 0 0 Z " fill="#166B3D" transform="translate(394,181)"/>
<path d="M0 0 C0.99 0.33 1.98 0.66 3 1 C2.34 3.31 1.68 5.62 1 8 C2.2375 7.773125 3.475 7.54625 4.75 7.3125 C6.859375 6.92578125 6.859375 6.92578125 9 7 C10.32 7.99 11.64 8.98 13 10 C8.71 10 4.42 10 0 10 C0 6.7 0 3.4 0 0 Z " fill="#1C6F44" transform="translate(180,142)"/>
<path d="M0 0 C0.33 0.99 0.66 1.98 1 3 C1.66 3 2.32 3 3 3 C3 3.66 3 4.32 3 5 C4.32 4.67 5.64 4.34 7 4 C6.34 6.97 5.68 9.94 5 13 C4.34 13 3.68 13 3 13 C2.49242138 11.58603098 1.99425075 10.16868271 1.5 8.75 C1.08234375 7.56664062 1.08234375 7.56664062 0.65625 6.359375 C0 4 0 4 0 0 Z " fill="#237348" transform="translate(110,136)"/>
<path d="M0 0 C5.28 0 10.56 0 16 0 C13.75 6.75 13.75 6.75 11 10 C11.4979837 6.26512223 11.87491756 4.18762365 14 1 C10.04 1 6.08 1 2 1 C2 1.66 2 2.32 2 3 C1.01 3 0.02 3 -1 3 C-0.67 2.01 -0.34 1.02 0 0 Z " fill="#D4F3E2" transform="translate(126,120)"/>
<path d="M0 0 C0.66 0.33 1.32 0.66 2 1 C-2.93654267 8.68490153 -2.93654267 8.68490153 -7.375 10 C-8.24125 10 -9.1075 10 -10 10 C-8.51948052 5.31168831 -8.51948052 5.31168831 -6.125 3.875 C-5.073125 3.441875 -5.073125 3.441875 -4 3 C-2.64886795 2.02418241 -1.31053056 1.02970259 0 0 Z " fill="#1A6E3F" transform="translate(447,145)"/>
<path d="M0 0 C2.68666139 5.1814184 4.27625249 9.06057157 4 15 C0.88979866 12.45528982 -0.00133026 9.84103748 -1 6 C-1.1875 3.1875 -1.1875 3.1875 -1 1 C-0.67 0.67 -0.34 0.34 0 0 Z " fill="#187144" transform="translate(433,174)"/>
<path d="M0 0 C3.3 0 6.6 0 10 0 C9.50769231 5.53846154 9.50769231 5.53846154 6.9375 7.875 C5.9784375 8.431875 5.9784375 8.431875 5 9 C5 6.36 5 3.72 5 1 C3.35 1 1.7 1 0 1 C0 0.67 0 0.34 0 0 Z " fill="#1A7446" transform="translate(420,144)"/>
<path d="M0 0 C2 1 2 1 2 1 Z M-3 1 C-0.07120629 1.62759865 2.36095629 2.58622659 5 4 C5 4.99 5 5.98 5 7 C5.99 8.485 5.99 8.485 7 10 C2.57238086 8.60846256 0.0443745 6.47928514 -3 3 C-3 2.34 -3 1.68 -3 1 Z " fill="#166F3F" transform="translate(440,188)"/>
<path d="M0 0 C3.83512867 2.55675244 4.42941962 4.71659897 6 9 C6.39764263 10.98821313 6.75455166 12.98732362 7 15 C6.34 15 5.68 15 5 15 C0.77676538 5.58997722 0.77676538 5.58997722 -1 1 C-0.67 0.67 -0.34 0.34 0 0 Z " fill="#096F3A" transform="translate(387,145)"/>
<path d="M0 0 C2.46934085 3.70401128 2.44928433 6.70587865 2 11 C1 13.5 1 13.5 0 15 C-0.91740621 11.87645029 -1.13460306 9.06313562 -1.125 5.8125 C-1.12757812 4.93207031 -1.13015625 4.05164063 -1.1328125 3.14453125 C-1 1 -1 1 0 0 Z " fill="#0E4E2F" transform="translate(53,228)"/>
<path d="M0 0 C0.1875 2.875 0.1875 2.875 0 6 C-0.99 6.66 -1.98 7.32 -3 8 C-5 6 -5 6 -7 3 C-2.25 0 -2.25 0 0 0 Z " fill="#027031" transform="translate(424,190)"/>
<path d="M0 0 C1.32 0 2.64 0 4 0 C4.12375 1.11375 4.2475 2.2275 4.375 3.375 C4.6465813 7.03103677 4.6465813 7.03103677 7 9 C6.34 10.65 5.68 12.3 5 14 C3.10361315 11.15541973 2.57423245 9.68537055 1.9375 6.4375 C1.46509229 4.05984465 1.08564836 2.17129671 0 0 Z " fill="#0E5E34" transform="translate(195,125)"/>
<path d="M0 0 C0.66 0 1.32 0 2 0 C5.23862258 3.77559628 7.75502203 7.50291238 8.5625 12.4375 C8 15 8 15 5 17 C5 14.66666667 5 12.33333333 5 10 C4.22555505 8.2436695 3.38486776 6.51587044 2.5 4.8125 C1.80390625 3.46091797 1.80390625 3.46091797 1.09375 2.08203125 C0.55234375 1.05142578 0.55234375 1.05142578 0 0 Z " fill="#1D6C45" transform="translate(393,160)"/>
<path d="M0 0 C1.32 0.33 2.64 0.66 4 1 C3.02526874 2.66926454 2.04510211 4.33535642 1.0625 6 C0.24458984 7.3921875 0.24458984 7.3921875 -0.58984375 8.8125 C-1.05519531 9.534375 -1.52054687 10.25625 -2 11 C-2.33 11 -2.66 11 -3 11 C-3.36923077 4.6 -3.36923077 4.6 -1.5 1.5625 C-1.005 1.046875 -0.51 0.53125 0 0 Z " fill="#166D3E" transform="translate(421,153)"/>
<path d="M0 0 C4.62 0 9.24 0 14 0 C13.34 1.32 12.68 2.64 12 4 C7.71 3.67 3.42 3.34 -1 3 C-0.67 2.01 -0.34 1.02 0 0 Z M3 3 C6 4 6 4 6 4 Z " fill="#0A7141" transform="translate(92,67)"/>
<path d="M0 0 C0.33 0 0.66 0 1 0 C1.05382106 2.62527189 1.09358313 5.24944713 1.125 7.875 C1.14175781 8.62136719 1.15851563 9.36773437 1.17578125 10.13671875 C1.1933959 12.09194461 1.10320189 14.04742021 1 16 C0.34 16.66 -0.32 17.32 -1 18 C-1 17.01 -1 16.02 -1 15 C-1.66 14.67 -2.32 14.34 -3 14 C-2.68289063 13.44828125 -2.36578125 12.8965625 -2.0390625 12.328125 C-0.87290025 9.71522011 -0.59954289 7.59420998 -0.375 4.75 C-0.30023438 3.85796875 -0.22546875 2.9659375 -0.1484375 2.046875 C-0.09945313 1.37140625 -0.05046875 0.6959375 0 0 Z " fill="#256E49" transform="translate(268,223)"/>
<path d="M0 0 C0.33 0 0.66 0 1 0 C1 2.31 1 4.62 1 7 C0.34 7 -0.32 7 -1 7 C-1.103125 7.639375 -1.20625 8.27875 -1.3125 8.9375 C-1.539375 9.618125 -1.76625 10.29875 -2 11 C-2.99 11.33 -3.98 11.66 -5 12 C-3.68938409 7.76570244 -2.05643741 3.92592596 0 0 Z " fill="#287D50" transform="translate(131,142)"/>
<path d="M0 0 C0.33 0 0.66 0 1 0 C1 2.64 1 5.28 1 8 C3.97 8.495 3.97 8.495 7 9 C7 8.34 7 7.68 7 7 C7.99 7.33 8.98 7.66 10 8 C10 8.66 10 9.32 10 10 C6.7 10 3.4 10 0 10 C-1.6415049 6.7169902 -0.51888624 3.57454967 0 0 Z " fill="#1D6843" transform="translate(180,227)"/>
<path d="M0 0 C0.66 0 1.32 0 2 0 C2 0.66 2 1.32 2 2 C7.28 2 12.56 2 18 2 C18 2.33 18 2.66 18 3 C16.95199219 3.06058594 15.90398437 3.12117187 14.82421875 3.18359375 C13.44529952 3.26801738 12.06639395 3.35266447 10.6875 3.4375 C9.65206055 3.49647461 9.65206055 3.49647461 8.59570312 3.55664062 C5.52838465 3.74927415 2.93031848 4.02322717 0 5 C-0.5625 3.0625 -0.5625 3.0625 -1 1 C-0.67 0.67 -0.34 0.34 0 0 Z " fill="#3E8D61" transform="translate(84,195)"/>
<path d="M0 0 C0.99 0.33 1.98 0.66 3 1 C3.33 5.29 3.66 9.58 4 14 C3.34 14 2.68 14 2 14 C2 10.7 2 7.4 2 4 C0.35 4 -1.3 4 -3 4 C-2.01 2.68 -1.02 1.36 0 0 Z " fill="#1B6C46" transform="translate(197,148)"/>
<path d="M0 0 C0.33 0 0.66 0 1 0 C2.97094808 4.92737019 3.1799928 8.78020872 3 14 C2.67 13.34 2.34 12.68 2 12 C1.34 12 0.68 12 0 12 C0 8.04 0 4.08 0 0 Z " fill="#0A6E4B" transform="translate(543,144)"/>
<path d="M0 0 C3 3.75 3 3.75 3 6 C-2.61 6 -8.22 6 -14 6 C-14 5.67 -14 5.34 -14 5 C-9.38 5 -4.76 5 0 5 C0 3.35 0 1.7 0 0 Z " fill="#B1DCC3" transform="translate(140,194)"/>
<path d="M0 0 C1.32 0.66 2.64 1.32 4 2 C3 5 3 5 1 8 C0.01 7.67 -0.98 7.34 -2 7 C-2 6.34 -2 5.68 -2 5 C-1.34 5 -0.68 5 0 5 C0 3.35 0 1.7 0 0 Z " fill="#0C653B" transform="translate(198,213)"/>
<path d="M0 0 C0.66 0.99 1.32 1.98 2 3 C1.01 4.485 1.01 4.485 0 6 C-2.7885289 6.22107787 -5.34653181 6.28107535 -8.125 6.1875 C-8.87910156 6.17396484 -9.63320312 6.16042969 -10.41015625 6.14648438 C-12.27374127 6.11109985 -14.13695978 6.05729167 -16 6 C-16 5.67 -16 5.34 -16 5 C-11.05 5 -6.1 5 -1 5 C-0.67 3.35 -0.34 1.7 0 0 Z " fill="#156B3C" transform="translate(103,193)"/>
<path d="M0 0 C0.33 0 0.66 0 1 0 C1 1.65 1 3.3 1 5 C5.29 5 9.58 5 14 5 C14 5.33 14 5.66 14 6 C8.72 6 3.44 6 -2 6 C-1.34 4.02 -0.68 2.04 0 0 Z " fill="#DAFBEA" transform="translate(88,191)"/>
<path d="M0 0 C2.34058637 2.12780579 3.70700306 4.11562221 5 7 C3.35 7.33 1.7 7.66 0 8 C-0.38063221 5.6739143 -0.71269945 3.33944736 -1 1 C-0.67 0.67 -0.34 0.34 0 0 Z " fill="#15693B" transform="translate(490,182)"/>
<path d="M0 0 C1.1875 1.625 1.1875 1.625 2 4 C0.8125 7.1875 0.8125 7.1875 -1 10 C-1.99 10.33 -2.98 10.66 -4 11 C-3.52269162 9.5410574 -3.04308958 8.08286504 -2.5625 6.625 C-2.29566406 5.81289062 -2.02882813 5.00078125 -1.75390625 4.1640625 C-1 2 -1 2 0 0 Z " fill="#DAF2E4" transform="translate(124,124)"/>
<path d="M0 0 C0.66 0.99 1.32 1.98 2 3 C1.1015625 5.91796875 1.1015625 5.91796875 -0.375 9.1875 C-0.85710937 10.27417969 -1.33921875 11.36085937 -1.8359375 12.48046875 C-2.41214844 13.72763672 -2.41214844 13.72763672 -3 15 C-4.09658936 11.71023192 -3.79953138 10.28696233 -3 7 C-2.34 7 -1.68 7 -1 7 C-0.67 4.69 -0.34 2.38 0 0 Z " fill="#DEF6E8" transform="translate(106,180)"/>
<path d="M0 0 C3.3 0 6.6 0 10 0 C10 0.66 10 1.32 10 2 C6.7 2.33 3.4 2.66 0 3 C0 2.01 0 1.02 0 0 Z " fill="#0D6228" transform="translate(213,235)"/>
<path d="M0 0 C0.66 0.66 1.32 1.32 2 2 C1.01 2.33 0.02 2.66 -1 3 C-0.34 4.65 0.32 6.3 1 8 C-0.32 7.67 -1.64 7.34 -3 7 C-3.33 7.66 -3.66 8.32 -4 9 C-3.38461538 3.46153846 -3.38461538 3.46153846 -1.4375 1.125 C-0.963125 0.75375 -0.48875 0.3825 0 0 Z " fill="#1A6E45" transform="translate(414,168)"/>
<path d="M0 0 C0.66 0 1.32 0 2 0 C0.68938409 4.23429756 -0.94356259 8.07407404 -3 12 C-3.66 11.67 -4.32 11.34 -5 11 C-3.55049545 7.2089881 -1.84827434 3.6125362 0 0 Z " fill="#E3F9ED" transform="translate(134,132)"/>
<path d="M0 0 C0.66 0 1.32 0 2 0 C1.55090939 1.48199902 1.09043436 2.96055236 0.625 4.4375 C0.36976562 5.26121094 0.11453125 6.08492187 -0.1484375 6.93359375 C-1 9 -1 9 -3 10 C-3.3636198 5.75776898 -2.5393228 3.41831915 0 0 Z " fill="#E8FAEF" transform="translate(110,172)"/>
<path d="M0 0 C0.99 0 1.98 0 3 0 C3 3.63 3 7.26 3 11 C0.525 10.01 0.525 10.01 -2 9 C-1.01 8.34 -0.02 7.68 1 7 C1.28056176 4.19438238 1.26710868 2.53421737 0 0 Z " fill="#27744B" transform="translate(471,145)"/>
<path d="M0 0 C1.79133978 -0.05391993 3.58313899 -0.09275571 5.375 -0.125 C6.37273437 -0.14820312 7.37046875 -0.17140625 8.3984375 -0.1953125 C11 0 11 0 13 2 C13 3.32 13 4.64 13 6 C12.34 6 11.68 6 11 6 C10.67 4.35 10.34 2.7 10 1 C6.7 1 3.4 1 0 1 C0 0.67 0 0.34 0 0 Z " fill="#227446" transform="translate(94,121)"/>
<path d="M0 0 C-0.33 1.32 -0.66 2.64 -1 4 C-4.63 4 -8.26 4 -12 4 C-12 3.67 -12 3.34 -12 3 C-10.906875 2.87625 -9.81375 2.7525 -8.6875 2.625 C-5.33817502 2.0573178 -3.19116366 0 0 0 Z " fill="#0A6A32" transform="translate(144,115)"/>
<path d="M0 0 C1.32 0.33 2.64 0.66 4 1 C4.33 2.32 4.66 3.64 5 5 C6.32 5.33 7.64 5.66 9 6 C6.1875 6.25 6.1875 6.25 3 6 C1.125 4.125 1.125 4.125 0 2 C0 1.34 0 0.68 0 0 Z " fill="#1B7046" transform="translate(416,194)"/>
<path d="M0 0 C1.74627478 2.61941217 2.38722388 4.03824877 3 7 C1.02 7.33 -0.96 7.66 -3 8 C-1.125 2.25 -1.125 2.25 0 0 Z " fill="#357F54" transform="translate(113,170)"/>
<path d="M0 0 C0.99 0.66 1.98 1.32 3 2 C2.67 3.32 2.34 4.64 2 6 C0.68 6 -0.64 6 -2 6 C-2.33 5.01 -2.66 4.02 -3 3 C-2.01 2.01 -1.02 1.02 0 0 Z " fill="#147440" transform="translate(483,154)"/>
<path d="M0 0 C1.65 0 3.3 0 5 0 C3.02 4.455 3.02 4.455 1 9 C0.67 9 0.34 9 0 9 C0 6.03 0 3.06 0 0 Z " fill="#1D6E45" transform="translate(180,114)"/>
<path d="M0 0 C0 0.66 0 1.32 0 2 C-0.99 2 -1.98 2 -3 2 C-3.33 2.66 -3.66 3.32 -4 4 C-4 3.34 -4 2.68 -4 2 C-6.64 2 -9.28 2 -12 2 C-12 1.67 -12 1.34 -12 1 C-7.9472484 0.01751476 -4.16138263 -0.08159574 0 0 Z " fill="#1D6E3F" transform="translate(194,96)"/>
<path d="M0 0 C3.00609963 1.00203321 4.06176821 1.60028446 6 4 C6 4.99 6 5.98 6 7 C4.35 6.67 2.7 6.34 1 6 C1.33 4.68 1.66 3.36 2 2 C1.34 2 0.68 2 0 2 C0 1.34 0 0.68 0 0 Z " fill="#116D3F" transform="translate(443,183)"/>
<path d="M0 0 C0.33 0.66 0.66 1.32 1 2 C1.66 2.33 2.32 2.66 3 3 C2.34 3 1.68 3 1 3 C1 3.66 1 4.32 1 5 C0.34 5 -0.32 5 -1 5 C-1 6.32 -1 7.64 -1 9 C-1.99 9.33 -2.98 9.66 -4 10 C-2.8905928 6.51329166 -1.73662334 3.22515763 0 0 Z " fill="#DAF3E4" transform="translate(100,167)"/>
<path d="M0 0 C-0.33 2.64 -0.66 5.28 -1 8 C-1.99 7.34 -2.98 6.68 -4 6 C-4.1875 3.375 -4.1875 3.375 -4 1 C-2 0 -2 0 0 0 Z " fill="#065F37" transform="translate(538,176)"/>
<path d="M0 0 C0.66 0.66 1.32 1.32 2 2 C1.34 3.32 0.68 4.64 0 6 C-1.32 5.67 -2.64 5.34 -4 5 C-3.34 3.68 -2.68 2.36 -2 1 C-1.67 1.33 -1.34 1.66 -1 2 C-0.67 1.34 -0.34 0.68 0 0 Z " fill="#186B3E" transform="translate(412,181)"/>
<path d="M0 0 C0.66 0.33 1.32 0.66 2 1 C1.34 2.98 0.68 4.96 0 7 C-0.33 6.01 -0.66 5.02 -1 4 C-2.32 4.33 -3.64 4.66 -5 5 C-3.35 3.35 -1.7 1.7 0 0 Z " fill="#1D6F41" transform="translate(491,146)"/>
<path d="M0 0 C2.6855594 2.6855594 3.06049974 5.37621328 4 9 C3.01 9 2.02 9 1 9 C1 7.02 1 5.04 1 3 C0.34 3 -0.32 3 -1 3 C-0.67 2.01 -0.34 1.02 0 0 Z " fill="#CDEAD9" transform="translate(108,135)"/>
<path d="M0 0 C1.32 0 2.64 0 4 0 C4.33 0.99 4.66 1.98 5 3 C3.02 3.99 3.02 3.99 1 5 C0.67 3.35 0.34 1.7 0 0 Z " fill="#11744F" transform="translate(180,221)"/>
<path d="M0 0 C0.99 0.33 1.98 0.66 3 1 C3.33 2.65 3.66 4.3 4 6 C2.35 6 0.7 6 -1 6 C-0.67 4.02 -0.34 2.04 0 0 Z " fill="#0D6734" transform="translate(536,192)"/>
<path d="M0 0 C0.66 0 1.32 0 2 0 C2.33 1.32 2.66 2.64 3 4 C2.01 4.66 1.02 5.32 0 6 C0 5.34 0 4.68 0 4 C-0.66 4 -1.32 4 -2 4 C-2 3.34 -2 2.68 -2 2 C-1.34 2 -0.68 2 0 2 C0 1.34 0 0.68 0 0 Z " fill="#0F6435" transform="translate(407,178)"/>
<path d="M0 0 C1.65 0 3.3 0 5 0 C5.33 0.66 5.66 1.32 6 2 C5.34 2.66 4.68 3.32 4 4 C3.01 4 2.02 4 1 4 C0.67 2.68 0.34 1.36 0 0 Z " fill="#076630" transform="translate(467,150)"/>
<path d="M0 0 C3 1 3 1 3 1 Z " fill="#1C4747" transform="translate(221,175)"/>
<path d="M0 0 C2 1 2 1 2 1 Z " fill="#2A2A2A" transform="translate(187,202)"/>
<path d="" fill="#404040" transform="translate(0,0)"/>
<path d="M0 0 C2 1 2 1 2 1 Z " fill="#555555" transform="translate(197,175)"/>
<path d="M0 0 C2 1 2 1 2 1 Z " fill="#004040" transform="translate(211,170)"/>
<path d="" fill="#2A2A2A" transform="translate(0,0)"/>
<path d="" fill="#404040" transform="translate(0,0)"/>
<path d="" fill="#808080" transform="translate(0,0)"/>
<path d="" fill="#000000" transform="translate(0,0)"/>
<path d="" fill="#000000" transform="translate(0,0)"/>
<path d="" fill="#808080" transform="translate(0,0)"/>
<path d="" fill="#000000" transform="translate(0,0)"/>
<path d="" fill="#494949" transform="translate(0,0)"/>
<path d="" fill="#408040" transform="translate(0,0)"/>
<path d="" fill="#000000" transform="translate(0,0)"/>
<path d="" fill="#555555" transform="translate(0,0)"/>
</svg>
