<?xml version="1.0" encoding="UTF-8"?>
<svg version="1.1" xmlns="http://www.w3.org/2000/svg" width="254" height="198">
<path d="M0 0 C32.34 0 64.68 0 98 0 C98.77750011 32.74139333 99.07099945 65.27501676 98 98 C93.71 98 89.42 98 85 98 C85.020625 100.124375 85.04125 102.24875 85.0625 104.4375 C85.08373783 106.62499611 85.07258946 108.81360547 85 111 C83.09158556 112.90841444 80.27055412 112.12675361 77.73094177 112.13552856 C76.82908646 112.13350433 75.92723114 112.1314801 74.99804688 112.12939453 C74.0534108 112.13114685 73.10877472 112.13289917 72.13551331 112.13470459 C68.9965738 112.1391248 65.85769013 112.13618452 62.71875 112.1328125 C60.54781076 112.13348549 58.3768716 112.13445547 56.20593262 112.13571167 C51.64948817 112.13718887 47.09306328 112.13503337 42.53662109 112.13037109 C36.68173414 112.1246738 30.82689302 112.12795268 24.97200775 112.13394356 C20.48719942 112.13754857 16.00240204 112.13641086 11.51759338 112.13381577 C9.35811864 112.13314633 7.19864291 112.1339755 5.03916931 112.13629532 C2.02673692 112.13882086 -0.98562013 112.13498264 -3.99804688 112.12939453 C-5.35082985 112.13243088 -5.35082985 112.13243088 -6.73094177 112.13552856 C-12.88573769 112.11426231 -12.88573769 112.11426231 -14 111 C-14.09529612 107.98649762 -14.12551904 104.99595894 -14.11352539 101.98217773 C-14.11367142 101.03593536 -14.11381744 100.08969299 -14.1139679 99.11477661 C-14.11326836 95.97102608 -14.10547409 92.82733399 -14.09765625 89.68359375 C-14.09579221 87.51025932 -14.09436824 85.33692448 -14.09336853 83.16358948 C-14.08954221 77.43098805 -14.07971097 71.69841177 -14.06866455 65.96582031 C-14.05845287 60.12109721 -14.05387143 54.27637007 -14.04882812 48.43164062 C-14.0380888 36.954416 -14.02101102 25.47721009 -14 14 C-10.8241293 13.33538984 -7.93508762 12.88245614 -4.6875 12.9375 C-2.8621875 12.9684375 -2.8621875 12.9684375 -1 13 C-0.67 8.71 -0.34 4.42 0 0 Z " fill="#A00102" transform="translate(84,30)"/>
<path d="M0 0 C1.99624877 1.99624877 1.18492342 5.99652758 1.20532227 8.73266602 C1.21535499 9.55549796 1.22538771 10.37832991 1.23572445 11.22609615 C1.26722415 13.90200377 1.29192764 16.57792613 1.31640625 19.25390625 C1.33479913 20.90100602 1.35363522 22.54810091 1.3729248 24.19519043 C1.44149863 30.31756904 1.50147048 36.44004154 1.5625 42.5625 C1.706875 56.236875 1.85125 69.91125 2 84 C29.72 84.33 57.44 84.66 86 85 C86 89.29 86 93.58 86 98 C84.09158556 99.90841444 81.27055412 99.12675361 78.73094177 99.13552856 C77.82908646 99.13350433 76.92723114 99.1314801 75.99804688 99.12939453 C75.0534108 99.13114685 74.10877472 99.13289917 73.13551331 99.13470459 C69.9965738 99.1391248 66.85769013 99.13618452 63.71875 99.1328125 C61.54781076 99.13348549 59.3768716 99.13445547 57.20593262 99.13571167 C52.64948817 99.13718887 48.09306328 99.13503337 43.53662109 99.13037109 C37.68173414 99.1246738 31.82689302 99.12795268 25.97200775 99.13394356 C21.48719942 99.13754857 17.00240204 99.13641086 12.51759338 99.13381577 C10.35811864 99.13314633 8.19864291 99.1339755 6.03916931 99.13629532 C3.02673692 99.13882086 0.01437987 99.13498264 -2.99804688 99.12939453 C-4.35082985 99.13243088 -4.35082985 99.13243088 -5.73094177 99.13552856 C-11.88573769 99.11426231 -11.88573769 99.11426231 -13 98 C-13.09529612 94.98649762 -13.12551904 91.99595894 -13.11352539 88.98217773 C-13.11367142 88.03593536 -13.11381744 87.08969299 -13.1139679 86.11477661 C-13.11326836 82.97102608 -13.10547409 79.82733399 -13.09765625 76.68359375 C-13.09579221 74.51025932 -13.09436824 72.33692448 -13.09336853 70.16358948 C-13.08954221 64.43098805 -13.07971097 58.69841177 -13.06866455 52.96582031 C-13.05845287 47.12109721 -13.05387143 41.27637007 -13.04882812 35.43164062 C-13.0380888 23.954416 -13.02101102 12.47721009 -13 1 C-8.5043637 0.0642609 -4.58971948 -0.15299065 0 0 Z " fill="#02999B" transform="translate(83,43)"/>
<path d="M0 0 C2.64 0 5.28 0 8 0 C10.97 6.27 13.94 12.54 17 19 C17.33 12.73 17.66 6.46 18 0 C20.97 0 23.94 0 27 0 C27 12.54 27 25.08 27 38 C24.03 38 21.06 38 18 38 C17.15115234 36.06833984 17.15115234 36.06833984 16.28515625 34.09765625 C15.5443926 32.41921709 14.80350055 30.74083459 14.0625 29.0625 C13.68931641 28.21236328 13.31613281 27.36222656 12.93164062 26.48632812 C12.57392578 25.67744141 12.21621094 24.86855469 11.84765625 24.03515625 C11.51773682 23.2862915 11.18781738 22.53742676 10.84790039 21.76586914 C10.12883338 20.01837904 10.12883338 20.01837904 9 19 C8.67 25.27 8.34 31.54 8 38 C5.36 38 2.72 38 0 38 C0 25.46 0 12.92 0 0 Z " fill="#F3E0DE" transform="translate(97,72)"/>
<path d="M0 0 C2.97 0 5.94 0 9 0 C10.32 2.97 11.64 5.94 13 9 C15.32472205 6.14693203 16.7508258 3.45925163 18 0 C20.97 0 23.94 0 27 0 C25.79598316 4.81606736 23.61720296 8.67245285 21.27734375 13.02734375 C19.93097235 16.16064233 19.47579412 17.656279 20 21 C21.09455623 23.46275151 22.21518598 25.76868084 23.5 28.125 C27 34.625 27 34.625 27 38 C24.03 38 21.06 38 18 38 C17.72285156 37.28972656 17.44570312 36.57945313 17.16015625 35.84765625 C16.79792969 34.92855469 16.43570313 34.00945312 16.0625 33.0625 C15.70285156 32.14597656 15.34320313 31.22945312 14.97265625 30.28515625 C14.2003782 28.07581467 14.2003782 28.07581467 13 27 C11.68 30.63 10.36 34.26 9 38 C6.03 38 3.06 38 0 38 C0.61462207 33.70562765 2.19790697 30.45849503 4.1875 26.625 C6.54252943 21.71102492 6.54252943 21.71102492 6.6875 16.375 C6.130625 15.26125 5.57375 14.1475 5 13 C4.12028849 11.06463468 3.24562814 9.12696846 2.375 7.1875 C1.92898437 6.25292969 1.48296875 5.31835938 1.0234375 4.35546875 C0 2 0 2 0 0 Z " fill="#F9EAE8" transform="translate(128,72)"/>
<path d="M0 0 C1.79244141 0.01740234 1.79244141 0.01740234 3.62109375 0.03515625 C5.41740234 0.04869141 5.41740234 0.04869141 7.25 0.0625 C8.17683594 0.07410156 9.10367188 0.08570313 10.05859375 0.09765625 C9.72859375 1.74765625 9.39859375 3.39765625 9.05859375 5.09765625 C7.07859375 5.09765625 5.09859375 5.09765625 3.05859375 5.09765625 C3.05859375 5.75765625 3.05859375 6.41765625 3.05859375 7.09765625 C5.03859375 7.09765625 7.01859375 7.09765625 9.05859375 7.09765625 C8.85234375 7.88140625 8.64609375 8.66515625 8.43359375 9.47265625 C8.30984375 10.33890625 8.18609375 11.20515625 8.05859375 12.09765625 C8.71859375 12.75765625 9.37859375 13.41765625 10.05859375 14.09765625 C10.11917969 13.17082031 10.17976563 12.24398437 10.2421875 11.2890625 C10.32597656 10.09152344 10.40976563 8.89398438 10.49609375 7.66015625 C10.57730469 6.46519531 10.65851563 5.27023438 10.7421875 4.0390625 C11.05859375 1.09765625 11.05859375 1.09765625 12.05859375 0.09765625 C14.39156808 0.05672688 16.725646 0.05523902 19.05859375 0.09765625 C20.04859375 2.07765625 21.03859375 4.05765625 22.05859375 6.09765625 C23.56418914 4.13383618 24.94991058 2.31502259 26.05859375 0.09765625 C28.3915415 0.05523902 30.72561942 0.05672688 33.05859375 0.09765625 C35.10873988 2.14780238 34.2891735 6.22650213 34.30859375 9.03515625 C34.32921875 9.77701172 34.34984375 10.51886719 34.37109375 11.28320312 C34.38671875 13.4375 34.38671875 13.4375 34.05859375 17.09765625 C31.05859375 19.09765625 31.05859375 19.09765625 28.93359375 18.91015625 C28.31484375 18.64203125 27.69609375 18.37390625 27.05859375 18.09765625 C26.72859375 17.10765625 26.39859375 16.11765625 26.05859375 15.09765625 C25.72859375 16.08765625 25.39859375 17.07765625 25.05859375 18.09765625 C23.18359375 18.97265625 23.18359375 18.97265625 21.05859375 19.09765625 C19.30859375 17.66015625 19.30859375 17.66015625 18.05859375 16.09765625 C17.06859375 17.08765625 16.07859375 18.07765625 15.05859375 19.09765625 C13.73859375 18.43765625 12.41859375 17.77765625 11.05859375 17.09765625 C10.39859375 17.75765625 9.73859375 18.41765625 9.05859375 19.09765625 C4.46226698 19.32370511 0.55657887 19.0788921 -3.94140625 18.09765625 C-3.96824937 15.28509344 -3.98816813 12.47278384 -4.00390625 9.66015625 C-4.01228516 8.85771484 -4.02066406 8.05527344 -4.02929688 7.22851562 C-4.03792055 5.18470404 -3.99368775 3.14081723 -3.94140625 1.09765625 C-2.94140625 0.09765625 -2.94140625 0.09765625 0 0 Z " fill="#08A6A9" transform="translate(97.94140625,148.90234375)"/>
<path d="M0 0 C32.34 0 64.68 0 98 0 C98.185625 7.816875 98.37125 15.63375 98.5625 23.6875 C98.62381104 26.04479248 98.68512207 28.40208496 98.74829102 30.83081055 C99.25772356 53.2308625 98.60317088 75.60736253 98 98 C85.37004515 98.02312132 72.7400953 98.04091401 60.11012363 98.05181217 C54.24617836 98.05704146 48.38224751 98.06413994 42.51831055 98.07543945 C36.86438288 98.0862667 31.21046913 98.09227649 25.55653191 98.09487724 C23.3942639 98.09673179 21.23199669 98.10035295 19.06973457 98.10573006 C16.05241343 98.11293833 13.03515057 98.11399103 10.01782227 98.11352539 C9.1143959 98.11712067 8.21096954 98.12071594 7.28016663 98.12442017 C1.11405216 98.11405216 1.11405216 98.11405216 0 97 C-0.09529717 93.98646428 -0.12550598 90.99599021 -0.11352539 87.98217773 C-0.11364593 87.02057519 -0.11376646 86.05897264 -0.11389065 85.06823063 C-0.11314127 81.93999521 -0.10551189 78.81181858 -0.09765625 75.68359375 C-0.09618691 73.75850452 -0.09516615 71.8334149 -0.09460449 69.9083252 C-0.0893507 62.75137739 -0.07538963 55.59443813 -0.0625 48.4375 C-0.041875 32.453125 -0.02125 16.46875 0 0 Z M1 1 C1.33 32.35 1.66 63.7 2 96 C49.025 96.495 49.025 96.495 97 97 C97 65.32 97 33.64 97 1 C65.32 1 33.64 1 1 1 Z " fill="#632423" transform="translate(84,30)"/>
<path d="M0 0 C0.91587891 -0.04576172 1.83175781 -0.09152344 2.77539062 -0.13867188 C9.41850347 -0.2499549 9.41850347 -0.2499549 11.71630859 1.80419922 C12.82421875 3.46484375 12.82421875 3.46484375 14.1875 6.4375 C14.5175 4.4575 14.8475 2.4775 15.1875 0.4375 C17.6625 0.9325 17.6625 0.9325 20.1875 1.4375 C20.1875 7.0475 20.1875 12.6575 20.1875 18.4375 C18.5375 18.7675 16.8875 19.0975 15.1875 19.4375 C12.375 17 12.375 17 10.1875 14.4375 C9.5275 16.0875 8.8675 17.7375 8.1875 19.4375 C7.383125 19.251875 6.57875 19.06625 5.75 18.875 C4.904375 18.730625 4.05875 18.58625 3.1875 18.4375 C2.8575 18.7675 2.5275 19.0975 2.1875 19.4375 C0.377215 19.53629565 -1.43702727 19.56721514 -3.25 19.5625 C-4.73306641 19.56636719 -4.73306641 19.56636719 -6.24609375 19.5703125 C-8.8125 19.4375 -8.8125 19.4375 -10.8125 18.4375 C-10.83934312 15.62493719 -10.85926188 12.81262759 -10.875 10 C-10.88337891 9.19755859 -10.89175781 8.39511719 -10.90039062 7.56835938 C-10.9090143 5.52454779 -10.8647815 3.48066098 -10.8125 1.4375 C-8.48947523 -0.88552477 -3.11485837 0.06277338 0 0 Z M-3.8125 5.4375 C-3.8125 6.0975 -3.8125 6.7575 -3.8125 7.4375 C-1.8325 7.4375 0.1475 7.4375 2.1875 7.4375 C1.8575 8.7575 1.5275 10.0775 1.1875 11.4375 C-0.4625 11.7675 -2.1125 12.0975 -3.8125 12.4375 C-3.8125 12.7675 -3.8125 13.0975 -3.8125 13.4375 C-1.5025 13.7675 0.8075 14.0975 3.1875 14.4375 C3.5175 11.4675 3.8475 8.4975 4.1875 5.4375 C1.32572943 4.00661472 -0.74625773 4.83758303 -3.8125 5.4375 Z " fill="#189FA2" transform="translate(144.8125,148.5625)"/>
<path d="M0 0 C1.74292177 1.74292177 1.11980303 4.00623495 1.12442017 6.32824707 C1.12082489 7.09141235 1.11722961 7.85457764 1.11352539 8.64086914 C1.11367142 9.44080795 1.11381744 10.24074677 1.1139679 11.06492615 C1.11326855 13.72169665 1.10547518 16.37839793 1.09765625 19.03515625 C1.09579215 20.87218691 1.09436821 22.70921806 1.09336853 24.54624939 C1.08954275 29.39109662 1.07971196 34.23591408 1.06866455 39.08074951 C1.05845172 44.02062578 1.05387119 48.96050685 1.04882812 53.90039062 C1.03808974 63.60027353 1.0210126 73.30013429 1 83 C0.67 83 0.34 83 0 83 C-0.33 56.6 -0.66 30.2 -1 3 C-4.63 2.67 -8.26 2.34 -12 2 C-12 33.35 -12 64.7 -12 97 C19.68 97.33 51.36 97.66 84 98 C84 94.04 84 90.08 84 86 C56.61 86 29.22 86 1 86 C1.495 85.01 1.495 85.01 2 84 C29.72 84.33 57.44 84.66 86 85 C86 89.29 86 93.58 86 98 C84.09158556 99.90841444 81.27055412 99.12675361 78.73094177 99.13552856 C77.82908646 99.13350433 76.92723114 99.1314801 75.99804688 99.12939453 C75.0534108 99.13114685 74.10877472 99.13289917 73.13551331 99.13470459 C69.9965738 99.1391248 66.85769013 99.13618452 63.71875 99.1328125 C61.54781076 99.13348549 59.3768716 99.13445547 57.20593262 99.13571167 C52.64948817 99.13718887 48.09306328 99.13503337 43.53662109 99.13037109 C37.68173414 99.1246738 31.82689302 99.12795268 25.97200775 99.13394356 C21.48719942 99.13754857 17.00240204 99.13641086 12.51759338 99.13381577 C10.35811864 99.13314633 8.19864291 99.1339755 6.03916931 99.13629532 C3.02673692 99.13882086 0.01437987 99.13498264 -2.99804688 99.12939453 C-4.35082985 99.13243088 -4.35082985 99.13243088 -5.73094177 99.13552856 C-11.88573769 99.11426231 -11.88573769 99.11426231 -13 98 C-13.09529612 94.98649762 -13.12551904 91.99595894 -13.11352539 88.98217773 C-13.11367142 88.03593536 -13.11381744 87.08969299 -13.1139679 86.11477661 C-13.11326836 82.97102608 -13.10547409 79.82733399 -13.09765625 76.68359375 C-13.09579221 74.51025932 -13.09436824 72.33692448 -13.09336853 70.16358948 C-13.08954221 64.43098805 -13.07971097 58.69841177 -13.06866455 52.96582031 C-13.05845287 47.12109721 -13.05387143 41.27637007 -13.04882812 35.43164062 C-13.0380888 23.954416 -13.02101102 12.47721009 -13 1 C-8.5043637 0.0642609 -4.58971948 -0.15299065 0 0 Z " fill="#218488" transform="translate(83,43)"/>
<path d="M0 0 C4 1 4 1 5.88671875 3.73046875 C6.48097656 4.87128906 7.07523438 6.01210937 7.6875 7.1875 C8.28949219 8.31542969 8.89148438 9.44335938 9.51171875 10.60546875 C12.67843714 17.82824638 12.67843714 17.82824638 11.42944336 21.82641602 C10.57270866 23.82916917 9.62730422 25.75366494 8.625 27.6875 C6.06834225 32.73786655 6.06834225 32.73786655 4 38 C6.97 38 9.94 38 13 38 C13.33 36.68 13.66 35.36 14 34 C14.50139889 32.57633889 15.02224046 31.15937271 15.5625 29.75 C15.83191406 29.04359375 16.10132813 28.3371875 16.37890625 27.609375 C16.58386719 27.07828125 16.78882813 26.5471875 17 26 C20.28670403 29.28670403 22 33.35868331 22 38 C24.97 38 27.94 38 31 38 C30.505 36.02 30.505 36.02 30 34 C30.99 34.33 31.98 34.66 33 35 C32.67 36.32 32.34 37.64 32 39 C29.70858714 39.05384521 27.41681812 39.09272087 25.125 39.125 C23.84882813 39.14820313 22.57265625 39.17140625 21.2578125 39.1953125 C18 39 18 39 16 37 C15.34 37.66 14.68 38.32 14 39 C11.3203125 39.16015625 11.3203125 39.16015625 8.125 39.0625 C4.48167055 38.9595558 1.51020581 39.09652931 -2 40 C-4.34114367 39.72686657 -6.67750658 39.40197001 -9 39 C-9 38.67 -9 38.34 -9 38 C-6.03 38 -3.06 38 0 38 C0 25.46 0 12.92 0 0 Z " fill="#960809" transform="translate(124,72)"/>
<path d="M0 0 C31.68 0 63.36 0 96 0 C96 31.68 96 63.36 96 96 C64.65 95.67 33.3 95.34 1 95 C0.67 63.65 0.34 32.3 0 0 Z M2.28483391 2.39748001 C-0.06272231 5.32548941 0.76671937 8.3841502 1 12 C1.33 12.33 1.66 12.66 2 13 C2.095044 15.52544976 2.1255585 18.02333418 2.11352539 20.54907227 C2.11364593 21.35207984 2.11376646 22.15508741 2.11389065 22.98242855 C2.11314149 25.59378218 2.10551312 28.20506531 2.09765625 30.81640625 C2.09618684 32.42378709 2.09516612 34.0311684 2.09460449 35.6385498 C2.08935148 41.61320714 2.07539041 47.58785426 2.0625 53.5625 C2.041875 66.906875 2.02125 80.25125 2 94 C32.36 94.33 62.72 94.66 94 95 C95.29252568 91.12242296 95.13925856 87.45429173 95.12939453 83.41357422 C95.13114685 82.53692108 95.13289917 81.66026794 95.13470459 80.75704956 C95.13910993 77.85624214 95.13619023 74.95549555 95.1328125 72.0546875 C95.1334858 70.04354846 95.13445604 68.03240951 95.13571167 66.02127075 C95.13718676 61.80632757 95.13503969 57.59140557 95.13037109 53.37646484 C95.1246666 47.96106727 95.12795857 42.54571918 95.13394356 37.13032341 C95.13754802 32.97835921 95.13641124 28.82640684 95.13381577 24.67444229 C95.13314656 22.67685058 95.13397471 20.67925781 95.13629532 18.68166733 C95.13882076 15.89696126 95.13498314 13.11233668 95.12939453 10.32763672 C95.13243088 9.07774963 95.13243088 9.07774963 95.13552856 7.8026123 C95.47684265 4.09892617 95.47684265 4.09892617 94 1 C91.2162277 0.88883173 88.45703456 0.84260297 85.67236328 0.83886719 C84.36264053 0.83141983 84.36264053 0.83141983 83.02645874 0.82382202 C80.12440211 0.80916067 77.22240015 0.80239179 74.3203125 0.796875 C72.31110634 0.79112678 70.3019002 0.78536902 68.29269409 0.77960205 C64.07419579 0.76908072 59.85571662 0.76324549 55.63720703 0.75976562 C50.22409815 0.75427875 44.81124054 0.73025131 39.39821053 0.70179367 C35.24615738 0.68319613 31.0941651 0.67796323 26.94207382 0.67642975 C24.94612123 0.67339612 22.95016988 0.66534383 20.95425797 0.65224457 C18.16478462 0.63524432 15.3759295 0.63704951 12.58642578 0.64355469 C11.75721619 0.6343399 10.92800659 0.62512512 10.07366943 0.6156311 C5.8748877 0.52511226 5.8748877 0.52511226 2.28483391 2.39748001 Z " fill="#8C0405" transform="translate(85,31)"/>
<path d="M0 0 C2.64 0 5.28 0 8 0 C9.50626117 3.12202006 11.00393243 6.24808399 12.5 9.375 C12.92925781 10.26445313 13.35851562 11.15390625 13.80078125 12.0703125 C14.20683594 12.92109375 14.61289063 13.771875 15.03125 14.6484375 C15.40830078 15.43395996 15.78535156 16.21948242 16.17382812 17.02880859 C17 19 17 19 17 21 C16.34 21 15.68 21 15 21 C15 20.34 15 19.68 15 19 C14.34 19 13.68 19 13 19 C12.34 19.99 11.68 20.98 11 22 C10.34 21.01 9.68 20.02 9 19 C8.67 25.27 8.34 31.54 8 38 C5.36 38 2.72 38 0 38 C0 25.46 0 12.92 0 0 Z " fill="#FCF4F2" transform="translate(97,72)"/>
<path d="M0 0 C0 1.65 0 3.3 0 5 C-1.32 5.33 -2.64 5.66 -4 6 C-2.35 6.99 -0.7 7.98 1 9 C1.144375 7.700625 1.28875 6.40125 1.4375 5.0625 C1.875 1.125 1.875 1.125 3 0 C5.5 -0.125 5.5 -0.125 8 0 C9 1 9 1 9.09765625 4.59765625 C9.0909822 6.08596867 9.07902183 7.57426432 9.0625 9.0625 C9.05798828 9.82111328 9.05347656 10.57972656 9.04882812 11.36132812 C9.0370068 13.24091871 9.01907078 15.12046899 9 17 C7.35 17.66 5.7 18.32 4 19 C3.01 18.01 2.02 17.02 1 16 C0.319375 16.495 -0.36125 16.99 -1.0625 17.5 C-4.62709463 19.32021853 -7.04562205 19.29844362 -11 19 C-11.66 18.67 -12.32 18.34 -13 18 C-12.67 16.35 -12.34 14.7 -12 13 C-10.35 13 -8.7 13 -7 13 C-7.99 12.46375 -8.98 11.9275 -10 11.375 C-13 9 -13 9 -13.5625 5.9375 C-12.96290157 2.80626377 -12.52681935 1.84652184 -10 0 C-6.7169902 -1.6415049 -3.57454967 -0.51888624 0 0 Z " fill="#0FA8AF" transform="translate(83,149)"/>
<path d="M0 0 C-0.3125 1.9375 -0.3125 1.9375 -1 4 C-1.99 4.33 -2.98 4.66 -4 5 C-3.175 5.53625 -2.35 6.0725 -1.5 6.625 C1 9 1 9 1.625 12.0625 C1 15 1 15 -0.9375 16.9375 C-5.16652133 18.40471148 -8.6599918 17.78479451 -13 17 C-12.67 15.35 -12.34 13.7 -12 12 C-10.35 12 -8.7 12 -7 12 C-7.99 11.46375 -8.98 10.9275 -10 10.375 C-13 8 -13 8 -13.5625 4.9375 C-12.9575658 1.77839919 -12.62605493 0.78196585 -10 -1 C-6.29331552 -2.66161718 -3.65130079 -1.41072985 0 0 Z " fill="#1B9BA0" transform="translate(180,150)"/>
<path d="M0 0 C1.79244141 0.01740234 1.79244141 0.01740234 3.62109375 0.03515625 C5.41740234 0.04869141 5.41740234 0.04869141 7.25 0.0625 C8.17683594 0.07410156 9.10367188 0.08570313 10.05859375 0.09765625 C9.72859375 1.74765625 9.39859375 3.39765625 9.05859375 5.09765625 C7.07859375 5.09765625 5.09859375 5.09765625 3.05859375 5.09765625 C3.05859375 5.75765625 3.05859375 6.41765625 3.05859375 7.09765625 C5.03859375 7.09765625 7.01859375 7.09765625 9.05859375 7.09765625 C8.72859375 8.74765625 8.39859375 10.39765625 8.05859375 12.09765625 C6.18359375 11.78515625 6.18359375 11.78515625 4.05859375 11.09765625 C1.90665005 7.8697407 1.85772932 6.81364816 2.05859375 3.09765625 C0.73859375 2.76765625 -0.58140625 2.43765625 -1.94140625 2.09765625 C-1.82799134 4.57786122 -1.70125939 7.05610594 -1.56640625 9.53515625 C-1.52 10.59573242 -1.52 10.59573242 -1.47265625 11.67773438 C-1.36859996 13.49004813 -1.16220733 15.29583613 -0.94140625 17.09765625 C-0.28140625 17.42765625 0.37859375 17.75765625 1.05859375 18.09765625 C-0.59140625 18.09765625 -2.24140625 18.09765625 -3.94140625 18.09765625 C-3.96824937 15.28509344 -3.98816813 12.47278384 -4.00390625 9.66015625 C-4.01228516 8.85771484 -4.02066406 8.05527344 -4.02929688 7.22851562 C-4.03792055 5.18470404 -3.99368775 3.14081723 -3.94140625 1.09765625 C-2.94140625 0.09765625 -2.94140625 0.09765625 0 0 Z " fill="#19969E" transform="translate(97.94140625,148.90234375)"/>
<path d="M0 0 C2.97 0.495 2.97 0.495 6 1 C5.01 1.495 5.01 1.495 4 2 C5.24976756 5.65316671 5.67098753 6.78065836 9 9 C8.01 9.33 7.02 9.66 6 10 C5.67 10.66 5.34 11.32 5 12 C5.66 12.33 6.32 12.66 7 13 C6.67 13.33 6.34 13.66 6 14 C7.98 14 9.96 14 12 14 C11.67 14.99 11.34 15.98 11 17 C8.36 17 5.72 17 3 17 C3 16.34 3 15.68 3 15 C2.34 15 1.68 15 1 15 C-0.44207941 12.11584117 -0.09394887 9.58278472 -0.0625 6.375 C-0.05347656 5.18648437 -0.04445313 3.99796875 -0.03515625 2.7734375 C-0.02355469 1.85820312 -0.01195313 0.94296875 0 0 Z " fill="#0EABAF" transform="translate(96,151)"/>
<path d="M0 0 C1.134375 0.020625 2.26875 0.04125 3.4375 0.0625 C4.4275 2.3725 5.4175 4.6825 6.4375 7.0625 C5.4475 7.0625 4.4575 7.0625 3.4375 7.0625 C3.1075 5.4125 2.7775 3.7625 2.4375 2.0625 C0.7875 2.3925 -0.8625 2.7225 -2.5625 3.0625 C-2.5625 6.0325 -2.5625 9.0025 -2.5625 12.0625 C-1.9025 11.4025 -1.2425 10.7425 -0.5625 10.0625 C0.86694945 12.41688733 1.52411261 13.54282433 1.0625 16.3125 C0.85625 16.89 0.65 17.4675 0.4375 18.0625 C-3.5625 18.0625 -3.5625 18.0625 -6.5625 17.0625 C-8.56211564 17.02329185 -10.56299364 17.01806653 -12.5625 17.0625 C-12.5625 15.72916667 -12.5625 14.39583333 -12.5625 13.0625 C-10.56295254 13.01995644 -8.56208364 13.02169217 -6.5625 13.0625 C-6.2325 13.3925 -5.9025 13.7225 -5.5625 14.0625 C-5.50191406 13.13566406 -5.44132812 12.20882812 -5.37890625 11.25390625 C-5.29511719 10.05636719 -5.21132812 8.85882813 -5.125 7.625 C-5.04378906 6.43003906 -4.96257812 5.23507813 -4.87890625 4.00390625 C-4.41985731 -0.2635487 -4.4256484 0.07764295 0 0 Z " fill="#2B9CA0" transform="translate(113.5625,148.9375)"/>
<path d="M0 0 C3.28670403 3.28670403 5 7.35868331 5 12 C7.97 12 10.94 12 14 12 C13.67 10.68 13.34 9.36 13 8 C13.99 8.33 14.98 8.66 16 9 C15.67 10.32 15.34 11.64 15 13 C12.70858714 13.05384521 10.41681812 13.09272087 8.125 13.125 C6.21074219 13.15980469 6.21074219 13.15980469 4.2578125 13.1953125 C1 13 1 13 -1 11 C-1.66 11.66 -2.32 12.32 -3 13 C-5.6015625 13.1953125 -5.6015625 13.1953125 -8.625 13.125 C-10.12933594 13.09792969 -10.12933594 13.09792969 -11.6640625 13.0703125 C-12.43492187 13.04710938 -13.20578125 13.02390625 -14 13 C-13.67 12.34 -13.34 11.68 -13 11 C-10.03 11.33 -7.06 11.66 -4 12 C-3.67 10.68 -3.34 9.36 -3 8 C-2.49860111 6.57633889 -1.97775954 5.15937271 -1.4375 3.75 C-1.16808594 3.04359375 -0.89867187 2.3371875 -0.62109375 1.609375 C-0.41613281 1.07828125 -0.21117187 0.5471875 0 0 Z " fill="#961C1D" transform="translate(141,98)"/>
<path d="M0 0 C3.32613726 0.29565665 5.41109347 0.50311011 8 2.6875 C9 5 9 5 8.4375 8.125 C7 11 7 11 5.3125 12.375 C1.52011319 13.39996941 -2.42544239 13.7872788 -6 12 C-5.67 10.35 -5.34 8.7 -5 7 C-3.01432292 7.29296875 -1.02864583 7.5859375 0.95703125 7.87890625 C3.2025342 8.13904799 3.2025342 8.13904799 6 7 C6 5.68 6 4.36 6 3 C4.68 3 3.36 3 2 3 C2 2.34 2 1.68 2 1 C1.34 0.67 0.68 0.34 0 0 Z " fill="#259B9C" transform="translate(76,155)"/>
<path d="M0 0 C-0.33 1.32 -0.66 2.64 -1 4 C-1.99 3.67 -2.98 3.34 -4 3 C-5.33106622 2.65772583 -6.66400079 2.32248257 -8 2 C-8 2.66 -8 3.32 -8 4 C-8.66 4.66 -9.32 5.32 -10 6 C-10 6.66 -10 7.32 -10 8 C-9.01 8 -8.02 8 -7 8 C-6.67 8.99 -6.34 9.98 -6 11 C-11.875 9.125 -11.875 9.125 -13 8 C-13.46332046 2.67181467 -13.46332046 2.67181467 -11.75 0.1875 C-7.43726154 -2.73900109 -4.7450744 -1.8333242 0 0 Z " fill="#159BA0" transform="translate(180,150)"/>
<path d="M0 0 C2.96052484 3.36423277 3.92289822 6.69159287 5 11 C4.34 11 3.68 11 3 11 C3 10.34 3 9.68 3 9 C2.34 9 1.68 9 1 9 C0.01 10.485 0.01 10.485 -1 12 C-1.66 11.01 -2.32 10.02 -3 9 C-3.33 15.27 -3.66 21.54 -4 28 C-4.33 28 -4.66 28 -5 28 C-5 20.41 -5 12.82 -5 5 C-3.35 4.67 -1.7 4.34 0 4 C0 2.68 0 1.36 0 0 Z " fill="#E5B7B4" transform="translate(109,82)"/>
<path d="M0 0 C2.50029458 3.3337261 4.03494563 5.99825494 5.6875 9.75 C6.12449219 10.73484375 6.56148438 11.7196875 7.01171875 12.734375 C7.33785156 13.48203125 7.66398437 14.2296875 8 15 C7.01 15.495 7.01 15.495 6 16 C5.01 14.68 4.02 13.36 3 12 C2.95101562 12.63808594 2.90203125 13.27617188 2.8515625 13.93359375 C2.77679688 14.75988281 2.70203125 15.58617188 2.625 16.4375 C2.52058594 17.67306641 2.52058594 17.67306641 2.4140625 18.93359375 C2.27742188 19.61550781 2.14078125 20.29742187 2 21 C1.34 21.33 0.68 21.66 0 22 C0 14.74 0 7.48 0 0 Z " fill="#8B0408" transform="translate(105,88)"/>
<path d="M0 0 C0.33 0 0.66 0 1 0 C1 6.93 1 13.86 1 21 C-1.6906142 17.4125144 -3.36237237 14.30583919 -5.1875 10.25 C-5.71730469 9.07953125 -6.24710937 7.9090625 -6.79296875 6.703125 C-7.19128906 5.81109375 -7.58960937 4.9190625 -8 4 C-7.01 4 -6.02 4 -5 4 C-5 5.32 -5 6.64 -5 8 C-4.01 8 -3.02 8 -2 8 C-1.34 5.36 -0.68 2.72 0 0 Z " fill="#930B0C" transform="translate(114,72)"/>
<path d="M0 0 C2.8125 -0.25 2.8125 -0.25 6 0 C8.467339 2.2206051 8.96152446 3.43569203 9.1875 6.75 C9.125625 7.4925 9.06375 8.235 9 9 C8.01 9 7.02 9 6 9 C5.34 10.32 4.68 11.64 4 13 C1.45884755 10.45884755 1.56437677 8.44778721 1.24609375 4.97265625 C1.03952945 2.7913298 1.03952945 2.7913298 0 0 Z " fill="#06A4A6" transform="translate(148,150)"/>
<path d="M0 0 C2.5 0.125 2.5 0.125 3.5 1.125 C3.57319621 3.82154854 3.59242537 6.49191458 3.5625 9.1875 C3.55798828 9.94611328 3.55347656 10.70472656 3.54882812 11.48632812 C3.5370068 13.36591871 3.51907078 15.24546899 3.5 17.125 C1.125 18.1875 1.125 18.1875 -1.5 19.125 C-2.16 18.795 -2.82 18.465 -3.5 18.125 C-3.005 16.64 -3.005 16.64 -2.5 15.125 C-0.85 15.455 0.8 15.785 2.5 16.125 C2.17 11.835 1.84 7.545 1.5 3.125 C0.51 3.125 -0.48 3.125 -1.5 3.125 C-1.83 5.105 -2.16 7.085 -2.5 9.125 C-2.83 9.125 -3.16 9.125 -3.5 9.125 C-3.59765625 2.97265625 -3.59765625 2.97265625 -3.5 1.125 C-2.5 0.125 -2.5 0.125 0 0 Z " fill="#26999C" transform="translate(88.5,148.875)"/>
<path d="M0 0 C2.33294775 -0.04241723 4.66702567 -0.04092937 7 0 C9.05014613 2.05014613 8.23057975 6.12884588 8.25 8.9375 C8.270625 9.67935547 8.29125 10.42121094 8.3125 11.18554688 C8.328125 13.33984375 8.328125 13.33984375 8 17 C5 19 5 19 2.8125 18.625 C1.9153125 18.315625 1.9153125 18.315625 1 18 C1.33 16.68 1.66 15.36 2 14 C2.33 14.66 2.66 15.32 3 16 C3.99 16.33 4.98 16.66 6 17 C6 12.05 6 7.1 6 2 C1.39467611 2.69302969 1.39467611 2.69302969 -1 4 C-0.67 2.68 -0.34 1.36 0 0 Z " fill="#2B9AA0" transform="translate(124,149)"/>
<path d="M0 0 C4.29 0 8.58 0 13 0 C12.67 1.65 12.34 3.3 12 5 C10.02 5 8.04 5 6 5 C6 5.66 6 6.32 6 7 C7.98 7 9.96 7 12 7 C11.67 8.65 11.34 10.3 11 12 C9.125 11.6875 9.125 11.6875 7 11 C5 8 5 8 5 4 C8.465 3.505 8.465 3.505 12 3 C12 2.34 12 1.68 12 1 C8.04 1 4.08 1 0 1 C0 0.67 0 0.34 0 0 Z " fill="#28959F" transform="translate(95,149)"/>
<path d="M0 0 C3.3 0 6.6 0 10 0 C10 0.33 10 0.66 10 1 C7.03 1 4.06 1 1 1 C0.80664062 1.61488281 0.61328125 2.22976562 0.4140625 2.86328125 C0.15367187 3.67152344 -0.10671875 4.47976562 -0.375 5.3125 C-0.63023437 6.11300781 -0.88546875 6.91351563 -1.1484375 7.73828125 C-2 10 -2 10 -4 13 C-5.32 9.37 -6.64 5.74 -8 2 C-5.69 2.66 -3.38 3.32 -1 4 C-0.67 2.68 -0.34 1.36 0 0 Z " fill="#8F1719" transform="translate(145,71)"/>
<path d="M0 0 C3.28220895 1.64110448 3.74570789 4.69322988 5 8 C5 8.99 5 9.98 5 11 C5.45375 10.505 5.9075 10.01 6.375 9.5 C8 8 8 8 10 8 C10.66 5.36 11.32 2.72 12 0 C12.66 0 13.32 0 14 0 C13.67 2.31 13.34 4.62 13 7 C12.34 7 11.68 7 11 7 C10.67 8.65 10.34 10.3 10 12 C8.1875 12.6875 8.1875 12.6875 6 13 C4.25 11.6875 4.25 11.6875 3 10 C3 9.34 3 8.68 3 8 C2.34 8 1.68 8 1 8 C0.67 5.36 0.34 2.72 0 0 Z " fill="#29ACB3" transform="translate(113,155)"/>
<path d="M0 0 C0 1.65 0 3.3 0 5 C-0.33 4.34 -0.66 3.68 -1 3 C-4.3 3 -7.6 3 -11 3 C-10.67 4.65 -10.34 6.3 -10 8 C-10.66 8 -11.32 8 -12 8 C-12.6875 5.6875 -12.6875 5.6875 -13 3 C-9.25417968 -1.9944271 -5.60234195 -0.81324319 0 0 Z " fill="#189396" transform="translate(83,149)"/>
<path d="M0 0 C2.78637633 4.1795645 1.79562512 6.14668677 1 11 C-2 12 -2 12 -4.1875 11.0625 C-4.785625 10.711875 -5.38375 10.36125 -6 10 C-5.67 7.69 -5.34 5.38 -5 3 C-4.34 3 -3.68 3 -3 3 C-2.01 4.485 -2.01 4.485 -1 6 C-0.67 4.02 -0.34 2.04 0 0 Z " fill="#1CA7AF" transform="translate(153,156)"/>
<path d="M0 0 C1.65 0 3.3 0 5 0 C4.01 1.485 4.01 1.485 3 3 C3 3.99 3 4.98 3 6 C3.66 6 4.32 6 5 6 C5.33 7.98 5.66 9.96 6 12 C3.525 11.01 3.525 11.01 1 10 C1 8.68 1 7.36 1 6 C0.01 6 -0.98 6 -2 6 C-2.33 5.01 -2.66 4.02 -3 3 C-2.01 2.67 -1.02 2.34 0 2 C0 1.34 0 0.68 0 0 Z " fill="#07ABAD" transform="translate(172,152)"/>
<path d="M0 0 C0.99 0.33 1.98 0.66 3 1 C3 1.66 3 2.32 3 3 C4.32 3.66 5.64 4.32 7 5 C7 5.66 7 6.32 7 7 C6.01 7 5.02 7 4 7 C3.67 7.99 3.34 8.98 3 10 C2.34 9.67 1.68 9.34 1 9 C0.5859375 6.93359375 0.5859375 6.93359375 0.375 4.4375 C0.30023438 3.61121094 0.22546875 2.78492187 0.1484375 1.93359375 C0.09945312 1.29550781 0.05046875 0.65742187 0 0 Z " fill="#F6E3DE" transform="translate(109,90)"/>
<path d="M0 0 C5.53846154 0.49230769 5.53846154 0.49230769 7.875 3.0625 C8.431875 4.0215625 8.431875 4.0215625 9 5 C7.84826645 7.46800047 6.95216435 9.04783565 5 11 C4.01 10.67 3.02 10.34 2 10 C2.66 9.01 3.32 8.02 4 7 C4.66 7 5.32 7 6 7 C6 5.68 6 4.36 6 3 C4.68 3 3.36 3 2 3 C2 2.34 2 1.68 2 1 C1.34 0.67 0.68 0.34 0 0 Z " fill="#0F9DA0" transform="translate(76,155)"/>
<path d="M0 0 C0.99 0.33 1.98 0.66 3 1 C3.33 2.98 3.66 4.96 4 7 C1.69 7 -0.62 7 -3 7 C-2.38722388 4.03824877 -1.74627478 2.61941217 0 0 Z " fill="#FBF1ED" transform="translate(150,102)"/>
<path d="M0 0 C2.475 0.495 2.475 0.495 5 1 C5 6.61 5 12.22 5 18 C4.34 18 3.68 18 3 18 C3.33 13.05 3.66 8.1 4 3 C3.01 3 2.02 3 1 3 C0.67 3.99 0.34 4.98 0 6 C0 4.02 0 2.04 0 0 Z " fill="#2B9396" transform="translate(160,149)"/>
<path d="M0 0 C3.96 0 7.92 0 12 0 C12.33 0.99 12.66 1.98 13 3 C8.48382401 3.07654536 4.40914783 3.10228696 0 2 C0 1.34 0 0.68 0 0 Z " fill="#168C94" transform="translate(135,149)"/>
<path d="M0 0 C2.48627517 3.0622744 4.09989404 6.1457054 5.6875 9.75 C6.12449219 10.73484375 6.56148438 11.7196875 7.01171875 12.734375 C7.33785156 13.48203125 7.66398437 14.2296875 8 15 C7.01 15.495 7.01 15.495 6 16 C2.57680639 11.92476951 0.15506633 7.42937249 -0.1875 2.0625 C-0.125625 1.381875 -0.06375 0.70125 0 0 Z " fill="#92282B" transform="translate(105,88)"/>
<path d="M0 0 C0.99 0.33 1.98 0.66 3 1 C2.38722388 3.96175123 1.74627478 5.38058783 0 8 C1.32 8.33 2.64 8.66 4 9 C3.01 9.33 2.02 9.66 1 10 C-0.37562854 8.71034824 -1.70766393 7.37310707 -3 6 C-3 5.34 -3 4.68 -3 4 C-2.01 3.34 -1.02 2.68 0 2 C0 1.34 0 0.68 0 0 Z " fill="#15ACB0" transform="translate(159,158)"/>
<path d="M0 0 C1.2065625 0.0309375 1.2065625 0.0309375 2.4375 0.0625 C2.4375 2.7025 2.4375 5.3425 2.4375 8.0625 C2.1075 8.0625 1.7775 8.0625 1.4375 8.0625 C1.4375 6.4125 1.4375 4.7625 1.4375 3.0625 C0.4475 3.0625 -0.5425 3.0625 -1.5625 3.0625 C-1.8925 5.0425 -2.2225 7.0225 -2.5625 9.0625 C-2.8925 9.0625 -3.2225 9.0625 -3.5625 9.0625 C-3.66015625 2.91015625 -3.66015625 2.91015625 -3.5625 1.0625 C-2.5625 0.0625 -2.5625 0.0625 0 0 Z " fill="#1A949C" transform="translate(88.5625,148.9375)"/>
<path d="M0 0 C0.99 0 1.98 0 3 0 C3.66 1.65 4.32 3.3 5 5 C4 6 4 6 1.4375 6.0625 C0.2309375 6.0315625 0.2309375 6.0315625 -1 6 C-1.042721 4.33388095 -1.04063832 2.66617115 -1 1 C-0.67 0.67 -0.34 0.34 0 0 Z " fill="#05A9AC" transform="translate(136,159)"/>
<path d="M0 0 C1.65 0 3.3 0 5 0 C5 0.99 5 1.98 5 3 C6.98 3 8.96 3 11 3 C11 3.66 11 4.32 11 5 C8.69 5 6.38 5 4 5 C4 4.34 4 3.68 4 3 C2.68 3.33 1.36 3.66 0 4 C0 2.68 0 1.36 0 0 Z " fill="#19ADB4" transform="translate(135,156)"/>
<path d="M0 0 C2.31 0 4.62 0 7 0 C7.99 2.31 8.98 4.62 10 7 C9.01 7 8.02 7 7 7 C6.67 5.35 6.34 3.7 6 2 C4.35 2.33 2.7 2.66 1 3 C0.67 2.01 0.34 1.02 0 0 Z " fill="#1B9396" transform="translate(110,149)"/>
<path d="M0 0 C0.33 0 0.66 0 1 0 C1 2.31 1 4.62 1 7 C0.01 7.33 -0.98 7.66 -2 8 C-2.33 10.31 -2.66 12.62 -3 15 C-3.66 15 -4.32 15 -5 15 C-5.30017023 10.83513802 -4.45324946 8.34984273 -2.5 4.6875 C-2.0359375 3.80449219 -1.571875 2.92148438 -1.09375 2.01171875 C-0.7328125 1.34785156 -0.371875 0.68398437 0 0 Z " fill="#922428" transform="translate(152,78)"/>
<path d="M0 0 C0.33 0 0.66 0 1 0 C1 6.93 1 13.86 1 21 C-2 17 -2 17 -2 15 C-1.34 15 -0.68 15 0 15 C0 10.05 0 5.1 0 0 Z " fill="#810909" transform="translate(114,72)"/>
<path d="M0 0 C0.66 0 1.32 0 2 0 C2 0.66 2 1.32 2 2 C3.98 2 5.96 2 8 2 C7.67 3.32 7.34 4.64 7 6 C4.03 5.505 4.03 5.505 1 5 C0.67 3.35 0.34 1.7 0 0 Z " fill="#1A989D" transform="translate(139,154)"/>
<path d="M0 0 C1.85625 0.061875 1.85625 0.061875 3.75 0.125 C4.08 1.775 4.41 3.425 4.75 5.125 C4.09 4.465 3.43 3.805 2.75 3.125 C0.08757179 2.66209779 0.08757179 2.66209779 -2.875 2.5 C-4.37933594 2.38785156 -4.37933594 2.38785156 -5.9140625 2.2734375 C-6.68492188 2.22445312 -7.45578125 2.17546875 -8.25 2.125 C-5.3504339 0.46623921 -3.33364791 -0.1111216 0 0 Z " fill="#297B80" transform="translate(79.25,42.875)"/>
<path d="M0 0 C2.875 -0.1875 2.875 -0.1875 6 0 C6.66 0.99 7.32 1.98 8 3 C5.29120665 4.35439668 2.99066732 4.06501451 0 4 C0 2.66666667 0 1.33333333 0 0 Z " fill="#10999F" transform="translate(101,162)"/>
<path d="M0 0 C2.5 1.125 2.5 1.125 5 3 C5.3125 6.1875 5.3125 6.1875 5 9 C4.34 9 3.68 9 3 9 C3 8.01 3 7.02 3 6 C2.34 5.67 1.68 5.34 1 5 C1.33 4.34 1.66 3.68 2 3 C1.34 3 0.68 3 0 3 C0 2.01 0 1.02 0 0 Z " fill="#0D9E9B" transform="translate(175,155)"/>
<path d="M0 0 C2.475 0.495 2.475 0.495 5 1 C5.33 2.32 5.66 3.64 6 5 C5.01 5 4.02 5 3 5 C2.34 5.99 1.68 6.98 1 8 C0.67 5.36 0.34 2.72 0 0 Z " fill="#04A8B2" transform="translate(151,154)"/>
<path d="M0 0 C1.65 0 3.3 0 5 0 C4.34 1.98 3.68 3.96 3 6 C2.01 5.67 1.02 5.34 0 5 C0 3.35 0 1.7 0 0 Z " fill="#06A4AA" transform="translate(135,151)"/>
<path d="M0 0 C-0.33 1.32 -0.66 2.64 -1 4 C-1.99 3.67 -2.98 3.34 -4 3 C-3.34 3 -2.68 3 -2 3 C-2 2.34 -2 1.68 -2 1 C-4.64 0.67 -7.28 0.34 -10 0 C-6.22996568 -2.61002376 -4.07631429 -1.66758312 0 0 Z " fill="#1C8F8E" transform="translate(180,150)"/>
<path d="M0 0 C1.65 0 3.3 0 5 0 C4.67 0.66 4.34 1.32 4 2 C3.01 2 2.02 2 1 2 C0.67 3.32 0.34 4.64 0 6 C-0.66 6 -1.32 6 -2 6 C-2.33 5.01 -2.66 4.02 -3 3 C-2.01 2.67 -1.02 2.34 0 2 C0 1.34 0 0.68 0 0 Z " fill="#0AB5B3" transform="translate(172,152)"/>
<path d="M0 0 C2 3 2 3 1.75 5.625 C1.5025 6.40875 1.255 7.1925 1 8 C0.01 8.495 0.01 8.495 -1 9 C-1.66 8.34 -2.32 7.68 -3 7 C-2.01 4.69 -1.02 2.38 0 0 Z " fill="#1BADB6" transform="translate(86,156)"/>
<path d="M0 0 C0.66 0.33 1.32 0.66 2 1 C1.95875 1.721875 1.9175 2.44375 1.875 3.1875 C2.00921305 6.20729369 2.75170619 8.26935729 4 11 C2 11 2 11 0.3125 9.4375 C-1.52326619 6.02821993 -0.78222319 3.69778233 0 0 Z " fill="#F5D4CD" transform="translate(146,87)"/>
<path d="M0 0 C2.64 0 5.28 0 8 0 C8 0.66 8 1.32 8 2 C5.69 2 3.38 2 1 2 C1.33 2.99 1.66 3.98 2 5 C1.01 5 0.02 5 -1 5 C-0.67 3.35 -0.34 1.7 0 0 Z " fill="#2A999B" transform="translate(168,162)"/>
<path d="M0 0 C2.64 0 5.28 0 8 0 C7.67 0.99 7.34 1.98 7 3 C5.35 3 3.7 3 2 3 C2 2.34 2 1.68 2 1 C1.34 0.67 0.68 0.34 0 0 Z " fill="#941816" transform="translate(97,110)"/>
<path d="M0 0 C1.98 0.495 1.98 0.495 4 1 C4.33 2.32 4.66 3.64 5 5 C2.03 4.505 2.03 4.505 -1 4 C-0.67 2.68 -0.34 1.36 0 0 Z " fill="#01ADB4" transform="translate(113,152)"/>
<path d="M0 0 C0.33 0.99 0.66 1.98 1 3 C1.66 3 2.32 3 3 3 C3.66 4.98 4.32 6.96 5 9 C2 8 2 8 0.8125 6.1875 C0 4 0 4 0 0 Z " fill="#8C0E0D" transform="translate(110,101)"/>
<path d="M0 0 C0.66 0.33 1.32 0.66 2 1 C0.515 4.96 0.515 4.96 -1 9 C-2 5 -2 5 -2 2 C-1.34 2 -0.68 2 0 2 C0 1.34 0 0.68 0 0 Z " fill="#F5D5CF" transform="translate(139,98)"/>
<path d="M0 0 C0.99 0.33 1.98 0.66 3 1 C3.33 2.65 3.66 4.3 4 6 C2.68 5.67 1.36 5.34 0 5 C0 3.35 0 1.7 0 0 Z " fill="#FDFAF4" transform="translate(109,90)"/>
</svg>
