<?xml version="1.0" encoding="UTF-8"?>
<svg version="1.1" xmlns="http://www.w3.org/2000/svg" width="225" height="225">
<path d="M0 0 C4.00151166 1.8394517 5.28412058 6.97437774 6.83813477 10.8449707 C8.59859029 17.00656503 7.5029519 22.13216011 4.83813477 27.8449707 C0.27780328 34.82729642 -5.04490735 38.88077096 -13.16186523 40.8449707 C-19.55262917 41.99482406 -25.60004513 40.04573396 -31.16186523 36.8449707 C-32.95483398 34.7043457 -32.95483398 34.7043457 -34.16186523 32.8449707 C-33.6681543 32.36286133 -33.17444336 31.88075195 -32.66577148 31.3840332 C-31.70477539 30.43657227 -31.70477539 30.43657227 -30.72436523 29.4699707 C-30.0862793 28.84348633 -29.44819336 28.21700195 -28.79077148 27.5715332 C-27.08304347 25.9277401 -27.08304347 25.9277401 -26.16186523 23.8449707 C-25.50186523 23.8449707 -24.84186523 23.8449707 -24.16186523 23.8449707 C-23.83186523 22.8549707 -23.50186523 21.8649707 -23.16186523 20.8449707 C-22.50186523 20.8449707 -21.84186523 20.8449707 -21.16186523 20.8449707 C-20.90969238 20.27045166 -20.65751953 19.69593262 -20.39770508 19.10400391 C-18.02727388 14.77101301 -14.24238538 11.51382115 -10.78686523 8.0324707 C-10.01858398 7.23131836 -9.25030273 6.43016602 -8.45874023 5.60473633 C-7.71366211 4.85256836 -6.96858398 4.10040039 -6.20092773 3.32543945 C-5.52239746 2.63345459 -4.84386719 1.94146973 -4.14477539 1.22851562 C-2.16186523 -0.1550293 -2.16186523 -0.1550293 0 0 Z " fill="#FB6A16" transform="translate(60.161865234375,98.155029296875)"/>
<path d="M0 0 C0.495 0.433125 0.99 0.86625 1.5 1.3125 C-1.33303044 7.83751161 -7.09393735 13.55749633 -12.625 17.9375 C-15.02838427 19.9229044 -16.81839939 21.76584665 -18.8125 24.125 C-22.65136652 28.64384512 -26.99536587 32.47181421 -31.5 36.3125 C-36.00016407 32.16761204 -38.13107701 29.21776854 -38.90625 23.11328125 C-39.13465227 14.61481335 -38.13263509 8.85082311 -32.5 2.3125 C-23.32187381 -6.5513068 -10.32912323 -6.97215818 0 0 Z " fill="#2F2F2F" transform="translate(63.5,86.6875)"/>
<path d="M0 0 C1.4370809 -0.05422947 2.87475462 -0.09289723 4.3125 -0.125 C5.11300781 -0.14820312 5.91351563 -0.17140625 6.73828125 -0.1953125 C9 0 9 0 12 2 C12.4375 4.9375 12.4375 4.9375 12 8 C10.1875 9.875 10.1875 9.875 8 11 C7.01 11 6.02 11 5 11 C5 12.65 5 14.3 5 16 C3.0625 16.5625 3.0625 16.5625 1 17 C0 16 0 16 -0.09765625 12.40234375 C-0.0909822 10.91403133 -0.07902183 9.42573568 -0.0625 7.9375 C-0.05798828 7.17888672 -0.05347656 6.42027344 -0.04882812 5.63867188 C-0.0370068 3.75908129 -0.01907078 1.87953101 0 0 Z M5 4 C5 4.99 5 5.98 5 7 C5.99 7 6.98 7 8 7 C8 6.01 8 5.02 8 4 C7.01 4 6.02 4 5 4 Z " fill="#EC874E" transform="translate(76,100)"/>
<path d="M0 0 C2 2 2 2 2.1953125 4.3828125 C2.17210937 5.28773437 2.14890625 6.19265625 2.125 7.125 C2.10695312 8.03507812 2.08890625 8.94515625 2.0703125 9.8828125 C2.04710937 10.58148438 2.02390625 11.28015625 2 12 C-1.98196457 13.05404945 -4.98195309 12.84098656 -9 12 C-9.33 10.35 -9.66 8.7 -10 7 C-8.35 6.01 -6.7 5.02 -5 4 C-5.99 3.67 -6.98 3.34 -8 3 C-8 2.01 -8 1.02 -8 0 C-4.67679974 -1.10773342 -3.30835256 -0.93312508 0 0 Z M-5 7 C-5 7.99 -5 8.98 -5 10 C-4.01 9.67 -3.02 9.34 -2 9 C-2 8.34 -2 7.68 -2 7 C-2.99 7 -3.98 7 -5 7 Z " fill="#E67C42" transform="translate(135,104)"/>
<path d="M0 0 C-0.33 0.99 -0.66 1.98 -1 3 C-2.98 3 -4.96 3 -7 3 C-6.5875 3.4125 -6.175 3.825 -5.75 4.25 C-3.83333333 6.16666667 -1.91666667 8.08333333 0 10 C-1.875 14.875 -1.875 14.875 -3 16 C-5.33297433 16.04092937 -7.66705225 16.04241723 -10 16 C-10.33 14.68 -10.66 13.36 -11 12 C-9.02 12 -7.04 12 -5 12 C-5.804375 11.195625 -6.60875 10.39125 -7.4375 9.5625 C-11 6 -11 6 -11.25 3.5625 C-11.1675 2.716875 -11.085 1.87125 -11 1 C-6.8204355 -1.78637633 -4.85331323 -0.79562512 0 0 Z " fill="#0F0F0F" transform="translate(155,101)"/>
<path d="M0 0 C1.875 1.1875 1.875 1.1875 3 3 C3.1875 5.6875 3.1875 5.6875 3 8 C0.69 8.33 -1.62 8.66 -4 9 C-2.02 9 -0.04 9 2 9 C1.67 10.32 1.34 11.64 1 13 C-5.34507042 13.35915493 -5.34507042 13.35915493 -7.9375 11.9375 C-9.6140629 8.88023824 -9.36528977 6.4093712 -9 3 C-6.84332735 -0.71426957 -4.0099826 -0.50124783 0 0 Z M-4 3 C-4.33 3.66 -4.66 4.32 -5 5 C-3.68 5 -2.36 5 -1 5 C-1 4.34 -1 3.68 -1 3 C-1.99 3 -2.98 3 -4 3 Z " fill="#202325" transform="translate(190,104)"/>
<path d="M0 0 C1.32 0 2.64 0 4 0 C4 2.97 4 5.94 4 9 C5.32 9 6.64 9 8 9 C8 6.03 8 3.06 8 0 C9.32 0 10.64 0 12 0 C12 4.29 12 8.58 12 13 C10.68 12.67 9.36 12.34 8 12 C7.154375 12.20625 6.30875 12.4125 5.4375 12.625 C3 13 3 13 1.359375 11.84765625 C-0.45213703 9.38545743 -0.30525468 7.83487007 -0.1875 4.8125 C-0.16042969 3.91144531 -0.13335937 3.01039062 -0.10546875 2.08203125 C-0.07066406 1.39496094 -0.03585938 0.70789063 0 0 Z " fill="#EC7D40" transform="translate(100,104)"/>
<path d="M0 0 C-1 3 -1 3 -3 4 C-2.01 4.66 -1.02 5.32 0 6 C0.375 8.5 0.375 8.5 0 11 C-3.8503105 13.56687367 -5.58569763 12.83288724 -10 12 C-10 11.01 -10 10.02 -10 9 C-7.03 9.495 -7.03 9.495 -4 10 C-4 9.34 -4 8.68 -4 8 C-4.804375 7.7525 -5.60875 7.505 -6.4375 7.25 C-9 6 -9 6 -9.8125 3.875 C-9.874375 3.25625 -9.93625 2.6375 -10 2 C-6.27511755 -0.66063032 -4.42132508 -1.38955931 0 0 Z " fill="#EA7534" transform="translate(124,104)"/>
<path d="M0 0 C2.00784185 -0.00356 4.01449117 0.14456639 6.015625 0.30859375 C5.355625 1.62859375 4.695625 2.94859375 4.015625 4.30859375 C2.695625 3.97859375 1.375625 3.64859375 0.015625 3.30859375 C0.345625 5.28859375 0.675625 7.26859375 1.015625 9.30859375 C2.665625 9.30859375 4.315625 9.30859375 6.015625 9.30859375 C5.685625 10.62859375 5.355625 11.94859375 5.015625 13.30859375 C-0.609375 13.55859375 -0.609375 13.55859375 -3.984375 11.30859375 C-5.06276259 7.84234792 -5.17632889 5.89725235 -4.046875 2.43359375 C-1.984375 0.30859375 -1.984375 0.30859375 0 0 Z " fill="#121315" transform="translate(173.984375,103.69140625)"/>
<path d="M0 0 C1.32 0.33 2.64 0.66 4 1 C4 6.28 4 11.56 4 17 C2.68 17.33 1.36 17.66 0 18 C0 12.06 0 6.12 0 0 Z " fill="#0E0F11" transform="translate(157,99)"/>
<path d="M0 0 C0 0.99 0 1.98 0 3 C-0.639375 3.165 -1.27875 3.33 -1.9375 3.5 C-4.16119241 4.781786 -4.16119241 4.781786 -4.48828125 6.9140625 C-4.7275978 8.93575155 -4.86893028 10.96841939 -5 13 C-6.32 12.67 -7.64 12.34 -9 12 C-9 8.04 -9 4.08 -9 0 C-2.25 -1.125 -2.25 -1.125 0 0 Z " fill="#E97A3F" transform="translate(99,104)"/>
<path d="M0 0 C0.57073242 0.24202148 1.14146484 0.48404297 1.72949219 0.73339844 C1.72949219 1.39339844 1.72949219 2.05339844 1.72949219 2.73339844 C0.73949219 3.06339844 -0.25050781 3.39339844 -1.27050781 3.73339844 C-1.82738281 4.47589844 -2.38425781 5.21839844 -2.95800781 5.98339844 C-5.05767183 8.48029619 -6.35400541 9.51735843 -9.08300781 11.10839844 C-13.49426541 13.69887429 -16.81890397 16.99056552 -20.27050781 20.73339844 C-20.27050781 16.08106521 -17.21905709 14.22529876 -14.06738281 11.02246094 C-13.22691406 10.18457031 -12.38644531 9.34667969 -11.52050781 8.48339844 C-10.69550781 7.63003906 -9.87050781 6.77667969 -9.02050781 5.89746094 C-8.22128906 5.09566406 -7.42207031 4.29386719 -6.59863281 3.46777344 C-5.86547852 2.7275293 -5.13232422 1.98728516 -4.37695312 1.22460938 C-2.27050781 -0.26660156 -2.27050781 -0.26660156 0 0 Z " fill="#E36D32" transform="translate(60.2705078125,98.2666015625)"/>
<path d="M0 0 C2.64 0 5.28 0 8 0 C8 1.32 8 2.64 8 4 C6.68 4 5.36 4 4 4 C4 6.97 4 9.94 4 13 C2.68 13 1.36 13 0 13 C0 8.71 0 4.42 0 0 Z " fill="#101115" transform="translate(195,104)"/>
<path d="M0 0 C6.15234375 -0.09765625 6.15234375 -0.09765625 8 0 C9 1 9 1 9.0625 3.5625 C9.041875 4.366875 9.02125 5.17125 9 6 C8.34 5.01 7.68 4.02 7 3 C4.94074861 2.27617533 4.94074861 2.27617533 3 2 C3 3.65 3 5.3 3 7 C3.99 7 4.98 7 6 7 C6 7.66 6 8.32 6 9 C4.68 9 3.36 9 2 9 C2 10.65 2 12.3 2 14 C1.34 14 0.68 14 0 14 C0 9.38 0 4.76 0 0 Z " fill="#EA6214" transform="translate(77,101)"/>
<path d="M0 0 C-0.33 0.99 -0.66 1.98 -1 3 C-2.98 3 -4.96 3 -7 3 C-6.34 4.32 -5.68 5.64 -5 7 C-6.875 7.625 -6.875 7.625 -9 8 C-11 6 -11 6 -11.3125 3.5 C-11.209375 2.675 -11.10625 1.85 -11 1 C-6.8204355 -1.78637633 -4.85331323 -0.79562512 0 0 Z " fill="#191B1D" transform="translate(155,101)"/>
<path d="M0 0 C1.32 0 2.64 0 4 0 C4 4.29 4 8.58 4 13 C2.68 12.67 1.36 12.34 0 12 C0 8.04 0 4.08 0 0 Z " fill="#0D1012" transform="translate(163,104)"/>
<path d="M0 0 C1.32 0 2.64 0 4 0 C4 3.3 4 6.6 4 10 C4.66 10 5.32 10 6 10 C6 10.66 6 11.32 6 12 C1.125 11.125 1.125 11.125 0 10 C-0.07205511 8.31391034 -0.08386068 6.62499341 -0.0625 4.9375 C-0.05347656 4.01839844 -0.04445313 3.09929687 -0.03515625 2.15234375 C-0.02355469 1.44207031 -0.01195313 0.73179688 0 0 Z " fill="#EC722D" transform="translate(100,104)"/>
<path d="M0 0 C0.99 0.33 1.98 0.66 3 1 C3.1875 3.375 3.1875 3.375 3 6 C-0.8503105 8.56687367 -2.58569763 7.83288724 -7 7 C-7 6.01 -7 5.02 -7 4 C-4.03 4.495 -4.03 4.495 -1 5 C-0.67 3.35 -0.34 1.7 0 0 Z " fill="#E7814A" transform="translate(121,109)"/>
<path d="M0 0 C-1.37154504 2.95409701 -2.98863724 5.44008376 -5 8 C-4.67 8.66 -4.34 9.32 -4 10 C-4.66 10 -5.32 10 -6 10 C-5.67 10.99 -5.34 11.98 -5 13 C-6.32 12.34 -7.64 11.68 -9 11 C-9 7.25983417 -8.0658409 6.54723807 -5.625 3.8125 C-4.99851562 3.09707031 -4.37203125 2.38164063 -3.7265625 1.64453125 C-2 0 -2 0 0 0 Z " fill="#E07640" transform="translate(36,122)"/>
<path d="M0 0 C0.33 0.66 0.66 1.32 1 2 C4.3 2 7.6 2 11 2 C10.67 3.32 10.34 4.64 10 6 C3.539801 6.36567164 3.539801 6.36567164 1.0625 4.6875 C0 3 0 3 0 0 Z " fill="#121315" transform="translate(181,111)"/>
<path d="M0 0 C0.99 0 1.98 0 3 0 C3 1.32 3 2.64 3 4 C1.35 4 -0.3 4 -2 4 C-2 6.31 -2 8.62 -2 11 C-4 9 -4 9 -4.125 5.375 C-4.08375 4.26125 -4.0425 3.1475 -4 2 C-2.68 2 -1.36 2 0 2 C0 1.34 0 0.68 0 0 Z " fill="#1F2123" transform="translate(200,104)"/>
<path d="M0 0 C0.66 0.33 1.32 0.66 2 1 C1 4 1 4 -1.125 5.25 C-5.00626274 7.61250776 -7.884161 10.72253246 -11 14 C-11 11 -11 11 -8.59375 8.30078125 C-7.5700032 7.29697757 -6.5383946 6.30114351 -5.5 5.3125 C-4.97535156 4.80138672 -4.45070313 4.29027344 -3.91015625 3.76367188 C-2.61339096 2.50227292 -1.30753883 1.25022788 0 0 Z " fill="#E58452" transform="translate(51,105)"/>
<path d="M0 0 C1.32 0.33 2.64 0.66 4 1 C3.34 1 2.68 1 2 1 C2 2.65 2 4.3 2 6 C2.99 6 3.98 6 5 6 C5 6.66 5 7.32 5 8 C3.68 8 2.36 8 1 8 C1 9.65 1 11.3 1 13 C0.67 13 0.34 13 0 13 C0 8.71 0 4.42 0 0 Z " fill="#F5640B" transform="translate(78,102)"/>
<path d="M0 0 C0.66 0 1.32 0 2 0 C0.64978174 4.41889613 -1.26115668 6.34345343 -5 9 C-5 7.02 -5 5.04 -5 3 C-4.360625 2.690625 -3.72125 2.38125 -3.0625 2.0625 C-1.06389179 1.1654837 -1.06389179 1.1654837 0 0 Z " fill="#EC7B39" transform="translate(63,124)"/>
<path d="M0 0 C0 1.98 0 3.96 0 6 C-1.32 6 -2.64 6 -4 6 C-4.33 4.35 -4.66 2.7 -5 1 C-2 0 -2 0 0 0 Z " fill="#E87525" transform="translate(130,110)"/>
<path d="M0 0 C0.66 0.33 1.32 0.66 2 1 C2 2.65 2 4.3 2 6 C-0.97 6 -3.94 6 -7 6 C-6.67 5.34 -6.34 4.68 -6 4 C-4.68 4 -3.36 4 -2 4 C-1.67 3.34 -1.34 2.68 -1 2 C-1 2.66 -1 3.32 -1 4 C-0.34 4 0.32 4 1 4 C0.67 2.68 0.34 1.36 0 0 Z " fill="#0F1317" transform="translate(191,106)"/>
<path d="M0 0 C0 2.62113708 -0.31292445 4.50935112 -1 7 C-2.423125 7.2165625 -2.423125 7.2165625 -3.875 7.4375 C-6.8934494 7.82935399 -6.8934494 7.82935399 -9 9 C-7.73532205 5.20596616 -6.38302487 4.93315707 -3 3 C-1.24850835 1.41754725 -1.24850835 1.41754725 0 0 Z " fill="#EF6E26" transform="translate(45,113)"/>
<path d="M0 0 C1.32 0.33 2.64 0.66 4 1 C4 1.99 4 2.98 4 4 C2.02 4.66 0.04 5.32 -2 6 C-2 5.34 -2 4.68 -2 4 C-1.34 3.67 -0.68 3.34 0 3 C0 2.01 0 1.02 0 0 Z " fill="#F1752D" transform="translate(53,131)"/>
<path d="M0 0 C1.65 0.33 3.3 0.66 5 1 C4.01 1.495 4.01 1.495 3 2 C3.33 2.99 3.66 3.98 4 5 C2.68 4.34 1.36 3.68 0 3 C0 2.01 0 1.02 0 0 Z " fill="#E16F2D" transform="translate(27,130)"/>
<path d="M0 0 C0.99 0.33 1.98 0.66 3 1 C2.34 2.32 1.68 3.64 1 5 C0.34 5 -0.32 5 -1 5 C-1.33 3.68 -1.66 2.36 -2 1 C-1.34 0.67 -0.68 0.34 0 0 Z " fill="#423B38" transform="translate(54,96)"/>
<path d="M0 0 C1.98 0.495 1.98 0.495 4 1 C3.67 1.99 3.34 2.98 3 4 C1.68 3.67 0.36 3.34 -1 3 C-0.67 2.01 -0.34 1.02 0 0 Z " fill="#0B0D0E" transform="translate(164,99)"/>
</svg>
