<?xml version="1.0"?>
<svg xmlns="http://www.w3.org/2000/svg" width="150" height="28" viewBox="0 0 150 28" fill="none">
<g clip-path="url(#clip0_20893_279)">
<path fill-rule="evenodd" clip-rule="evenodd" d="M21.2509 2.29798C20.6649 0.544273 17.5197 0.0147028 14.8619 0.132323C12.2227 0.248813 9.81596 0.880322 9.966 1.3642C10.1231 1.8685 11.4529 1.83443 12.2632 1.81366C12.4021 1.8101 12.5258 1.80693 12.6256 1.80693C15.139 1.80693 17.5595 2.26816 18.1378 2.93214C19.0394 3.9692 17.4868 6.52718 12.7121 10.0144C11.796 10.6837 11.1124 11.2995 10.9612 11.6016C10.8796 11.7627 10.9184 11.9964 11.169 12.0288C11.4317 12.0632 12.062 11.9248 13.1015 11.4205C17.3434 9.36325 22.2111 5.17219 21.2509 2.29798ZM26.2155 9.61476L26.1424 9.60288C23.796 9.2192 19.5982 9.06838 18.1631 11.2676C17.1045 12.891 18.9671 15.0862 20.798 17.2438C20.8846 17.3459 20.971 17.4478 21.0572 17.5497C21.2199 17.7419 21.3839 17.9331 21.5466 18.1227C22.9136 19.7153 24.1785 21.1893 23.5708 22.0898C23.0935 22.7989 20.3899 22.8962 18.8662 22.951C18.6205 22.9598 18.4054 22.9676 18.2353 22.9766C17.8274 22.9984 17.3705 23.0147 16.9144 23.031C15.7061 23.074 14.5033 23.1168 14.2315 23.2633C13.8954 23.4444 13.7084 24.0068 14.9677 24.2314C15.9787 24.4129 18.3853 24.7812 20.926 24.7794C23.578 24.7788 26.3637 24.3445 26.968 22.2912C27.4062 20.8025 26.0771 19.2173 24.7255 17.6051L24.7247 17.6042L24.724 17.6033C24.579 17.4303 24.4335 17.2568 24.2901 17.0834C23.9227 16.6384 23.5543 16.2223 23.2057 15.8288C22.017 14.4866 21.06 13.4059 21.1668 12.3308C21.273 11.2509 23.3935 11.1884 26.9102 11.1268C27.6438 11.1133 29.0997 11.0782 28.8189 10.5C28.5732 9.9994 27.5188 9.82742 26.2155 9.61476ZM46.871 18.8602C47.452 15.3449 49.8311 12.3979 54.2619 12.3979C58.6918 12.3979 60.1059 15.3449 59.5282 18.8602C58.9483 22.3793 56.5654 25.3202 52.1408 25.3202C47.7087 25.3202 46.3 22.3793 46.871 18.8602ZM56.7883 18.8602C56.3199 21.7378 54.9985 23.1968 52.4849 23.1968C49.9741 23.1968 49.1362 21.7378 49.611 18.8602C50.0806 15.9839 51.3969 14.5232 53.9139 14.5232C56.4261 14.5232 57.2603 15.9839 56.7883 18.8602ZM8.92189 13.2339C11.1308 13.1186 13.8141 13.4641 15.3213 14.4975C16.0706 15.0107 16.5975 15.9558 16.2924 17.0391C15.4226 20.1134 12.176 23.8331 4.96135 26.6913C2.66731 27.6003 0.863555 27.9479 0.485015 27.7039C0.128375 27.4743 0.992515 25.8884 1.45149 25.0461C1.5162 24.9274 1.57321 24.8227 1.61722 24.7395C2.76887 22.5589 4.20786 20.4355 5.61061 18.4915C5.6596 18.4236 5.71113 18.351 5.76486 18.2753C6.27789 17.5525 6.99332 16.5446 7.64694 16.6345C8.29356 16.7232 7.53612 18.0422 7.03808 18.8806C6.20115 20.2877 3.89578 24.1963 4.65624 24.4297C6.33746 24.9466 14.2259 19.5686 13.0627 16.5729C12.5235 15.183 9.09836 15.0505 6.9416 15.0505C6.77137 15.0505 6.56618 15.0567 6.34268 15.0636H6.34164C5.27678 15.0961 3.79684 15.1412 3.69888 14.585C3.57106 13.9638 6.95446 13.3382 8.92189 13.2339ZM37.9275 18.045C36.8203 17.2696 36.515 16.0899 36.6709 15.1006C36.8965 13.6604 38.1299 12.3979 39.5428 12.3979H45.9V13.7182C45.8097 14.3152 45.4761 14.9138 44.8853 14.9138H40.0749C39.5965 14.9138 39.3222 15.0392 39.2836 15.3449C39.2587 15.5252 39.3423 15.6524 39.6816 15.8958L43.891 18.8865C44.7929 19.5253 45.2586 20.5228 45.0368 21.9159C44.8015 23.3987 43.6331 24.7914 41.2675 24.7914H35.8685V23.0743C35.9601 22.5144 36.2306 22.2802 36.72 22.2802H41.3275C42.1478 22.2802 42.3904 22.0887 42.4633 21.6268C42.5125 21.2923 42.3118 21.0969 41.891 20.8101L37.9275 18.045ZM68.7791 22.7751H63.5157L65.33 12.8245C65.3703 12.6222 65.2224 12.3979 64.9734 12.3979H62.6565L60.3945 24.7914H69.1172L69.3415 23.5478C69.4405 22.9992 69.2576 22.7751 68.7791 22.7751ZM138.915 12.4744H139.526C139.638 12.4744 139.759 12.4895 139.863 12.5715C139.965 12.6469 140.019 12.7893 140.016 12.9064C140.016 13.2029 139.838 13.3556 139.838 13.3556L133.457 18.7689L138.235 23.962C138.235 23.962 138.419 24.1852 138.419 24.4107C138.419 24.5322 138.366 24.6723 138.258 24.7529C138.157 24.8252 138.044 24.8413 137.921 24.8467H137.317L132.269 19.3592L131.257 24.8413H129.897L132.202 12.4514H132.812C132.95 12.4514 133.092 12.4958 133.204 12.5854C133.313 12.6592 133.439 12.8441 133.385 13.1124L132.541 17.9297L138.915 12.4744ZM84.6157 12.3979H77.9473L77.9133 12.5962C77.7596 13.4395 77.828 14.4094 79.1606 14.4094H84.0973C86.0532 14.4094 86.802 15.8271 86.3204 18.4834C85.8768 20.9139 84.561 22.7751 82.5707 22.7751H79.8905L81.167 15.8057H78.8873C78.5807 15.8057 78.363 16.0273 78.334 16.2271L76.7684 24.7876H81.9932C85.8533 24.7876 88.5431 22.9779 89.3714 18.392C90.0218 14.8751 88.55 12.3979 84.6157 12.3979ZM120.626 12.4515H123.814C125.694 12.4515 127.349 12.4802 128.311 13.5815C128.86 14.2129 128.9 15.3774 128.747 16.0899C128.556 16.9715 127.724 19.177 124.598 19.4584L127.231 23.962C127.231 23.962 127.407 24.2352 127.407 24.4107C127.411 24.5322 127.357 24.6723 127.25 24.7529C127.147 24.8252 127.035 24.8467 126.911 24.8467H126.223L123.135 19.5314L120.651 19.5171L119.686 24.8467H118.324L120.626 12.4515ZM125.225 18.0826C124.468 18.2851 123.405 18.3225 122.302 18.3225C122.081 18.3191 121.809 18.3165 121.527 18.3138C121.309 18.3116 121.082 18.3095 120.87 18.3069L121.684 13.7958C121.821 13.7952 122.025 13.7934 122.268 13.7911C123.165 13.783 124.59 13.77 125.151 13.7996C125.435 13.8145 125.689 13.8345 125.843 13.8649C126.428 13.9761 126.81 14.0901 127.057 14.3354C128.126 15.3524 127.167 17.559 125.225 18.0826ZM141.631 15.3449C141.643 14.4183 141.894 12.4589 144.283 12.4514H149.401V13.3905C149.405 13.543 149.246 13.7371 149.099 13.762L149.107 13.7958L149.097 13.762C149.059 13.7731 144.506 13.7795 144.501 13.7795C143.567 13.7795 142.993 14.388 142.988 15.1495C142.993 15.5998 143.248 16.0173 143.658 16.4219L146.96 19.6724C146.965 19.6724 148.146 20.6641 148.146 21.9485V21.9534C148.135 22.8778 147.88 24.8378 145.493 24.8467H140.432V23.9173L140.417 23.9096H140.432C140.43 23.7555 140.58 23.5616 140.731 23.5339C140.758 23.524 142.727 23.5207 144.065 23.5183H144.067C144.757 23.5172 145.281 23.515 145.281 23.515C146.213 23.519 146.79 22.9015 146.79 22.1448C146.79 21.6955 146.586 21.2209 146.173 20.8169L142.69 17.4037C142.338 17.0957 141.631 16.3192 141.631 15.3449ZM75.3454 12.3979H73.0267L70.7609 24.7876H73.5151L75.7028 12.8207C75.7404 12.6222 75.5935 12.3979 75.3454 12.3979ZM113.216 12.4214V12.4277C116.939 12.8604 118.047 16.179 117.296 19.3544C116.461 22.8765 113.92 25.6569 109.869 25.3461C106.097 24.9077 105.021 21.584 105.819 18.4132C106.693 14.8928 109.224 12.1125 113.216 12.4214ZM115.967 19.2472C115.109 22.859 112.66 24.2016 110.359 24.0776L110.132 24.066C107.903 23.7805 106.259 22.0612 107.134 18.5209C108.03 14.9102 110.628 13.569 112.903 13.693C115.161 13.9236 116.808 15.7067 115.967 19.2472ZM105.653 12.562C105.768 12.6506 105.824 12.8182 105.819 12.9409C105.819 13.0523 105.795 13.1089 105.762 13.1862L105.755 13.2029L100.976 23.9547C100.731 24.5158 100.259 24.8413 99.6937 24.8413H98.7987L97.4197 18.0826L94.0911 24.0111C93.9358 24.2566 93.7632 24.4595 93.5586 24.6083C93.3339 24.7714 93.0607 24.8468 92.7572 24.8413H91.7043V12.4515H92.5144C92.6427 12.4515 92.7763 12.4744 92.8934 12.5715C93.0165 12.6668 93.0686 12.8396 93.0686 12.9776L93.0304 23.2922L96.8265 16.6773H97.6339C98.1248 16.6499 98.5342 17.0004 98.6061 17.5126L99.8611 23.3515L104.67 12.4515H105.296C105.419 12.4515 105.542 12.4739 105.653 12.562Z" fill="#DA291C"/>
</g>
<defs>
<clipPath id="clip0_20893_279">
<rect width="150" height="28" fill="white"/>
</clipPath>
</defs>
</svg>
